<svg width="46" height="47" viewBox="0 0 46 47" fill="none" xmlns="http://www.w3.org/2000/svg">
<circle cx="23" cy="23.043" r="22.5" fill="#18181B" stroke="url(#paint0_linear_124_7443)"/>
<path fill-rule="evenodd" clip-rule="evenodd" d="M24.001 11.9141C18.1016 11.9141 13.3554 16.6602 13.3554 22.5596C13.3554 27.2614 16.416 31.2535 20.6299 32.6729C21.1622 32.7616 21.3396 32.4511 21.3396 32.1406C21.3396 31.8745 21.3396 31.2091 21.3396 30.322C18.3677 30.9873 17.7467 28.9026 17.7467 28.9026C17.2588 27.6606 16.5491 27.3501 16.5491 27.3501C15.5733 26.6848 16.6378 26.6848 16.6378 26.6848C17.7024 26.7735 18.279 27.7937 18.279 27.7937C19.2105 29.4349 20.763 28.9469 21.384 28.6808C21.4727 27.9711 21.7388 27.5275 22.0493 27.2614C19.6984 26.9952 17.2144 26.0638 17.2144 21.983C17.2144 20.8297 17.6137 19.8539 18.3234 19.1442C18.2346 18.878 17.8354 17.8135 18.4121 16.3053C18.4121 16.3053 19.2992 16.0392 21.3396 17.4143C22.1824 17.1925 23.1138 17.0594 24.001 17.0594C24.8881 17.0594 25.8196 17.1925 26.6624 17.4143C28.7028 16.0392 29.5899 16.3053 29.5899 16.3053C30.1665 17.7691 29.8117 18.8337 29.6786 19.1442C30.3439 19.8982 30.7875 20.8297 30.7875 21.983C30.7875 26.0638 28.3036 26.9509 25.9083 27.217C26.3075 27.5275 26.618 28.1929 26.618 29.1687C26.618 30.5881 26.618 31.7414 26.618 32.0962C26.618 32.3624 26.7954 32.7172 27.3721 32.6285C31.5859 31.2535 34.6465 27.2614 34.6465 22.5596C34.6465 16.6602 29.9004 11.9141 24.001 11.9141Z" fill="white"/>
<defs>
<linearGradient id="paint0_linear_124_7443" x1="-3.05176e-05" y1="23.043" x2="46" y2="23.043" gradientUnits="userSpaceOnUse">
<stop stop-color="#0CBAF1"/>
<stop offset="1" stop-color="#E95CE9"/>
</linearGradient>
</defs>
</svg>
