<svg width="46" height="47" viewBox="0 0 46 47" fill="none" xmlns="http://www.w3.org/2000/svg">
<circle cx="23" cy="23.043" r="22.5" fill="#18181B" stroke="url(#paint0_linear_124_7436)"/>
<path d="M22.9962 13.9194C25.9677 13.9194 26.3195 13.9305 27.4934 13.9841C28.1992 13.9927 28.8982 14.1223 29.5602 14.3672C30.0403 14.5524 30.4762 14.836 30.84 15.1998C31.2039 15.5636 31.4875 15.9996 31.6726 16.4796C31.9175 17.1416 32.0471 17.8407 32.0558 18.5464C32.1088 19.7203 32.1204 20.0722 32.1204 23.0436C32.1204 26.0151 32.1093 26.367 32.0558 27.5408C32.0471 28.2466 31.9175 28.9457 31.6726 29.6076C31.4875 30.0877 31.2039 30.5236 30.84 30.8875C30.4762 31.2513 30.0403 31.5349 29.5602 31.72C28.8982 31.9649 28.1992 32.0945 27.4934 32.1032C26.3201 32.1562 25.9682 32.1678 22.9962 32.1678C20.0242 32.1678 19.6723 32.1567 18.499 32.1032C17.7932 32.0945 17.0942 31.9649 16.4322 31.72C15.9521 31.5349 15.5162 31.2513 15.1524 30.8875C14.7885 30.5236 14.5049 30.0877 14.3198 29.6076C14.0749 28.9457 13.9453 28.2466 13.9366 27.5408C13.8836 26.367 13.872 26.0151 13.872 23.0436C13.872 20.0722 13.8831 19.7203 13.9366 18.5464C13.9453 17.8407 14.0749 17.1416 14.3198 16.4796C14.5049 15.9996 14.7885 15.5636 15.1524 15.1998C15.5162 14.836 15.9521 14.5524 16.4322 14.3672C17.0942 14.1223 17.7932 13.9927 18.499 13.9841C19.6729 13.9311 20.0248 13.9194 22.9962 13.9194ZM22.9962 11.9141C19.9755 11.9141 19.595 11.9268 18.4079 11.9808C17.4842 11.9992 16.5703 12.1741 15.7051 12.4981C14.9629 12.7777 14.2906 13.2159 13.7353 13.7821C13.1685 14.3377 12.7299 15.0104 12.4501 15.753C12.1262 16.6182 11.9513 17.5321 11.9329 18.4558C11.8799 19.6418 11.8672 20.0224 11.8672 23.0431C11.8672 26.0638 11.8799 26.4443 11.9339 27.6314C11.9523 28.5551 12.1272 29.469 12.4512 30.3342C12.7307 31.0768 13.1689 31.7494 13.7353 32.3051C14.291 32.8714 14.9636 33.3097 15.7062 33.5892C16.5714 33.9131 17.4852 34.088 18.4089 34.1064C19.596 34.1594 19.9749 34.1732 22.9973 34.1732C26.0196 34.1732 26.3985 34.1605 27.5856 34.1064C28.5093 34.088 29.4232 33.9131 30.2884 33.5892C31.0274 33.3027 31.6986 32.8651 32.2589 32.3045C32.8192 31.7438 33.2563 31.0724 33.5423 30.3331C33.8663 29.4679 34.0411 28.5541 34.0595 27.6304C34.1125 26.4443 34.1252 26.0638 34.1252 23.0431C34.1252 20.0224 34.1125 19.6418 34.0585 18.4548C34.0401 17.5311 33.8652 16.6172 33.5412 15.752C33.2617 15.0094 32.8235 14.3368 32.2571 13.7811C31.7015 13.2147 31.0288 12.7765 30.2862 12.497C29.421 12.173 28.5072 11.9981 27.5835 11.9798C26.3974 11.9268 26.0169 11.9141 22.9962 11.9141Z" fill="white"/>
<path d="M23.0002 17.3281C21.8698 17.3281 20.7649 17.6633 19.8251 18.2913C18.8852 18.9193 18.1527 19.8118 17.7202 20.8561C17.2876 21.9004 17.1744 23.0495 17.395 24.1581C17.6155 25.2667 18.1598 26.285 18.959 27.0843C19.7583 27.8835 20.7766 28.4278 21.8852 28.6484C22.9938 28.8689 24.1429 28.7557 25.1872 28.3231C26.2315 27.8906 27.1241 27.1581 27.752 26.2182C28.38 25.2784 28.7152 24.1735 28.7152 23.0431C28.7152 21.5274 28.1131 20.0738 27.0413 19.002C25.9695 17.9302 24.5159 17.3281 23.0002 17.3281ZM23.0002 26.7528C22.2665 26.7528 21.5492 26.5353 20.9392 26.1276C20.3291 25.72 19.8536 25.1406 19.5729 24.4628C19.2921 23.7849 19.2186 23.039 19.3618 22.3194C19.5049 21.5998 19.8582 20.9388 20.377 20.42C20.8958 19.9012 21.5568 19.5479 22.2764 19.4048C22.996 19.2616 23.7419 19.3351 24.4198 19.6159C25.0977 19.8966 25.677 20.3721 26.0846 20.9822C26.4923 21.5922 26.7098 22.3094 26.7098 23.0431C26.7098 24.027 26.319 24.9706 25.6233 25.6663C24.9276 26.362 23.984 26.7528 23.0002 26.7528Z" fill="white"/>
<path d="M28.937 18.4385C29.6746 18.4385 30.2725 17.8406 30.2725 17.1031C30.2725 16.3655 29.6746 15.7676 28.937 15.7676C28.1995 15.7676 27.6015 16.3655 27.6015 17.1031C27.6015 17.8406 28.1995 18.4385 28.937 18.4385Z" fill="white"/>
<defs>
<linearGradient id="paint0_linear_124_7436" x1="-1.52588e-05" y1="23.043" x2="46" y2="23.043" gradientUnits="userSpaceOnUse">
<stop stop-color="#0CBAF1"/>
<stop offset="1" stop-color="#E95CE9"/>
</linearGradient>
</defs>
</svg>
