<svg width="30" height="8" viewBox="0 0 30 8" fill="none" xmlns="http://www.w3.org/2000/svg">
<g clip-path="url(#clip0_147_4573)">
<path d="M9.18262 2.44596H9.89265V5.31688H9.18262V2.44596ZM10.1743 4.23289C10.1743 3.52285 10.6098 3.09919 11.282 3.09919C11.9541 3.09919 12.3896 3.52285 12.3896 4.23289C12.3896 4.94292 11.9636 5.36895 11.282 5.36895C10.6003 5.36895 10.1743 4.95476 10.1743 4.23289ZM11.6772 4.23289C11.6772 3.84237 11.5234 3.61279 11.282 3.61279C11.0405 3.61279 10.8891 3.84947 10.8891 4.23289C10.8891 4.61631 11.0382 4.84825 11.282 4.84825C11.5257 4.84825 11.6772 4.63051 11.6772 4.23525V4.23289ZM12.6571 5.45652H13.3387C13.3712 5.52859 13.426 5.58825 13.4951 5.62664C13.5642 5.66501 13.6438 5.68006 13.7221 5.66953C13.9919 5.66953 14.1339 5.52279 14.1339 5.30978V4.91216H14.1197C14.0632 5.03402 13.9714 5.13612 13.8562 5.20533C13.741 5.27451 13.6078 5.3076 13.4736 5.30031C12.9553 5.30031 12.6121 4.90505 12.6121 4.22579C12.6121 3.54652 12.9387 3.11813 13.4831 3.11813C13.6214 3.11271 13.7581 3.1497 13.8749 3.22414C13.9917 3.29859 14.0829 3.40695 14.1363 3.53468V3.13943H14.8464V5.29321C14.8464 5.81154 14.3896 6.13342 13.715 6.13342C13.0878 6.13342 12.6973 5.85177 12.6571 5.45888V5.45652ZM14.1363 4.23052C14.1363 3.88497 13.9777 3.66722 13.7269 3.66722C13.476 3.66722 13.3221 3.8826 13.3221 4.23052C13.3221 4.57844 13.4736 4.77488 13.7269 4.77488C13.9801 4.77488 14.1363 4.58317 14.1363 4.23289V4.23052ZM15.1138 4.23052C15.1138 3.52048 15.5493 3.09683 16.2215 3.09683C16.8936 3.09683 17.3315 3.52048 17.3315 4.23052C17.3315 4.94056 16.9055 5.36658 16.2215 5.36658C15.5375 5.36658 15.1138 4.95476 15.1138 4.23289V4.23052ZM16.6167 4.23052C16.6167 3.84 16.4629 3.61042 16.2215 3.61042C15.98 3.61042 15.8404 3.84947 15.8404 4.23525C15.8404 4.62104 15.9895 4.85062 16.2309 4.85062C16.4723 4.85062 16.6167 4.63051 16.6167 4.23525V4.23052ZM17.6013 2.62347C17.5994 2.55178 17.6189 2.48115 17.6572 2.42054C17.6956 2.35993 17.751 2.31206 17.8166 2.28301C17.8821 2.25395 17.9548 2.24502 18.0255 2.25734C18.0961 2.26966 18.1615 2.30268 18.2134 2.35221C18.2653 2.40174 18.3013 2.46555 18.3168 2.53556C18.3324 2.60557 18.3268 2.67861 18.3007 2.74545C18.2747 2.81227 18.2294 2.86987 18.1707 2.91094C18.1119 2.952 18.0422 2.9747 17.9705 2.97612C17.923 2.97939 17.8753 2.97278 17.8305 2.95674C17.7856 2.94069 17.7445 2.91555 17.7099 2.88287C17.6752 2.85021 17.6476 2.8107 17.629 2.76687C17.6103 2.72306 17.6008 2.67584 17.6013 2.6282V2.62347ZM17.6013 3.14416H18.3113V5.31688H17.6013V3.14416ZM20.8888 4.23052C20.8888 4.94056 20.574 5.34528 20.0344 5.34528C19.896 5.35415 19.7582 5.32033 19.6397 5.24838C19.5212 5.17641 19.4276 5.06978 19.3717 4.94292H19.3575V6.01271H18.6474V3.13943H19.3575V3.52758H19.3717C19.425 3.39862 19.5168 3.28922 19.6345 3.21427C19.7522 3.13931 19.8902 3.10243 20.0296 3.10866C20.574 3.11813 20.8982 3.52521 20.8982 4.23525L20.8888 4.23052ZM20.1787 4.23052C20.1787 3.88497 20.0202 3.66486 19.7716 3.66486C19.5231 3.66486 19.3646 3.88733 19.3622 4.23052C19.3598 4.5737 19.5231 4.79382 19.7716 4.79382C20.0202 4.79382 20.1787 4.57844 20.1787 4.23525V4.23052ZM22.1077 3.09446C22.697 3.09446 23.0544 3.37374 23.071 3.82106H22.4248C22.4248 3.66722 22.297 3.57018 22.1006 3.57018C21.9041 3.57018 21.8166 3.64592 21.8166 3.75716C21.8166 3.8684 21.8947 3.9039 22.0532 3.93704L22.5077 4.02934C22.9408 4.12165 23.1254 4.29679 23.1254 4.62577C23.1254 5.07546 22.7159 5.36421 22.1124 5.36421C21.5089 5.36421 21.1136 5.07546 21.0829 4.63287H21.7669C21.7882 4.79382 21.916 4.88849 22.1242 4.88849C22.3325 4.88849 22.4272 4.81985 22.4272 4.70624C22.4272 4.59264 22.3609 4.56897 22.1905 4.53347L21.7811 4.4459C21.3574 4.35833 21.1349 4.13348 21.1349 3.80213C21.1397 3.37611 21.5207 3.09919 22.1077 3.09919V3.09446ZM25.4946 5.31214H24.8105V4.90742H24.7963C24.7587 5.0433 24.6759 5.16223 24.5613 5.24448C24.4468 5.3267 24.3076 5.36729 24.1668 5.35948C24.0589 5.36561 23.951 5.34852 23.8503 5.30935C23.7496 5.27018 23.6584 5.20987 23.5831 5.13246C23.5077 5.05506 23.4498 4.96235 23.4133 4.86065C23.3768 4.75895 23.3626 4.6506 23.3715 4.54294V3.13943H24.0816V4.37963C24.0816 4.63761 24.2141 4.77488 24.4342 4.77488C24.4858 4.77498 24.5369 4.76406 24.584 4.74283C24.6309 4.7216 24.673 4.69055 24.7071 4.65178C24.741 4.61299 24.7665 4.56738 24.7814 4.51801C24.7963 4.46862 24.8008 4.4166 24.794 4.36543V3.13943H25.504L25.4946 5.31214ZM25.8377 3.13943H26.5241V3.55835H26.5383C26.5759 3.42427 26.6571 3.30645 26.7688 3.22338C26.8805 3.1403 27.0169 3.09661 27.156 3.09919C27.2978 3.08786 27.4384 3.13024 27.5503 3.21796C27.6621 3.30567 27.7369 3.43225 27.7596 3.57255H27.7738C27.8166 3.43076 27.9056 3.3073 28.0265 3.2216C28.1473 3.1359 28.2933 3.09283 28.4412 3.09919C28.5378 3.09595 28.6339 3.11306 28.7233 3.14942C28.813 3.18575 28.8937 3.24054 28.9607 3.31017C29.0277 3.37982 29.0793 3.46278 29.1122 3.55364C29.1449 3.6445 29.1583 3.74128 29.1512 3.83763V5.31688H28.4412V4.02698C28.4412 3.7903 28.3347 3.68142 28.1359 3.68142C28.0916 3.68104 28.0476 3.69018 28.0071 3.70822C27.9667 3.72625 27.9305 3.75276 27.9011 3.78596C27.8718 3.81917 27.8497 3.85827 27.8367 3.90066C27.8237 3.94307 27.8202 3.98776 27.8258 4.03171V5.31688H27.1513V4.01751C27.1513 3.79976 27.0448 3.68142 26.8507 3.68142C26.806 3.68145 26.7615 3.69096 26.7208 3.70935C26.6798 3.72777 26.6432 3.75463 26.6136 3.78817C26.5837 3.8217 26.5615 3.86118 26.548 3.904C26.5348 3.94679 26.5305 3.99192 26.5359 4.03644V5.31688H25.8259L25.8377 3.13943Z" fill="#D1D1D1"/>
<path d="M7.19703 2.5754C7.07658 2.29999 6.91718 2.04333 6.72367 1.81329C6.43764 1.46309 6.08068 1.17743 5.67629 0.975118C5.2719 0.77281 4.82924 0.658434 4.37747 0.639521C3.92569 0.620608 3.47503 0.697586 3.05514 0.865391C2.63526 1.03319 2.25568 1.28802 1.94138 1.61309C1.62707 1.93817 1.38517 2.32612 1.2316 2.75142C1.07803 3.17671 1.01627 3.62971 1.05039 4.08059C1.0845 4.53148 1.21372 4.97003 1.42953 5.36736C1.64535 5.76473 1.94286 6.11186 2.3025 6.38594C2.53327 6.56532 2.78825 6.71113 3.05987 6.81906C3.44069 6.97513 3.84828 7.0555 4.25984 7.05574C5.10937 7.05387 5.9235 6.71523 6.52379 6.11406C7.12406 5.5129 7.46149 4.69827 7.46211 3.84874C7.46272 3.41052 7.37248 2.97695 7.19703 2.5754ZM4.25747 1.29023C4.62707 1.29019 4.99219 1.37097 5.32726 1.52691C5.24556 1.56222 5.15965 1.58688 5.07165 1.60028C4.78209 1.6422 4.51387 1.77663 4.30698 1.98351C4.1001 2.19039 3.96567 2.45862 3.92375 2.74818C3.90536 2.91056 3.8315 3.06164 3.71465 3.1759C3.5978 3.29017 3.44512 3.36061 3.28235 3.37538C2.9928 3.41729 2.72456 3.55173 2.51768 3.75861C2.31081 3.96549 2.17637 4.23372 2.13446 4.52327C2.12027 4.67768 2.05439 4.82279 1.94748 4.93509C1.76303 4.54535 1.68017 4.11526 1.70661 3.68488C1.73305 3.25451 1.86794 2.83781 2.09872 2.47356C2.32949 2.10933 2.64866 1.80939 3.02653 1.60167C3.40438 1.39394 3.82866 1.28518 4.25984 1.2855L4.25747 1.29023ZM2.30014 5.50549C2.32854 5.47946 2.35694 5.45579 2.38534 5.42739C2.5959 5.22325 2.73106 4.95377 2.76876 4.66291C2.78405 4.49941 2.85704 4.34671 2.97467 4.23216C3.08787 4.11434 3.24022 4.04194 3.40306 4.02861C3.69261 3.9867 3.96084 3.85226 4.16772 3.64538C4.3746 3.4385 4.50904 3.17027 4.55095 2.88072C4.5612 2.70972 4.63457 2.54861 4.75686 2.42866C4.87286 2.31313 5.02666 2.24336 5.18999 2.23221C5.45599 2.19562 5.70408 2.07736 5.90003 1.89377C6.12314 2.07886 6.31215 2.30154 6.45859 2.55173C6.44959 2.56388 6.43928 2.575 6.42782 2.58487C6.31485 2.70373 6.16269 2.77771 5.99943 2.79315C5.70957 2.83433 5.44094 2.96853 5.23392 3.17553C5.02692 3.38255 4.89272 3.65118 4.85154 3.94104C4.83485 4.10397 4.76236 4.25613 4.64634 4.37173C4.53029 4.48734 4.37787 4.55927 4.21487 4.57534C3.92446 4.61693 3.65524 4.7511 3.44715 4.95789C3.23909 5.1647 3.10326 5.43309 3.05987 5.72324C3.04714 5.8389 3.0074 5.94997 2.9439 6.04749C2.70107 5.9033 2.48358 5.72021 2.30014 5.50549ZM4.25747 6.41907C4.01731 6.41933 3.77829 6.38587 3.54743 6.31967C3.62641 6.17245 3.67775 6.01201 3.69891 5.84631C3.7155 5.68373 3.78766 5.53186 3.90321 5.41631C4.01876 5.30076 4.17063 5.2286 4.33321 5.21201C4.62319 5.17057 4.89196 5.03635 5.09932 4.82942C5.30665 4.62251 5.44144 4.354 5.48347 4.06411C5.50006 3.90154 5.57222 3.74966 5.68777 3.63411C5.80332 3.51857 5.95519 3.4464 6.11777 3.42981C6.33599 3.40144 6.54398 3.32018 6.72367 3.19313C6.82345 3.57132 6.83526 3.96734 6.75822 4.3508C6.68118 4.73427 6.51731 5.09502 6.27921 5.40533C6.04111 5.71561 5.73511 5.96728 5.38463 6.14095C5.03418 6.31463 4.64861 6.40572 4.25747 6.40724V6.41907Z" fill="#D1D1D1"/>
</g>
<defs>
<clipPath id="clip0_147_4573">
<rect width="29.3482" height="7.57374" fill="white" transform="translate(0.456543 0.0625)"/>
</clipPath>
</defs>
</svg>
