<svg width="31" height="9" viewBox="0 0 31 9" fill="none" xmlns="http://www.w3.org/2000/svg">
<path d="M4.31178 2.2609V1.33008H1.37695V7.72537H4.31178V6.79454C3.71058 6.79454 3.13399 6.55571 2.70889 6.1306C2.28378 5.70548 2.04495 5.12892 2.04495 4.52772C2.04495 3.92652 2.28378 3.34994 2.70889 2.92484C3.13399 2.49973 3.71058 2.2609 4.31178 2.2609Z" fill="#D1D1D1"/>
<path d="M4.31177 2.26172V6.79536C4.91297 6.79536 5.48955 6.55653 5.91466 6.13142C6.33977 5.7063 6.57859 5.12974 6.57859 4.52854C6.57859 3.92734 6.33977 3.35076 5.91466 2.92566C5.48955 2.50055 4.91297 2.26172 4.31177 2.26172Z" fill="#D1D1D1"/>
<path d="M8.22559 2.83008H8.88264V5.99487H8.22559V2.83008Z" fill="#D1D1D1"/>
<path d="M9.25059 4.91153C9.25059 4.68384 9.3182 4.46128 9.44484 4.27205C9.57147 4.08282 9.75144 3.93544 9.96194 3.8486C10.1724 3.76178 10.404 3.7394 10.6272 3.7843C10.8504 3.8292 11.0553 3.93936 11.2158 4.10082C11.3763 4.2623 11.4853 4.46778 11.529 4.69127C11.5726 4.91475 11.5489 5.14614 11.4608 5.35614C11.3728 5.56611 11.2244 5.74524 11.0345 5.87078C10.8445 5.99634 10.6215 6.06266 10.3939 6.06137C10.2428 6.06255 10.0931 6.03358 9.95344 5.97611C9.81377 5.91866 9.68696 5.8339 9.58047 5.72682C9.47399 5.61972 9.38997 5.49243 9.33331 5.35243C9.27668 5.21244 9.24855 5.06254 9.25059 4.91153ZM10.8976 4.91153C10.895 4.81337 10.8635 4.71814 10.8071 4.63778C10.7507 4.5574 10.6719 4.49544 10.5804 4.45966C10.489 4.42387 10.389 4.41583 10.293 4.43657C10.197 4.45729 10.1093 4.50585 10.0408 4.5762C9.97223 4.64652 9.92595 4.73549 9.90773 4.83198C9.88951 4.92848 9.90013 5.0282 9.93828 5.11868C9.97643 5.20915 10.0404 5.2864 10.1222 5.34069C10.204 5.39501 10.3 5.42399 10.3982 5.42403C10.4651 5.42534 10.5315 5.41284 10.5933 5.3873C10.6551 5.36179 10.711 5.32379 10.7574 5.27569C10.8039 5.22759 10.8399 5.17041 10.8633 5.10777C10.8867 5.04511 10.8969 4.97831 10.8932 4.91153H10.8976Z" fill="#D1D1D1"/>
<path d="M14.1366 3.82639V5.88734C14.1366 6.61447 13.5672 6.92328 12.9912 6.92328C12.788 6.93995 12.5842 6.89959 12.4027 6.80672C12.2213 6.71386 12.0693 6.57218 11.964 6.39764L12.5181 6.07788C12.563 6.16842 12.6344 6.24311 12.7229 6.29201C12.8113 6.34092 12.9125 6.36173 13.0131 6.35165C13.0771 6.35954 13.1421 6.35318 13.2034 6.33303C13.2648 6.31286 13.3209 6.27942 13.3677 6.23505C13.4146 6.19067 13.4511 6.13651 13.4746 6.07639C13.4981 6.01629 13.508 5.95173 13.5037 5.88734V5.68803C13.4272 5.78074 13.3302 5.85433 13.2203 5.903C13.1105 5.95166 12.9908 5.97404 12.8707 5.96837C12.5803 5.96837 12.3018 5.85299 12.0964 5.64762C11.891 5.44227 11.7756 5.16373 11.7756 4.87329C11.7756 4.58285 11.891 4.30433 12.0964 4.09896C12.3018 3.89358 12.5803 3.77821 12.8707 3.77821C12.9908 3.77253 13.1105 3.79492 13.2203 3.84358C13.3302 3.89225 13.4272 3.96584 13.5037 4.05855V3.83953L14.1366 3.82639ZM13.5037 4.86672C13.508 4.76194 13.481 4.65824 13.4259 4.56897C13.3709 4.47969 13.2904 4.40893 13.1948 4.36576C13.0992 4.32259 12.993 4.30901 12.8896 4.32675C12.7862 4.3445 12.6905 4.39274 12.6148 4.4653C12.5391 4.53786 12.4868 4.63143 12.4647 4.73395C12.4426 4.83647 12.4516 4.94324 12.4907 5.04057C12.5297 5.1379 12.597 5.22133 12.6839 5.28011C12.7707 5.3389 12.8732 5.37037 12.978 5.37046C13.0465 5.37538 13.1152 5.3659 13.1797 5.34264C13.2443 5.31936 13.3032 5.28281 13.3527 5.23532C13.4023 5.18786 13.4413 5.13052 13.4673 5.06703C13.4933 5.00354 13.5057 4.93529 13.5037 4.86672Z" fill="#D1D1D1"/>
<path d="M14.5072 4.91156C14.5072 4.68405 14.5747 4.46166 14.7011 4.27251C14.8275 4.08337 15.0072 3.93599 15.2175 3.84904C15.4277 3.76207 15.659 3.73943 15.8821 3.78397C16.1052 3.82852 16.3101 3.93825 16.4708 4.09927C16.6316 4.26031 16.7409 4.4654 16.785 4.68858C16.8291 4.91178 16.806 5.14304 16.7187 5.3531C16.6313 5.56318 16.4836 5.7426 16.2942 5.86868C16.1048 5.99477 15.8823 6.06184 15.6548 6.0614C15.5035 6.06286 15.3534 6.03411 15.2134 5.97681C15.0733 5.91952 14.9461 5.83485 14.8393 5.72775C14.7323 5.62065 14.6479 5.49329 14.5909 5.35314C14.5339 5.21299 14.5054 5.06286 14.5072 4.91156ZM16.1542 4.91156C16.1516 4.81331 16.12 4.71799 16.0635 4.63757C16.007 4.55717 15.928 4.49521 15.8365 4.45949C15.7449 4.42377 15.6448 4.41586 15.5488 4.43678C15.4527 4.45767 15.365 4.50647 15.2966 4.57701C15.2281 4.64756 15.182 4.73674 15.1641 4.83337C15.1461 4.93 15.157 5.02979 15.1955 5.12022C15.234 5.21067 15.2983 5.28774 15.3804 5.3418C15.4625 5.39583 15.5587 5.42445 15.657 5.42406C15.7239 5.42537 15.7903 5.41287 15.8521 5.38733C15.9139 5.36181 15.9697 5.32382 16.0162 5.27572C16.0627 5.22762 16.0987 5.17044 16.1221 5.1078C16.1454 5.04514 16.1556 4.97834 16.152 4.91156H16.1542Z" fill="#D1D1D1"/>
<path d="M17.1067 3.24727C17.1067 3.17018 17.1296 3.09479 17.1724 3.03069C17.2152 2.96657 17.2761 2.91661 17.3473 2.8871C17.4186 2.85759 17.497 2.84987 17.5726 2.86491C17.6482 2.87995 17.7177 2.91708 17.7722 2.97161C17.8267 3.02613 17.8639 3.0956 17.8789 3.17121C17.8939 3.24683 17.8862 3.32522 17.8567 3.39647C17.8272 3.46769 17.7772 3.52858 17.7131 3.57142C17.649 3.61426 17.5737 3.63712 17.4965 3.63712C17.3935 3.63598 17.295 3.59454 17.2221 3.52168C17.1493 3.44881 17.1078 3.35032 17.1067 3.24727ZM17.1702 3.82767H17.8273V5.99593H17.1702V3.82767Z" fill="#D1D1D1"/>
<path d="M20.6396 4.91089C20.6469 5.05509 20.6257 5.19933 20.5771 5.3353C20.5285 5.47126 20.4535 5.59628 20.3564 5.70314C20.2593 5.81002 20.1421 5.89662 20.0113 5.95798C19.8807 6.01935 19.7391 6.05426 19.5949 6.06072C19.4725 6.06887 19.3498 6.04927 19.236 6.00339C19.1222 5.95748 19.0203 5.8865 18.9378 5.79572V6.86671H18.2808V3.82676H18.9378V4.03044C19.0204 3.93992 19.1224 3.86927 19.2362 3.82375C19.35 3.77822 19.4726 3.75904 19.5949 3.76762C19.7385 3.77408 19.8795 3.8088 20.0098 3.86975C20.14 3.9307 20.257 4.01673 20.354 4.12289C20.451 4.22905 20.5262 4.35327 20.5752 4.48849C20.6242 4.62369 20.6461 4.76721 20.6396 4.91089ZM19.9825 4.91089C19.9799 4.80915 19.9474 4.71047 19.8889 4.62717C19.8305 4.54388 19.7488 4.47967 19.654 4.44263C19.5592 4.40557 19.4556 4.39734 19.3562 4.41891C19.2567 4.44048 19.1659 4.49095 19.095 4.56394C19.0241 4.63694 18.9763 4.72924 18.9577 4.82928C18.939 4.92931 18.9503 5.03262 18.9901 5.12627C19.03 5.2199 19.0965 5.29971 19.1815 5.35569C19.2665 5.41167 19.3661 5.4413 19.4678 5.44091C19.5375 5.44386 19.6071 5.43206 19.6719 5.40626C19.7367 5.38046 19.7953 5.34126 19.8439 5.29121C19.8925 5.24116 19.93 5.1814 19.9539 5.11587C19.9778 5.05031 19.9875 4.98047 19.9825 4.91089Z" fill="#D1D1D1"/>
<path d="M22.6391 5.34545C22.6391 5.84481 22.201 6.05725 21.7367 6.05725C21.5473 6.07429 21.3572 6.03415 21.1909 5.94201C21.0246 5.84987 20.8897 5.70996 20.8037 5.54038L21.3688 5.22061C21.3912 5.29876 21.4397 5.36685 21.5063 5.4135C21.5729 5.46015 21.6534 5.48251 21.7345 5.47686C21.89 5.47686 21.9689 5.42868 21.9689 5.34107C21.9689 5.10234 20.9023 5.22937 20.9023 4.47815C20.9023 4.00507 21.3009 3.76853 21.7521 3.76853C21.9235 3.76084 22.0939 3.79976 22.2451 3.88113C22.3962 3.96249 22.5226 4.08328 22.6106 4.23066L22.0455 4.52852C22.0206 4.47201 21.9798 4.42396 21.9281 4.39014C21.8764 4.35633 21.816 4.33822 21.7542 4.33797C21.6404 4.33797 21.5725 4.38178 21.5725 4.45843C21.5725 4.70811 22.6391 4.54385 22.6391 5.34545Z" fill="#D1D1D1"/>
<path d="M25.0198 3.82812V5.99639H24.3628V5.7927C24.2881 5.88287 24.1933 5.95421 24.0862 6.00101C23.9789 6.04781 23.8621 6.06873 23.7452 6.06209C23.3071 6.06209 22.9326 5.7489 22.9326 5.16413V3.82812H23.5897V5.06557C23.5844 5.1173 23.5905 5.16954 23.6076 5.21868C23.6247 5.26781 23.6521 5.31266 23.688 5.35016C23.7241 5.38763 23.7679 5.41685 23.8163 5.43579C23.8648 5.45472 23.9167 5.46291 23.9686 5.4598C24.2051 5.4598 24.3716 5.31963 24.3716 5.02177V3.82812H25.0198Z" fill="#D1D1D1"/>
<path d="M28.7431 4.66363V5.99525H28.086V4.72058C28.086 4.50156 27.9831 4.36577 27.775 4.36577C27.5669 4.36577 27.4355 4.51689 27.4355 4.77314V5.99525H26.7785V4.72058C26.7785 4.50156 26.6755 4.36577 26.4675 4.36577C26.2594 4.36577 26.128 4.51689 26.128 4.77314V5.99525H25.4709V3.82699H26.128V4.02629C26.1961 3.93825 26.2848 3.86851 26.3867 3.8234C26.4883 3.77828 26.5998 3.75918 26.7106 3.76785C26.8216 3.76205 26.9324 3.78527 27.0319 3.83518C27.1313 3.88509 27.2161 3.96002 27.2778 4.05258C27.3501 3.95586 27.4456 3.87903 27.5555 3.82924C27.6653 3.77944 27.7862 3.75833 27.9064 3.76785C28.4189 3.76785 28.7431 4.12266 28.7431 4.66363Z" fill="#D1D1D1"/>
<path d="M29.2948 3.81524C29.5609 3.81524 29.7767 3.5995 29.7767 3.3334C29.7767 3.06729 29.5609 2.85156 29.2948 2.85156C29.0287 2.85156 28.813 3.06729 28.813 3.3334C28.813 3.5995 29.0287 3.81524 29.2948 3.81524Z" fill="#D1D1D1"/>
</svg>
