<svg width="36" height="16" viewBox="0 0 36 16" fill="none" xmlns="http://www.w3.org/2000/svg">
<g filter="url(#filter0_d_147_4513)">
<path d="M10.0085 3.15234C10.0886 3.15234 10.1152 3.18125 10.1152 3.25906V5.01996H11.0201C11.098 5.01996 11.1269 5.04886 11.1269 5.12668V5.28231C11.1269 5.36013 11.098 5.38903 11.0201 5.38903H9.82843C9.75061 5.38903 9.71948 5.36013 9.71948 5.28231V3.25906C9.71948 3.18125 9.75061 3.15234 9.82843 3.15234H10.0085Z" fill="#D1D1D1"/>
<path d="M11.916 3.92811C11.916 3.41451 12.2406 3.10547 12.8054 3.10547C13.3701 3.10547 13.6947 3.41451 13.6947 3.92811V4.6129C13.6947 5.12649 13.3679 5.43554 12.8054 5.43554C12.2428 5.43554 11.916 5.12649 11.916 4.6129V3.92811ZM13.3212 3.92811C13.3212 3.63907 13.1411 3.48344 12.8165 3.48344C12.4919 3.48344 12.314 3.6413 12.314 3.92811V4.61735C12.314 4.90861 12.4919 5.06202 12.8165 5.06202C13.1411 5.06202 13.3212 4.90194 13.3212 4.61735V3.92811Z" fill="#D1D1D1"/>
<path d="M16.3428 4.16486C16.4295 4.16486 16.4495 4.19377 16.4495 4.27159V4.69402C16.4518 4.79352 16.4319 4.8923 16.3911 4.98308C16.3503 5.07388 16.2898 5.15439 16.2138 5.21873C16.0252 5.36892 15.7874 5.44342 15.5468 5.42773C14.971 5.42773 14.6575 5.11868 14.6575 4.60509V3.91585C14.6575 3.40893 14.9821 3.09766 15.5468 3.09766C15.9915 3.09766 16.2805 3.2733 16.4028 3.62459C16.4096 3.6378 16.4133 3.6524 16.4135 3.66726C16.4137 3.68213 16.4104 3.69685 16.404 3.71021C16.3975 3.7236 16.388 3.73529 16.3762 3.74436C16.3644 3.75341 16.3507 3.75961 16.3361 3.76244L16.1627 3.82247C16.0871 3.84915 16.056 3.83359 16.0293 3.75577C15.9924 3.66081 15.925 3.58081 15.8376 3.52847C15.7502 3.47614 15.6479 3.45439 15.5468 3.46673C15.22 3.46673 15.0421 3.62459 15.0421 3.9114V4.61843C15.0421 4.90969 15.2222 5.0631 15.5468 5.0631C15.8714 5.0631 16.0715 4.91413 16.0715 4.69625V4.53172H15.5891C15.509 4.53172 15.4801 4.50059 15.4801 4.42277V4.27159C15.4801 4.19377 15.509 4.16486 15.5891 4.16486H16.3428Z" fill="#D1D1D1"/>
<path d="M17.3679 3.92811C17.3679 3.41451 17.6925 3.10547 18.2573 3.10547C18.822 3.10547 19.1466 3.41451 19.1466 3.92811V4.6129C19.1466 5.12649 18.8198 5.43554 18.2573 5.43554C17.6948 5.43554 17.3679 5.12649 17.3679 4.6129V3.92811ZM18.7709 3.92811C18.7709 3.63907 18.5908 3.48344 18.2684 3.48344C17.946 3.48344 17.7637 3.6413 17.7637 3.92811V4.61735C17.7637 4.90861 17.9438 5.06202 18.2684 5.06202C18.593 5.06202 18.7709 4.90194 18.7709 4.61735V3.92811Z" fill="#D1D1D1"/>
<path d="M20.1936 3.21682C20.1936 3.16791 20.2092 3.15234 20.2581 3.15234H20.3604C20.4093 3.15234 20.4204 3.16791 20.4204 3.21682V5.32456C20.4204 5.37347 20.4204 5.38903 20.3604 5.38903H20.2581C20.2092 5.38903 20.1936 5.37347 20.1936 5.32456V3.21682Z" fill="#D1D1D1"/>
<path d="M22.4458 3.15234C22.6309 3.15234 22.8085 3.22589 22.9394 3.35683C23.0704 3.48774 23.1439 3.66532 23.1439 3.85048C23.1439 4.03564 23.0704 4.21322 22.9394 4.34413C22.8085 4.47506 22.6309 4.54861 22.4458 4.54861H21.7788V5.32456C21.7788 5.37347 21.7677 5.38903 21.721 5.38903H21.6165C21.5698 5.38903 21.552 5.37347 21.552 5.32456V3.21682C21.552 3.16791 21.5698 3.15234 21.6165 3.15234H22.4458ZM22.4258 4.3285C22.4894 4.3285 22.5525 4.31596 22.6113 4.29161C22.6701 4.26724 22.7235 4.23154 22.7685 4.18654C22.8135 4.14153 22.8492 4.08809 22.8736 4.0293C22.8979 3.97049 22.9105 3.90746 22.9105 3.84381C22.9105 3.78015 22.8979 3.71712 22.8736 3.65831C22.8492 3.59953 22.8135 3.54608 22.7685 3.50108C22.7235 3.45608 22.6701 3.42037 22.6113 3.396C22.5525 3.37165 22.4894 3.35912 22.4258 3.35912H21.7588V4.3285H22.4258Z" fill="#D1D1D1"/>
<path d="M24.8804 3.10836C25.0521 3.08942 25.2253 3.12635 25.3743 3.21366C25.5232 3.30099 25.6402 3.43404 25.7075 3.59305C25.7253 3.62862 25.7075 3.65753 25.6719 3.67531L25.5741 3.71978C25.5341 3.73534 25.5185 3.73312 25.4941 3.69088C25.4437 3.57286 25.3571 3.47392 25.2468 3.40838C25.1365 3.34283 25.0082 3.31406 24.8804 3.32625C24.5047 3.32625 24.3001 3.47521 24.3001 3.74201C24.298 3.82354 24.3253 3.90314 24.3772 3.96606C24.4291 4.02898 24.502 4.07103 24.5825 4.08441C24.7021 4.12341 24.8261 4.14731 24.9516 4.15556C25.1035 4.16365 25.2534 4.19438 25.3963 4.24671C25.5059 4.28138 25.6001 4.35266 25.6633 4.44862C25.7264 4.54458 25.7547 4.65935 25.7431 4.77365C25.7431 5.18942 25.4407 5.44065 24.8849 5.44065C24.7026 5.46151 24.5186 5.41927 24.3637 5.32095C24.2087 5.22265 24.0921 5.0742 24.0333 4.90038C24.0294 4.89247 24.0273 4.88377 24.0271 4.87492C24.0269 4.86607 24.0287 4.85731 24.0323 4.84924C24.0359 4.84117 24.0413 4.83399 24.048 4.82823C24.0547 4.82245 24.0626 4.81825 24.0711 4.81589L24.169 4.78032C24.1767 4.77716 24.1849 4.77565 24.1933 4.77587C24.2016 4.77609 24.2098 4.77805 24.2173 4.78161C24.2248 4.78517 24.2315 4.79024 24.237 4.79653C24.2424 4.80282 24.2465 4.81016 24.249 4.81812C24.2987 4.94371 24.3872 5.05021 24.5015 5.12218C24.6158 5.19413 24.7501 5.22781 24.8849 5.21832C25.3051 5.21832 25.5119 5.07158 25.5119 4.77365C25.5159 4.69534 25.4919 4.61817 25.4441 4.55587C25.3965 4.4936 25.3283 4.45022 25.2517 4.43348C25.1367 4.39917 25.0181 4.37827 24.8982 4.37122L24.6581 4.3401C24.583 4.32415 24.5087 4.3041 24.4358 4.28007C24.3637 4.2583 24.2965 4.22281 24.2379 4.17557C24.1789 4.12216 24.1324 4.05644 24.1017 3.98305C24.0709 3.90966 24.0567 3.83041 24.06 3.75091C24.0756 3.36182 24.3668 3.10836 24.8804 3.10836Z" fill="#D1D1D1"/>
<path d="M26.9414 4.62865C26.9507 4.78588 27.0199 4.93358 27.1346 5.04157C27.2493 5.14956 27.401 5.20968 27.5584 5.20968C27.7158 5.20968 27.8674 5.14956 27.9822 5.04157C28.0969 4.93358 28.1658 4.78588 28.1754 4.62865V3.21682C28.1754 3.16791 28.1909 3.15234 28.2398 3.15234H28.3421C28.391 3.15234 28.4066 3.16791 28.4066 3.21682V4.62643C28.4066 5.13113 28.1087 5.43572 27.5595 5.43572C27.0103 5.43572 26.7124 5.13113 26.7124 4.62643V3.21682C26.7124 3.16791 26.728 3.15234 26.7747 3.15234H26.8792C26.9258 3.15234 26.9414 3.16791 26.9414 3.21682V4.62865Z" fill="#D1D1D1"/>
<path d="M31.4749 3.15272C31.5239 3.15272 31.5394 3.16829 31.5394 3.2172V5.32494C31.5394 5.37385 31.5239 5.38941 31.4749 5.38941H31.3816C31.3349 5.38941 31.3193 5.37385 31.3193 5.32494V4.04206C31.3193 3.85541 31.332 3.66896 31.3571 3.484H31.3438C31.2744 3.65313 31.1932 3.8173 31.1014 3.97536L30.6234 4.81801C30.6176 4.83264 30.6074 4.84514 30.5943 4.85388C30.5812 4.86259 30.5658 4.86715 30.55 4.86693H30.4878C30.4718 4.86702 30.4562 4.86241 30.4426 4.85374C30.4293 4.84505 30.4186 4.83264 30.4122 4.81801L29.9275 3.96647C29.8414 3.81068 29.7672 3.64866 29.7052 3.48178H29.6918C29.7145 3.66843 29.7265 3.85626 29.7274 4.04429V5.32494C29.7274 5.37385 29.7118 5.38941 29.6629 5.38941H29.5762C29.5273 5.38941 29.5117 5.37385 29.5117 5.32494V3.2172C29.5117 3.16829 29.5273 3.15272 29.5762 3.15272H29.6562C29.6745 3.15103 29.6929 3.15501 29.7087 3.16417C29.7247 3.17333 29.7374 3.18721 29.7452 3.20386L30.5233 4.58678L31.2971 3.2172C31.3215 3.17051 31.3349 3.16384 31.3838 3.16384L31.4749 3.15272Z" fill="#D1D1D1"/>
<path d="M6.05329 5.053V6.66048C6.05329 6.72211 6.02881 6.78121 5.98523 6.82476C5.94168 6.86834 5.88258 6.89282 5.82095 6.89282C5.75934 6.89282 5.70024 6.86834 5.65667 6.82476C5.61309 6.78121 5.58861 6.72211 5.58861 6.66048V5.05522C5.65331 5.10247 5.73086 5.12884 5.81094 5.13081C5.89823 5.1333 5.98377 5.10585 6.05329 5.053ZM8.03207 4.58832C7.97311 4.58832 7.91655 4.61175 7.87486 4.65344C7.83317 4.69513 7.80974 4.75169 7.80974 4.81065V5.09079C7.80974 5.15243 7.83422 5.21152 7.87779 5.25508C7.92135 5.29866 7.98045 5.32313 8.04208 5.32313C8.10371 5.32313 8.1628 5.29866 8.20636 5.25508C8.24994 5.21152 8.27442 5.15243 8.27442 5.09079V4.82177C8.27615 4.78989 8.27099 4.758 8.2593 4.7283C8.2476 4.69859 8.22966 4.67174 8.20665 4.64959C8.18366 4.62745 8.15616 4.61051 8.12605 4.59992C8.09593 4.58936 8.06387 4.5854 8.03207 4.58832ZM5.08391 5.6622C5.00391 5.65979 4.92646 5.63347 4.86157 5.5866V7.19853C4.86157 7.26045 4.88617 7.31984 4.92995 7.36361C4.97373 7.40739 5.03311 7.43198 5.09503 7.43198C5.15694 7.43198 5.21632 7.40739 5.2601 7.36361C5.30388 7.31984 5.32848 7.26045 5.32848 7.19853V5.59772C5.25587 5.64465 5.17021 5.66724 5.08391 5.6622ZM7.30726 4.10585C7.27713 4.10434 7.24703 4.10898 7.21875 4.11948C7.19049 4.12997 7.16465 4.14611 7.1428 4.1669C7.12097 4.18771 7.1036 4.21273 7.09173 4.24045C7.07988 4.26818 7.07376 4.29804 7.07381 4.32819V5.56659C7.07381 5.62851 7.0984 5.6879 7.14218 5.73168C7.18598 5.77545 7.24534 5.80004 7.30726 5.80004C7.36918 5.80004 7.42857 5.77545 7.47234 5.73168C7.51612 5.6879 7.54071 5.62851 7.54071 5.56659V4.34375C7.54249 4.31167 7.53729 4.27958 7.52546 4.2497C7.51363 4.21982 7.49549 4.19285 7.47223 4.17066C7.44898 4.14847 7.42121 4.13157 7.39081 4.12117C7.36042 4.11074 7.32811 4.10703 7.29614 4.1103L7.30726 4.10585ZM6.56911 4.58165C6.48535 4.58107 6.40385 4.55468 6.33566 4.50605V6.12243C6.33566 6.18435 6.36025 6.24373 6.40402 6.28751C6.44782 6.33129 6.50719 6.35588 6.56911 6.35588C6.63103 6.35588 6.69039 6.33129 6.73419 6.28751C6.77797 6.24373 6.80256 6.18435 6.80256 6.12243V4.50828C6.73203 4.56081 6.64592 4.58821 6.55799 4.58609L6.56911 4.58165ZM4.57921 5.82005V1.30443C4.57862 1.24938 4.55635 1.1968 4.51721 1.15808C4.47808 1.11937 4.42526 1.09765 4.37021 1.09766H4.3213C4.26625 1.09765 4.21343 1.11937 4.1743 1.15808C4.13517 1.1968 4.11289 1.24938 4.1123 1.30443V5.82005C4.1123 5.87548 4.13432 5.92864 4.17352 5.96784C4.21271 6.00704 4.26587 6.02905 4.3213 6.02905H4.37021C4.42564 6.02905 4.4788 6.00704 4.51799 5.96784C4.55719 5.92864 4.57921 5.87548 4.57921 5.82005ZM5.10837 5.491H5.05945C5.00402 5.491 4.95086 5.46899 4.91167 5.42979C4.87248 5.39059 4.85046 5.33743 4.85046 5.282V1.84248C4.85104 1.78744 4.87332 1.73485 4.91245 1.69613C4.95158 1.65742 5.00441 1.6357 5.05945 1.63571H5.10837C5.16341 1.6357 5.21624 1.65742 5.25537 1.69613C5.2945 1.73485 5.31678 1.78744 5.31736 1.84248V5.28645C5.31736 5.34188 5.29534 5.39504 5.25615 5.43424C5.21695 5.47343 5.16379 5.49544 5.10837 5.49544V5.491ZM5.84429 4.96184H5.79316C5.73833 4.96184 5.68573 4.94005 5.64695 4.90128C5.60817 4.8625 5.58639 4.80992 5.58639 4.75507V2.37608C5.5861 2.34874 5.59123 2.32162 5.60148 2.29627C5.61173 2.27093 5.62692 2.24787 5.64615 2.22843C5.66538 2.209 5.68828 2.19357 5.71352 2.18304C5.73875 2.17251 5.76581 2.16709 5.79316 2.16709H5.84429C5.89934 2.16767 5.95193 2.18995 5.99064 2.22908C6.02937 2.26821 6.05107 2.32104 6.05107 2.37608V4.75507C6.05107 4.80992 6.02928 4.8625 5.9905 4.90128C5.95173 4.94005 5.89914 4.96184 5.84429 4.96184ZM6.58022 4.41712H6.53353C6.47848 4.41712 6.42566 4.39542 6.38653 4.35669C6.34739 4.31798 6.32512 4.2654 6.32454 4.21035V2.9297C6.32272 2.90115 6.32676 2.87253 6.33646 2.84561C6.34613 2.81871 6.36125 2.79405 6.38083 2.77322C6.40042 2.75236 6.42408 2.73578 6.45036 2.72444C6.47662 2.71312 6.50492 2.7073 6.53353 2.70736H6.58245C6.63788 2.70736 6.69104 2.72937 6.73023 2.76857C6.76943 2.80777 6.79144 2.86093 6.79144 2.91636V4.2059C6.79173 4.23354 6.78655 4.26095 6.77617 4.28656C6.76581 4.31218 6.75047 4.33548 6.73101 4.35513C6.71158 4.37476 6.68846 4.39035 6.66293 4.401C6.63743 4.41165 6.61008 4.41712 6.58245 4.41712H6.58022ZM7.31838 3.9391H7.26946C7.21403 3.9391 7.16087 3.91709 7.12168 3.87789C7.08248 3.83869 7.06047 3.78553 7.06047 3.7301V3.39882C7.06105 3.34377 7.08332 3.29119 7.12245 3.25248C7.16159 3.21375 7.21441 3.19205 7.26946 3.19205H7.31838C7.37343 3.19205 7.42625 3.21375 7.46538 3.25248C7.50451 3.29119 7.52679 3.34377 7.52737 3.39882V3.7301C7.52737 3.78515 7.50567 3.83798 7.46694 3.87711C7.42823 3.91624 7.37565 3.93852 7.3206 3.9391H7.31838Z" fill="#D1D1D1"/>
</g>
<defs>
<filter id="filter0_d_147_4513" x="-0.777344" y="0.429688" width="37.3482" height="15.7812" filterUnits="userSpaceOnUse" color-interpolation-filters="sRGB">
<feFlood flood-opacity="0" result="BackgroundImageFix"/>
<feColorMatrix in="SourceAlpha" type="matrix" values="0 0 0 0 0 0 0 0 0 0 0 0 0 0 0 0 0 0 127 0" result="hardAlpha"/>
<feOffset dy="4"/>
<feGaussianBlur stdDeviation="2"/>
<feComposite in2="hardAlpha" operator="out"/>
<feColorMatrix type="matrix" values="0 0 0 0 0 0 0 0 0 0 0 0 0 0 0 0 0 0 0.25 0"/>
<feBlend mode="normal" in2="BackgroundImageFix" result="effect1_dropShadow_147_4513"/>
<feBlend mode="normal" in="SourceGraphic" in2="effect1_dropShadow_147_4513" result="shape"/>
</filter>
</defs>
</svg>
