<svg width="30" height="9" viewBox="0 0 30 9" fill="none" xmlns="http://www.w3.org/2000/svg">
<g clip-path="url(#clip0_147_4500)">
<path d="M9.29492 5.93701H11.3705V5.31184H10.0326V2.95703H9.29492V5.93701Z" fill="#D1D1D1"/>
<path d="M12.6002 5.52157C12.3043 5.52157 12.1501 5.26317 12.1501 4.87557C12.1501 4.48796 12.3043 4.22539 12.6002 4.22539C12.8961 4.22539 13.0545 4.48796 13.0545 4.87557C13.0545 5.26317 12.8961 5.52157 12.6002 5.52157ZM12.6044 6.00504C13.2921 6.00504 13.7422 5.51741 13.7422 4.87557C13.7422 4.23373 13.2921 3.74609 12.6044 3.74609C11.9209 3.74609 11.4624 4.23373 11.4624 4.87557C11.4624 5.51741 11.9209 6.00504 12.6044 6.00504Z" fill="#D1D1D1"/>
<path d="M14.9325 6.67632C15.2493 6.67632 15.5285 6.60546 15.7161 6.43875C15.8869 6.28454 15.9995 6.05115 15.9995 5.73023V3.8047H15.3493V4.03393H15.341C15.2159 3.85472 15.0242 3.74219 14.7408 3.74219C14.2115 3.74219 13.8447 4.18397 13.8447 4.80914C13.8447 5.46349 14.2907 5.82192 14.77 5.82192C15.0284 5.82192 15.1909 5.71772 15.316 5.57602H15.3326V5.78858C15.3326 6.04698 15.2118 6.19702 14.9242 6.19702C14.6991 6.19702 14.5866 6.10116 14.5491 5.98863H13.8906C13.9573 6.43458 14.3449 6.67632 14.9325 6.67632ZM14.9284 5.31761C14.6741 5.31761 14.5074 5.10922 14.5074 4.7883C14.5074 4.46322 14.6741 4.25483 14.9284 4.25483C15.2118 4.25483 15.3618 4.49656 15.3618 4.78414C15.3618 5.08422 15.2243 5.31761 14.9284 5.31761Z" fill="#D1D1D1"/>
<path d="M17.3363 5.52157C17.0404 5.52157 16.8862 5.26317 16.8862 4.87557C16.8862 4.48796 17.0404 4.22539 17.3363 4.22539C17.6322 4.22539 17.7906 4.48796 17.7906 4.87557C17.7906 5.26317 17.6322 5.52157 17.3363 5.52157ZM17.3405 6.00504C18.0281 6.00504 18.4783 5.51741 18.4783 4.87557C18.4783 4.23373 18.0281 3.74609 17.3405 3.74609C16.6569 3.74609 16.1985 4.23373 16.1985 4.87557C16.1985 5.51741 16.6569 6.00504 17.3405 6.00504Z" fill="#D1D1D1"/>
<path d="M18.6765 5.93701H19.3559V3.80309H18.6765V5.93701ZM18.6765 3.50718H19.3559V2.95703H18.6765V3.50718Z" fill="#D1D1D1"/>
<path d="M19.6509 6.64297H20.3302V5.71772H20.3386C20.4719 5.89694 20.6678 6.0053 20.9429 6.0053C21.5014 6.0053 21.8723 5.56351 21.8723 4.87166C21.8723 4.22982 21.5264 3.74219 20.9596 3.74219C20.6678 3.74219 20.4594 3.87139 20.3136 4.06311H20.3011V3.8047H19.6509V6.64297ZM20.7678 5.48016C20.4761 5.48016 20.3094 5.24259 20.3094 4.89667C20.3094 4.55074 20.4594 4.28817 20.7553 4.28817C21.0471 4.28817 21.1846 4.5299 21.1846 4.89667C21.1846 5.25927 21.0263 5.48016 20.7678 5.48016Z" fill="#D1D1D1"/>
<path d="M22.9785 6.0053C23.5369 6.0053 23.9495 5.76357 23.9495 5.29678C23.9495 4.75079 23.5078 4.65493 23.1327 4.59242C22.8618 4.5424 22.62 4.52157 22.62 4.37152C22.62 4.23816 22.7492 4.17564 22.9159 4.17564C23.1035 4.17564 23.2327 4.23399 23.2577 4.42571H23.8829C23.8495 4.00476 23.5244 3.74219 22.9201 3.74219C22.4158 3.74219 21.999 3.97558 21.999 4.42571C21.999 4.92584 22.395 5.02587 22.7659 5.08839C23.0493 5.1384 23.3077 5.15924 23.3077 5.35096C23.3077 5.48849 23.1785 5.56351 22.9743 5.56351C22.7492 5.56351 22.6075 5.45932 22.5825 5.24676H21.9407C21.9615 5.71772 22.3533 6.0053 22.9785 6.0053Z" fill="#D1D1D1"/>
<path d="M24.8723 6.00112C25.1682 6.00112 25.3557 5.88442 25.5099 5.67603H25.5224V5.9386H26.1726V3.80469H25.4933V4.99668C25.4933 5.25091 25.3516 5.42596 25.1182 5.42596C24.9014 5.42596 24.7973 5.29676 24.7973 5.06336V3.80469H24.1221V5.20507C24.1221 5.6802 24.3805 6.00112 24.8723 6.00112Z" fill="#D1D1D1"/>
<path d="M26.468 5.93862H27.1474V4.74246C27.1474 4.48822 27.2724 4.30901 27.485 4.30901C27.6892 4.30901 27.785 4.44238 27.785 4.67161V5.93862H28.4644V4.74246C28.4644 4.48822 28.5853 4.30901 28.802 4.30901C29.0062 4.30901 29.1021 4.44238 29.1021 4.67161V5.93862H29.7814V4.55074C29.7814 4.07144 29.5397 3.74219 29.0562 3.74219C28.7811 3.74219 28.5519 3.85889 28.3852 4.11729H28.3769C28.2685 3.88806 28.0559 3.74219 27.7767 3.74219C27.4683 3.74219 27.2641 3.88806 27.1307 4.10895H27.1182V3.8047H26.468V5.93862Z" fill="#D1D1D1"/>
<path fill-rule="evenodd" clip-rule="evenodd" d="M4.0548 1.00781C6.0105 1.00781 7.59591 2.59322 7.59591 4.54892C7.59591 6.50464 6.0105 8.09006 4.0548 8.09006C2.09908 8.09006 0.513672 6.50464 0.513672 4.54892C0.513672 2.59322 2.09908 1.00781 4.0548 1.00781ZM7.45999 4.54892C7.45999 2.66829 5.93543 1.14372 4.0548 1.14372C3.90309 1.14372 3.75373 1.15364 3.60726 1.17287C3.70189 1.16459 3.79764 1.16037 3.89441 1.16037C5.69145 1.16037 7.14826 2.61717 7.14826 4.41422C7.14826 6.21125 5.69145 7.66805 3.89441 7.66805C2.19309 7.66805 0.796733 6.36233 0.6528 4.69832C0.73099 6.50964 2.2242 7.95413 4.0548 7.95413C5.93543 7.95413 7.45999 6.42957 7.45999 4.54892ZM7.01233 4.41422C7.01233 2.69222 5.6164 1.29628 3.89441 1.29628C3.75459 1.29628 3.61692 1.30548 3.48197 1.32332C3.56506 1.31633 3.64913 1.31276 3.73403 1.31276C5.37243 1.31276 6.7006 2.64094 6.7006 4.27932C6.7006 5.91771 5.37243 7.24589 3.73403 7.24589C2.18489 7.24589 0.91309 6.05846 0.779135 4.54413C0.847242 6.20586 2.21595 7.53214 3.89441 7.53214C5.6164 7.53214 7.01233 6.13619 7.01233 4.41422ZM3.73403 1.44867C5.29736 1.44867 6.56469 2.716 6.56469 4.27932C6.56469 5.84264 5.29736 7.10996 3.73403 7.10996C2.20693 7.10996 0.962261 5.90068 0.905414 4.38747C1.02815 5.75329 2.1759 6.82371 3.57368 6.82371C5.0533 6.82371 6.25279 5.62423 6.25279 4.14459C6.25279 2.66496 5.0533 1.46549 3.57368 1.46549C3.49713 1.46549 3.42133 1.4687 3.34641 1.47499C3.47315 1.45763 3.60254 1.44867 3.73403 1.44867ZM6.11687 4.14459C6.11687 2.74003 4.97824 1.6014 3.57368 1.6014C3.455 1.6014 3.33821 1.60952 3.22388 1.62525C3.28631 1.62037 3.34941 1.61788 3.41311 1.61788C4.7341 1.61788 5.80496 2.68873 5.80496 4.00971C5.80496 5.33068 4.7341 6.40154 3.41311 6.40154C2.16978 6.40154 1.14803 5.45287 1.03222 4.23988C1.08232 5.6003 2.201 6.6878 3.57368 6.6878C4.97824 6.6878 6.11687 5.54918 6.11687 4.14459ZM3.41311 1.75379C4.65902 1.75379 5.66904 2.7638 5.66904 4.00971C5.66904 5.25562 4.65902 6.26564 3.41311 6.26564C2.19175 6.26564 1.19708 5.29503 1.15836 4.08307C1.26293 5.14763 2.1607 5.97938 3.25274 5.97938C4.41507 5.97938 5.3573 5.03713 5.3573 3.87482C5.3573 2.71251 4.41507 1.77026 3.25274 1.77026C3.19944 1.77026 3.1466 1.77225 3.09429 1.77614C3.19845 1.76141 3.30489 1.75379 3.41311 1.75379ZM5.2214 3.87482C5.2214 2.78756 4.34 1.90617 3.25274 1.90617C3.15349 1.90617 3.05597 1.91352 2.96066 1.92769C3.00416 1.92458 3.04808 1.92299 3.09238 1.92299C4.09594 1.92299 4.90949 2.73654 4.90949 3.74009C4.90949 4.74366 4.09594 5.5572 3.09238 5.5572C2.15198 5.5572 1.37844 4.84286 1.28478 3.92719C1.31255 4.99024 2.18301 5.84347 3.25274 5.84347C4.34 5.84347 5.2214 4.96207 5.2214 3.87482ZM3.09238 2.0589C4.02088 2.0589 4.77357 2.81159 4.77357 3.74009C4.77357 4.66861 4.02088 5.42129 3.09238 5.42129C2.17569 5.42129 1.43036 4.68764 1.41154 3.77547C1.49622 4.54024 2.14465 5.13504 2.93201 5.13504C3.77691 5.13504 4.46183 4.45011 4.46183 3.60521C4.46183 2.76031 3.77691 2.07538 2.93201 2.07538C2.89969 2.07538 2.86762 2.07638 2.8358 2.07836C2.91945 2.06555 3.00514 2.0589 3.09238 2.0589ZM4.32593 3.60521C4.32593 2.83537 3.70185 2.21129 2.93201 2.21129C2.8547 2.21129 2.77886 2.21758 2.70497 2.22969C2.72699 2.22853 2.74915 2.22794 2.77146 2.22794C3.45769 2.22794 4.014 2.78424 4.014 3.47049C4.014 4.15673 3.45769 4.71305 2.77146 4.71305C2.13692 4.71305 1.61348 4.2374 1.5382 3.6232C1.54784 4.38476 2.16817 4.99913 2.93201 4.99913C3.70185 4.99913 4.32593 4.37506 4.32593 3.60521ZM2.77146 2.36385C3.38264 2.36385 3.8781 2.8593 3.8781 3.47049C3.8781 4.08168 3.38264 4.57712 2.77146 4.57712C2.16027 4.57712 1.66481 4.08168 1.66481 3.47049C1.66481 3.46903 1.66482 3.46755 1.66482 3.46609C1.72845 3.93185 2.12786 4.29071 2.61109 4.29071C3.13858 4.29071 3.56619 3.86309 3.56619 3.33561C3.56619 2.8081 3.13858 2.3805 2.61109 2.3805C2.59916 2.3805 2.58728 2.38072 2.57545 2.38115C2.63907 2.36978 2.70457 2.36385 2.77146 2.36385ZM3.43027 3.33561C3.43027 2.88318 3.06352 2.51641 2.61109 2.51641C2.15866 2.51641 1.79189 2.88318 1.79189 3.33561C1.79189 3.78802 2.15866 4.15479 2.61109 4.15479C3.06352 4.15479 3.43027 3.78802 3.43027 3.33561Z" fill="#D1D1D1"/>
</g>
<defs>
<clipPath id="clip0_147_4500">
<rect width="29.3482" height="7.29364" fill="white" transform="translate(0.462646 0.839844)"/>
</clipPath>
</defs>
</svg>
