<svg width="33" height="9" viewBox="0 0 33 9" fill="none" xmlns="http://www.w3.org/2000/svg">
<g clip-path="url(#clip0_147_4559)">
<path d="M0.782959 6.70251L0.78296 2.67188L2.76007 3.7915V5.59408L4.34178 6.50098L5.92346 5.59408V3.7915L7.90059 2.67188V6.70251L4.34178 8.71782L0.782959 6.70251Z" fill="#D1D1D1"/>
<path fill-rule="evenodd" clip-rule="evenodd" d="M1.77152 3.23139L0.782959 2.67157L4.34178 0.65625L7.90059 2.67157L6.91203 3.23139V6.19837L4.34178 7.70986L1.77152 6.19837L1.77152 3.23139ZM6.80494 3.29203L5.92346 3.79119V3.77999L4.34178 2.87309L2.76007 3.77999V3.79119L1.87861 3.29203V6.13637L4.34178 7.58488L6.80494 6.13637V3.29203Z" fill="#D1D1D1"/>
<path d="M9.79541 6.38182V2.99609H10.4218V5.8014H11.9402V6.38182H9.79541Z" fill="#D1D1D1"/>
<path d="M13.2923 6.45243C13.0582 6.45243 12.8479 6.40407 12.6612 6.30732C12.4746 6.21058 12.3275 6.07032 12.2199 5.88653C12.1124 5.70274 12.0586 5.48186 12.0586 5.2239V5.1465C12.0586 4.88854 12.1124 4.66766 12.2199 4.48387C12.3275 4.30007 12.4746 4.15981 12.6612 4.06308C12.8479 3.96632 13.0582 3.91797 13.2923 3.91797C13.5264 3.91797 13.7368 3.96632 13.9234 4.06308C14.1101 4.15981 14.2572 4.30007 14.3647 4.48387C14.4723 4.66766 14.5261 4.88854 14.5261 5.1465V5.2239C14.5261 5.48186 14.4723 5.70274 14.3647 5.88653C14.2572 6.07032 14.1101 6.21058 13.9234 6.30732C13.7368 6.40407 13.5264 6.45243 13.2923 6.45243ZM13.2923 5.91071C13.4758 5.91071 13.6276 5.85107 13.7478 5.73174C13.8681 5.60922 13.9282 5.43509 13.9282 5.20938V5.16102C13.9282 4.93531 13.8681 4.76278 13.7478 4.64348C13.6308 4.52096 13.479 4.45969 13.2923 4.45969C13.1088 4.45969 12.957 4.52096 12.8368 4.64348C12.7166 4.76278 12.6565 4.93531 12.6565 5.16102V5.20938C12.6565 5.43509 12.7166 5.60922 12.8368 5.73174C12.957 5.85107 13.1088 5.91071 13.2923 5.91071Z" fill="#D1D1D1"/>
<path d="M14.7505 5.19487V5.11749C14.7505 4.86597 14.7995 4.65155 14.8976 4.47419C14.9956 4.29362 15.1254 4.15657 15.2867 4.06308C15.4512 3.96632 15.6299 3.91797 15.8229 3.91797C16.038 3.91797 16.2009 3.95667 16.3116 4.03405C16.4223 4.11144 16.503 4.19206 16.5536 4.2759H16.639V3.98568H17.2274V6.81036C17.2274 6.9748 17.18 7.10538 17.0851 7.20214C16.9902 7.30209 16.8636 7.35208 16.7055 7.35208H15.1301V6.82003H16.4967C16.5852 6.82003 16.6295 6.77165 16.6295 6.67492V6.05097H16.5441C16.5125 6.10257 16.4682 6.15577 16.4113 6.21058C16.3543 6.26218 16.2784 6.30571 16.1835 6.34119C16.0886 6.37666 15.9684 6.3944 15.8229 6.3944C15.6299 6.3944 15.4512 6.34763 15.2867 6.25411C15.1254 6.15738 14.9956 6.02034 14.8976 5.843C14.7995 5.66243 14.7505 5.44639 14.7505 5.19487ZM15.9937 5.86235C16.1772 5.86235 16.3306 5.80269 16.454 5.68339C16.5773 5.56409 16.639 5.39641 16.639 5.18037V5.13199C16.639 4.91272 16.5773 4.74506 16.454 4.62898C16.3338 4.50967 16.1803 4.45001 15.9937 4.45001C15.8102 4.45001 15.6568 4.50967 15.5334 4.62898C15.4101 4.74506 15.3484 4.91272 15.3484 5.13199V5.18037C15.3484 5.39641 15.4101 5.56409 15.5334 5.68339C15.6568 5.80269 15.8102 5.86235 15.9937 5.86235Z" fill="#D1D1D1"/>
<path d="M18.7967 6.45243C18.5626 6.45243 18.3522 6.40407 18.1656 6.30732C17.979 6.21058 17.8319 6.07032 17.7243 5.88653C17.6168 5.70274 17.563 5.48186 17.563 5.2239V5.1465C17.563 4.88854 17.6168 4.66766 17.7243 4.48387C17.8319 4.30007 17.979 4.15981 18.1656 4.06308C18.3522 3.96632 18.5626 3.91797 18.7967 3.91797C19.0308 3.91797 19.2412 3.96632 19.4278 4.06308C19.6144 4.15981 19.7615 4.30007 19.8691 4.48387C19.9767 4.66766 20.0304 4.88854 20.0304 5.1465V5.2239C20.0304 5.48186 19.9767 5.70274 19.8691 5.88653C19.7615 6.07032 19.6144 6.21058 19.4278 6.30732C19.2412 6.40407 19.0308 6.45243 18.7967 6.45243ZM18.7967 5.91071C18.9802 5.91071 19.132 5.85107 19.2522 5.73174C19.3724 5.60922 19.4325 5.43509 19.4325 5.20938V5.16102C19.4325 4.93531 19.3724 4.76278 19.2522 4.64348C19.1352 4.52096 18.9833 4.45969 18.7967 4.45969C18.6132 4.45969 18.4614 4.52096 18.3412 4.64348C18.221 4.76278 18.1609 4.93531 18.1609 5.16102V5.20938C18.1609 5.43509 18.221 5.60922 18.3412 5.73174C18.4614 5.85107 18.6132 5.91071 18.7967 5.91071Z" fill="#D1D1D1"/>
<path d="M20.3686 6.38315V3.9841H20.9665V6.38315H20.3686ZM20.6675 3.70358C20.56 3.70358 20.4682 3.66811 20.3923 3.59717C20.3196 3.52622 20.2832 3.43271 20.2832 3.31664C20.2832 3.20056 20.3196 3.10704 20.3923 3.0361C20.4682 2.96517 20.56 2.92969 20.6675 2.92969C20.7783 2.92969 20.87 2.96517 20.9428 3.0361C21.0155 3.10704 21.0519 3.20056 21.0519 3.31664C21.0519 3.43271 21.0155 3.52622 20.9428 3.59717C20.87 3.66811 20.7783 3.70358 20.6675 3.70358Z" fill="#D1D1D1"/>
<path d="M21.4155 7.35208V3.98568H22.004V4.2759H22.0894C22.1431 4.18238 22.2268 4.10015 22.3409 4.0292C22.4548 3.95504 22.6177 3.91797 22.8296 3.91797C23.0195 3.91797 23.195 3.96632 23.3562 4.06308C23.5176 4.15657 23.6473 4.29523 23.7454 4.47904C23.8434 4.66283 23.8925 4.88532 23.8925 5.1465V5.2239C23.8925 5.48507 23.8434 5.70757 23.7454 5.89136C23.6473 6.07517 23.5176 6.21543 23.3562 6.31217C23.195 6.40568 23.0195 6.45243 22.8296 6.45243C22.6871 6.45243 22.567 6.43469 22.4689 6.39922C22.374 6.36698 22.2965 6.32506 22.2365 6.27346C22.1795 6.21865 22.1336 6.16384 22.0989 6.10902H22.0134V7.35208H21.4155ZM22.6492 5.92038C22.8359 5.92038 22.9894 5.86072 23.1095 5.74142C23.2329 5.6189 23.2945 5.44154 23.2945 5.20938V5.16102C23.2945 4.92885 23.2329 4.75311 23.1095 4.6338C22.9862 4.51128 22.8328 4.45001 22.6492 4.45001C22.4657 4.45001 22.3123 4.51128 22.189 4.6338C22.0656 4.75311 22.004 4.92885 22.004 5.16102V5.20938C22.004 5.44154 22.0656 5.6189 22.189 5.74142C22.3123 5.86072 22.4657 5.92038 22.6492 5.92038Z" fill="#D1D1D1"/>
<path d="M25.2054 6.45243C24.8985 6.45243 24.647 6.38472 24.4509 6.24929C24.2549 6.11385 24.1362 5.92038 24.095 5.66887L24.6456 5.52378C24.6677 5.63662 24.7041 5.72531 24.7546 5.7898C24.8085 5.85429 24.8733 5.90103 24.9493 5.93006C25.0282 5.95585 25.1136 5.96876 25.2054 5.96876C25.3445 5.96876 25.4474 5.94456 25.5139 5.89621C25.5802 5.84461 25.6135 5.78173 25.6135 5.70757C25.6135 5.6334 25.5819 5.57698 25.5186 5.53828C25.4554 5.49636 25.3542 5.4625 25.2149 5.43672L25.0821 5.41252C24.9175 5.38027 24.7672 5.33675 24.6312 5.28193C24.4953 5.2239 24.386 5.14489 24.3038 5.04494C24.2217 4.94496 24.1804 4.81599 24.1804 4.65798C24.1804 4.41938 24.2659 4.23719 24.4368 4.11144C24.6075 3.98246 24.8322 3.91797 25.1105 3.91797C25.3731 3.91797 25.5914 3.97763 25.7652 4.09693C25.9393 4.21624 26.0532 4.37263 26.107 4.5661L25.5518 4.74021C25.5266 4.61769 25.4744 4.53061 25.3952 4.47904C25.3193 4.42744 25.2243 4.40164 25.1105 4.40164C24.9966 4.40164 24.9097 4.4226 24.8495 4.46452C24.7895 4.50322 24.7594 4.55803 24.7594 4.62898C24.7594 4.70636 24.791 4.76439 24.8543 4.80309C24.9175 4.83855 25.0029 4.86597 25.1105 4.88532L25.2433 4.9095C25.4205 4.94175 25.5802 4.98527 25.7227 5.04009C25.8682 5.09168 25.982 5.16746 26.0643 5.26743C26.1498 5.36416 26.1925 5.49636 26.1925 5.66404C26.1925 5.91556 26.1022 6.11063 25.9218 6.24929C25.7448 6.38472 25.5059 6.45243 25.2054 6.45243Z" fill="#D1D1D1"/>
<path d="M27.3994 6.4221C27.2161 6.4221 27.0546 6.38018 26.9155 6.29636C26.7796 6.20928 26.6735 6.08998 26.5975 5.93844C26.5217 5.78689 26.4836 5.61275 26.4836 5.41607V3.98438H27.0816V5.36769C27.0816 5.54826 27.1243 5.6837 27.2098 5.77397C27.2982 5.86427 27.4232 5.90941 27.5846 5.90941C27.7679 5.90941 27.9104 5.84814 28.0116 5.72562C28.1129 5.59986 28.1634 5.42574 28.1634 5.20325V3.98438H28.7613V6.38342H28.1729V6.06902H28.0876C28.0495 6.14964 27.9784 6.22864 27.874 6.30602C27.7696 6.38342 27.6113 6.4221 27.3994 6.4221Z" fill="#D1D1D1"/>
<path d="M29.2134 6.38304V3.98399H29.8016V4.24519H29.8871C29.9281 4.16457 29.9963 4.09525 30.091 4.0372C30.1859 3.97595 30.311 3.94531 30.4661 3.94531C30.6336 3.94531 30.7681 3.97917 30.8693 4.04687C30.9706 4.11136 31.048 4.19681 31.1019 4.30322H31.1871C31.241 4.20005 31.317 4.1146 31.4151 4.04687C31.5132 3.97917 31.6523 3.94531 31.8326 3.94531C31.9781 3.94531 32.1094 3.97756 32.2264 4.04205C32.3466 4.1033 32.4415 4.19842 32.5112 4.32742C32.5838 4.45316 32.6202 4.61277 32.6202 4.80626V6.38304H32.0223V4.84979C32.0223 4.71757 31.9892 4.61923 31.9227 4.55474C31.8562 4.48703 31.763 4.45316 31.6428 4.45316C31.5068 4.45316 31.4008 4.49832 31.3248 4.58859C31.2522 4.67565 31.2158 4.80141 31.2158 4.96587V6.38304H30.6178V4.84979C30.6178 4.71757 30.5846 4.61923 30.5183 4.55474C30.4518 4.48703 30.3585 4.45316 30.2381 4.45316C30.1022 4.45316 29.9963 4.49832 29.9203 4.58859C29.8475 4.67565 29.8111 4.80141 29.8111 4.96587V6.38304H29.2134Z" fill="#D1D1D1"/>
</g>
<defs>
<clipPath id="clip0_147_4559">
<rect width="32.2015" height="8.15228" fill="white" transform="translate(0.5979 0.65625)"/>
</clipPath>
</defs>
</svg>
