<svg width="30" height="9" viewBox="0 0 30 9" fill="none" xmlns="http://www.w3.org/2000/svg">
<g clip-path="url(#clip0_147_4578)">
<path d="M9.94149 5.38218V2.12109H9.40674V5.38218H9.94149Z" fill="#D1D1D1"/>
<path d="M10.2688 4.29588C10.2688 4.96212 10.7159 5.4355 11.3953 5.4355C12.0747 5.4355 12.5218 4.96212 12.5218 4.29588C12.5218 3.62963 12.0747 3.15625 11.3953 3.15625C10.7159 3.15625 10.2688 3.62963 10.2688 4.29588ZM10.8079 4.29588C10.8079 3.90577 11.0402 3.63402 11.3953 3.63402C11.7503 3.63402 11.9826 3.90577 11.9826 4.29588C11.9826 4.6816 11.7503 4.95774 11.3953 4.95774C11.0402 4.95774 10.8079 4.6816 10.8079 4.29588Z" fill="#D1D1D1"/>
<path d="M12.7017 4.253C12.7017 4.88418 13.1093 5.34003 13.7186 5.34003C14.0341 5.34003 14.3059 5.21291 14.4418 5.00252V5.37071C14.4418 5.72575 14.2182 5.96244 13.8457 5.96244C13.5125 5.96244 13.2846 5.80026 13.2539 5.51535H12.7148C12.7849 6.08078 13.2189 6.44897 13.815 6.44897C14.5163 6.44897 14.9634 5.98874 14.9634 5.27428V3.21857H14.49L14.4593 3.51224C14.3278 3.28432 14.0561 3.14844 13.7361 3.14844C13.1181 3.14844 12.7017 3.61744 12.7017 4.253ZM13.2452 4.23985C13.2452 3.88043 13.4731 3.61744 13.8106 3.61744C14.1788 3.61744 14.4242 3.88481 14.4242 4.23985C14.4242 4.59927 14.1788 4.87541 13.8106 4.87541C13.4775 4.87541 13.2452 4.60365 13.2452 4.23985Z" fill="#D1D1D1"/>
<path d="M15.2278 4.29588C15.2278 4.96212 15.6749 5.4355 16.3543 5.4355C17.0337 5.4355 17.4807 4.96212 17.4807 4.29588C17.4807 3.62963 17.0337 3.15625 16.3543 3.15625C15.6749 3.15625 15.2278 3.62963 15.2278 4.29588ZM15.7669 4.29588C15.7669 3.90577 15.9992 3.63402 16.3543 3.63402C16.7093 3.63402 16.9416 3.90577 16.9416 4.29588C16.9416 4.6816 16.7093 4.95774 16.3543 4.95774C15.9992 4.95774 15.7669 4.6816 15.7669 4.29588Z" fill="#D1D1D1"/>
<path d="M18.0597 2.77619C18.2351 2.77619 18.3797 2.63592 18.3797 2.45621C18.3797 2.28089 18.2351 2.14062 18.0597 2.14062C17.88 2.14062 17.7441 2.28089 17.7441 2.45621C17.7441 2.63592 17.88 2.77619 18.0597 2.77619ZM17.7924 5.38418H18.3271V3.21889H17.7924V5.38418Z" fill="#D1D1D1"/>
<path d="M18.7954 6.38713H19.317V5.08532C19.4529 5.30887 19.7466 5.44036 20.071 5.44036C20.7109 5.44036 21.0922 4.94945 21.0835 4.27444C21.0703 3.59504 20.6802 3.15234 20.0666 3.15234C19.7378 3.15234 19.4398 3.29699 19.3083 3.54683L19.2776 3.21809H18.7954V6.38713ZM19.339 4.30074C19.339 3.91063 19.5757 3.63888 19.9482 3.63888C20.3208 3.63888 20.5443 3.91502 20.5443 4.30074C20.5443 4.68646 20.3208 4.95821 19.9482 4.95821C19.5757 4.95821 19.339 4.69084 19.339 4.30074Z" fill="#D1D1D1"/>
<path d="M21.2192 4.73467C21.2368 5.16422 21.5699 5.44036 22.0871 5.44036C22.5956 5.44036 22.9418 5.16861 22.9418 4.74782C22.9418 4.43661 22.749 4.22622 22.3939 4.13856L22.0126 4.04651C21.8504 4.00268 21.7408 3.9457 21.7408 3.80544C21.7408 3.65641 21.8592 3.55121 22.052 3.55121C22.2537 3.55121 22.3852 3.66518 22.3852 3.85365H22.8717C22.8542 3.4241 22.5342 3.15234 22.0652 3.15234C21.6006 3.15234 21.2543 3.4241 21.2543 3.83612C21.2543 4.11664 21.4165 4.34895 21.8329 4.45853L22.2098 4.55496C22.3501 4.59441 22.4378 4.66016 22.4378 4.78289C22.4378 4.95383 22.2756 5.03273 22.0783 5.03273C21.8416 5.03273 21.7058 4.92315 21.7058 4.73467H21.2192Z" fill="#D1D1D1"/>
<path d="M24.0512 5.44102C24.3448 5.44102 24.6254 5.30514 24.7525 5.10352L24.7875 5.38404H25.2872V3.21875H24.7525V4.35399C24.7525 4.7441 24.6034 4.96325 24.2528 4.96325C23.981 4.96325 23.7926 4.83176 23.7926 4.38468V3.21875H23.2578V4.57315C23.2578 5.09037 23.5383 5.44102 24.0512 5.44102Z" fill="#D1D1D1"/>
<path d="M26.2938 5.38338V4.13856C26.2938 3.7879 26.4998 3.62134 26.754 3.62134C27.0082 3.62134 27.1748 3.78352 27.1748 4.09034V5.38338H27.6964V4.14294C27.6964 3.7879 27.898 3.62134 28.1522 3.62134C28.4109 3.62134 28.5774 3.78352 28.5774 4.09034V5.38338H29.0946V3.96761C29.0946 3.46793 28.8185 3.15234 28.2925 3.15234C27.9638 3.15234 27.7052 3.31014 27.6 3.56436C27.4816 3.31014 27.2449 3.15234 26.8855 3.15234C26.6313 3.15234 26.4034 3.27069 26.2762 3.46355L26.2499 3.21809H25.759V5.38338H26.2938Z" fill="#D1D1D1"/>
<path d="M25.0118 7.31902C25.0914 7.31902 25.1606 7.25193 25.1606 7.17227C25.1606 7.09052 25.0914 7.02344 25.0118 7.02344C24.93 7.02344 24.8608 7.09052 24.8608 7.17227C24.8608 7.25193 24.93 7.31902 25.0118 7.31902Z" fill="#D1D1D1"/>
<path d="M25.3145 6.77732C25.3145 7.09805 25.5115 7.31397 25.7987 7.31397C26.0461 7.31397 26.2347 7.16513 26.2746 6.94293H26.0859C26.0503 7.06661 25.9412 7.13998 25.8113 7.13998C25.6268 7.13998 25.5094 6.99743 25.5094 6.77522C25.5094 6.54882 25.6331 6.41046 25.8155 6.41046C25.9412 6.41046 26.0503 6.47755 26.0838 6.60961H26.2725C26.2389 6.38531 26.0628 6.23438 25.8176 6.23438C25.5199 6.23438 25.3145 6.45449 25.3145 6.77732Z" fill="#D1D1D1"/>
<path d="M26.3489 6.77508C26.3489 7.08323 26.5585 7.31383 26.873 7.31383C27.1874 7.31383 27.397 7.08323 27.397 6.77508C27.397 6.46692 27.1874 6.23633 26.873 6.23633C26.5585 6.23633 26.3489 6.46692 26.3489 6.77508ZM26.548 6.77508C26.548 6.56545 26.6759 6.41242 26.873 6.41242C27.07 6.41242 27.1979 6.56545 27.1979 6.77508C27.1979 6.98471 27.07 7.13774 26.873 7.13774C26.6759 7.13774 26.548 6.98471 26.548 6.77508Z" fill="#D1D1D1"/>
<path d="M27.7622 7.29077V6.67446C27.7622 6.51304 27.8629 6.40822 28.0096 6.40822C28.1501 6.40822 28.2381 6.49837 28.2381 6.65978V7.29077H28.431V6.67655C28.431 6.51304 28.5295 6.40822 28.6783 6.40822C28.8167 6.40822 28.9047 6.49837 28.9047 6.65978V7.29077H29.0955V6.61785C29.0955 6.38097 28.9571 6.23633 28.7223 6.23633C28.563 6.23633 28.4393 6.31389 28.389 6.43967C28.3366 6.31389 28.2213 6.23633 28.0536 6.23633C27.9257 6.23633 27.8125 6.29502 27.7559 6.39565L27.7413 6.26568H27.5652V7.29077H27.7622Z" fill="#D1D1D1"/>
<path fill-rule="evenodd" clip-rule="evenodd" d="M0.519775 4.3241L0.520143 4.28591L0.520902 4.2477L0.522053 4.20949L0.523594 4.17128L0.525531 4.13307L0.527858 4.09486L0.530579 4.05667L0.533691 4.01848L0.537198 3.98031L0.541097 3.94214L0.545388 3.90402L0.550071 3.86591L0.555148 3.82783L0.560617 3.78979L0.566477 3.75179L0.57273 3.71385L0.579375 3.67593L0.586409 3.63808L0.593836 3.60027L0.601653 3.56252L0.609861 3.52482L0.618456 3.4872L0.627443 3.44966L0.636816 3.41217L0.646579 3.37478L0.656727 3.33745L0.667264 3.30021L0.678185 3.26307L0.689492 3.22602L0.701182 3.18907L0.713256 3.15221L0.725714 3.11545L0.738553 3.0788L0.751771 3.04227L0.76537 3.00585L0.779347 2.96955L0.793703 2.93338L0.808434 2.89732L0.823541 2.86142L0.839021 2.82563L0.854875 2.78997L0.8711 2.75447L0.887695 2.71912L0.90466 2.6839L0.921993 2.64883L0.939691 2.61394L0.957754 2.5792L0.97618 2.54461L0.994967 2.51021L1.01411 2.47596L1.03362 2.44189L1.05348 2.40801L1.0737 2.37429L1.09427 2.34077L1.11519 2.30744L1.13647 2.2743L1.15809 2.24137L1.18005 2.20861L1.20236 2.17608L1.22502 2.14374L1.24801 2.11161L1.27134 2.07971L1.29501 2.04799L1.31901 2.01653L1.34334 1.98528L1.368 1.95424L1.39299 1.92344L1.41831 1.89288L1.44395 1.86255L1.46991 1.83246L1.49619 1.80262L1.52278 1.77302L1.54968 1.74367L1.5769 1.71457L1.60443 1.68573L1.63226 1.65715L1.6604 1.62883L1.68884 1.60077L1.71757 1.57298L1.74661 1.54547L1.77593 1.51823L1.80555 1.49126L1.83545 1.46458L1.86564 1.43817L1.89611 1.41206L1.92686 1.38623L1.95788 1.3607L1.98918 1.33545L2.02075 1.31051L2.05259 1.28586L2.08468 1.26152L2.11706 1.23749L2.14969 1.21376L2.18256 1.19035L2.21568 1.16724L2.24907 1.14446L2.28269 1.12199L2.31655 1.09984L2.35067 1.07801L2.38503 1.05652L2.4196 1.03535L2.45441 1.01451L2.48944 0.994006L2.5247 0.973838L2.56018 0.954007L2.59588 0.934517L2.63178 0.915368L2.66789 0.896566L2.70422 0.878109L2.74075 0.860003L2.77747 0.842247L2.81441 0.824844L2.85151 0.807797L2.88883 0.791109L2.92631 0.774779L2.96399 0.758811L3.00183 0.743207L3.03985 0.727966L3.07804 0.713092L3.11641 0.69859L3.15492 0.684455L3.19361 0.670696L3.23245 0.657308L3.27144 0.644295L3.31056 0.631662L3.34984 0.619407L3.38927 0.607532L3.42883 0.59604L3.46851 0.584932L3.50834 0.574207L3.54828 0.563868L3.58834 0.553918L3.62851 0.544359L3.66882 0.535187L3.70922 0.526409L3.74972 0.518022L3.79033 0.510029L3.83104 0.502433L3.87184 0.495231L3.91274 0.488428L3.95371 0.482023L3.99476 0.476016L4.03588 0.470411L4.07709 0.465206L4.11836 0.460404L4.1597 0.456002L4.20109 0.452007L4.24254 0.448415L4.28405 0.445227L4.32559 0.442446L4.54902 0.429688L4.56177 1.50617L4.56907 1.50609L4.59992 1.50604L4.63078 1.5063L4.66163 1.50686L4.69252 1.50773L4.72339 1.5089L4.75429 1.51037L4.78518 1.51215L4.81607 1.51423L4.84694 1.51662L4.87783 1.51931L4.90869 1.5223L4.93954 1.52561L4.97036 1.52921L5.00117 1.53312L5.03195 1.53733L5.06271 1.54185L5.09343 1.54667L5.12413 1.5518L5.15477 1.55723L5.1854 1.56296L5.21597 1.569L5.24648 1.57534L5.27697 1.58198L5.30739 1.58893L5.33774 1.59618L5.36806 1.60373L5.39831 1.61158L5.42848 1.61974L5.45859 1.62819L5.48864 1.63694L5.5186 1.64599L5.54848 1.65535L5.57828 1.665L5.60801 1.67494L5.63765 1.68519L5.66719 1.69573L5.69665 1.70656L5.726 1.71769L5.75525 1.72912L5.78441 1.74083L5.81345 1.75284L5.84238 1.76514L5.87121 1.77774L5.89993 1.79062L5.92852 1.80378L5.95699 1.81724L5.98535 1.83098L6.01357 1.84501L6.04166 1.85932L6.06962 1.87392L6.09744 1.88879L6.12513 1.90395L6.15267 1.91939L6.18008 1.9351L6.20733 1.95109L6.23443 1.96736L6.26137 1.9839L6.28817 2.00071L6.31479 2.01781L6.34126 2.03515L6.36756 2.05278L6.39371 2.07067L6.41966 2.08882L6.44547 2.10724L6.47108 2.12592L6.4965 2.14486L6.52177 2.16407L6.54683 2.18353L6.57172 2.20325L6.5964 2.22321L6.62091 2.24343L6.64521 2.26391L6.66931 2.28463L6.69323 2.30559L6.71694 2.3268L6.74042 2.34826L6.76371 2.36997L6.78678 2.3919L6.80965 2.41407L6.83229 2.43648L6.85472 2.45912L6.87692 2.48201L6.89892 2.5051L6.92066 2.52843L6.9422 2.55198L6.96348 2.57577L6.98454 2.59976L7.00537 2.62398L7.02595 2.64841L7.04631 2.67305L7.06641 2.69792L7.08627 2.72298L7.10588 2.74825L7.12524 2.77373L7.14436 2.79942L7.1632 2.8253L7.1818 2.85139L7.20014 2.87767L7.21822 2.90412L7.23604 2.93079L7.25359 2.95764L7.27088 2.98468L7.28788 3.01189L7.30463 3.03928L7.32109 3.06685L7.33729 3.0946L7.3532 3.12252L7.36885 3.15061L7.38421 3.17887L7.39928 3.20729L7.41407 3.23587L7.42858 3.26461L7.44279 3.2935L7.45672 3.32256L7.47037 3.35176L7.48371 3.38111L7.49676 3.41061L7.50951 3.44024L7.52196 3.47003L7.53412 3.49993L7.54597 3.52998L7.55752 3.56015L7.56876 3.59047L7.5797 3.62089L7.59033 3.65146L7.60066 3.68212L7.61069 3.71292L7.62039 3.74381L7.62978 3.77481L7.63885 3.80593L7.64762 3.83715L7.65606 3.86848L7.6642 3.89991L7.672 3.93141L7.6795 3.96302L7.68667 3.99472L7.69351 4.0265L7.70005 4.05835L7.70624 4.09031L7.71211 4.12232L7.71767 4.15442L7.7229 4.18657L7.72779 4.21879L7.73237 4.25109L7.7366 4.28343L7.74051 4.31585L7.74409 4.3483L7.74733 4.38082L7.75024 4.41337L7.75284 4.44597L7.75508 4.47862L7.75699 4.5113L7.75857 4.544L7.75983 4.57676L7.76073 4.60952L7.76132 4.64232L7.76155 4.67514L7.76145 4.70797L7.76101 4.74083L7.76023 4.7737L7.75913 4.80656L7.75768 4.83943L7.7559 4.8723L7.75377 4.90518L7.75131 4.93805L7.74851 4.97091L7.74537 5.00376L7.7419 5.0366L7.73807 5.06939L7.73391 5.10219L7.72943 5.13495L7.72459 5.16769L7.71943 5.20039L7.71392 5.23306L7.70807 5.26568L7.7019 5.29827L7.69538 5.33082L7.68852 5.36331L7.68131 5.39575L7.67379 5.42815L7.66593 5.46047L7.65772 5.49273L7.64918 5.52492L7.64032 5.55705L7.63112 5.58911L7.62159 5.62108L7.61172 5.653L7.6015 5.68481L7.59098 5.71656L7.58012 5.7482L7.56891 5.77975L7.5574 5.81122L7.54555 5.84257L7.53337 5.87382L7.52087 5.90498L7.50805 5.93602L7.4949 5.96695L7.48142 5.99779L7.46762 6.02847L7.4535 6.05906L7.43906 6.08951L7.42431 6.11983L7.40921 6.15004L7.39383 6.18009L7.37811 6.21003L7.3621 6.2398L7.34575 6.26945L7.32912 6.29893L7.31216 6.32828L7.29489 6.35748L7.27732 6.3865L7.25944 6.41539L7.24124 6.44409L7.22276 6.47264L7.20399 6.50102L7.18489 6.52922L7.16551 6.55725L7.14582 6.58512L7.12585 6.61279L7.10557 6.64029L7.08501 6.6676L7.06416 6.69471L7.04303 6.72162L7.02161 6.74836L6.9999 6.77489L6.97791 6.80121L6.95563 6.82733L6.93309 6.85325L6.91026 6.87896L6.88716 6.90446L6.86379 6.92975L6.84016 6.95481L6.81625 6.97966L6.79208 7.00426L6.76763 7.02865L6.74293 7.05282L6.71799 7.07676L6.69277 7.10046L6.66731 7.12392L6.64159 7.14715L6.61561 7.17012L6.58941 7.19285L6.56294 7.21536L6.53624 7.2376L6.50929 7.25957L6.48211 7.28132L6.45469 7.30279L6.42704 7.324L6.39916 7.34495L6.37105 7.36565L6.34273 7.38607L6.31416 7.40622L6.28539 7.42611L6.2564 7.44572L6.2272 7.46505L6.19778 7.4841L6.16817 7.5029L6.13834 7.52138L6.10831 7.5396L6.07806 7.55751L6.04763 7.57516L6.01702 7.5925L5.98619 7.60954L5.9552 7.62631L5.924 7.64276L5.89263 7.65892L5.86108 7.67479L5.82935 7.69034L5.79744 7.70559L5.76537 7.72055L5.73313 7.73518L5.70073 7.74952L5.66816 7.76352L5.63544 7.77723L5.60256 7.79062L5.56954 7.8037L5.53636 7.81644L5.50303 7.82889L5.46956 7.84099L5.43595 7.85279L5.40222 7.86424L5.36835 7.87539L5.33433 7.88619L5.3002 7.89668L5.26595 7.90683L5.2316 7.91665L5.1971 7.92614L5.16251 7.93531L5.12779 7.94411L5.09299 7.95259L5.05808 7.96075L5.02305 7.96854L4.98795 7.97601L4.95275 7.98314L4.91745 7.98992L4.88208 7.99636L4.84664 8.00244L4.8111 8.0082L4.7755 8.01361L4.7398 8.01866L4.70407 8.02337L4.66826 8.02773L4.63238 8.03173L4.59645 8.03539L4.56047 8.03871L4.52446 8.04166L4.48838 8.04427L4.45227 8.04652L4.4161 8.04843L4.37991 8.04997L4.3437 8.05116L4.30743 8.05199L4.27116 8.05247L4.23486 8.0526L4.19856 8.05237L4.16223 8.05178L4.12589 8.05085L4.08955 8.04953L4.05321 8.04788L4.01686 8.04588L3.98054 8.04349L3.9442 8.04077L3.90789 8.03768L3.87159 8.03423L3.83531 8.03044L3.79906 8.02629L3.76283 8.02177L3.72662 8.01689L3.69047 8.01165L3.65434 8.00606L3.61826 8.00012L3.58222 7.99383L3.54623 7.98716L3.5103 7.98015L3.47442 7.97279L3.43861 7.96505L3.40284 7.95697L3.36716 7.94855L3.33154 7.93976L3.296 7.93062L3.26054 7.92113L3.22517 7.91129L3.18987 7.9011L3.15466 7.89056L3.11955 7.87966L3.08454 7.86841L3.04963 7.85683L3.01481 7.84488L2.98011 7.83259L2.94552 7.81997L2.91105 7.80699L2.87669 7.79367L2.84246 7.78001L2.80835 7.766L2.77437 7.75165L2.74052 7.73698L2.70681 7.72196L2.67323 7.7066L2.6398 7.6909L2.60653 7.67487L2.57341 7.6585L2.54042 7.6418L2.5076 7.62479L2.47496 7.60743L2.44245 7.58976L2.41013 7.57175L2.37798 7.55342L2.346 7.53476L2.31419 7.51578L2.28257 7.49649L2.25113 7.47686L2.21988 7.45695L2.18883 7.43669L2.15796 7.41615L2.1273 7.39526L2.09684 7.37409L2.06658 7.35261L2.03653 7.33081L2.00669 7.30872L1.97706 7.28631L1.94765 7.26361L1.91847 7.24063L1.8895 7.21732L1.86076 7.19375L1.83226 7.16987L1.80398 7.1457L1.77594 7.12125L1.74814 7.0965L1.72059 7.07148L1.69328 7.04619L1.66621 7.02059L1.6394 6.99475L1.61284 6.96861L1.58654 6.94221L1.5605 6.91555L1.53472 6.8886L1.5092 6.86141L1.48396 6.83395L1.45899 6.80622L1.43429 6.77824L1.40986 6.75002L1.38572 6.72153L1.36186 6.69281L1.33828 6.66382L1.31499 6.63461L1.29199 6.60514L1.26929 6.57545L1.24687 6.54551L1.22476 6.51535L1.20295 6.48495L1.18143 6.45433L1.16023 6.42349L1.13933 6.39243L1.11874 6.36114L1.09847 6.32965L1.07851 6.29794L1.05886 6.26602L1.03954 6.23391L1.02053 6.20157L1.00186 6.16906L0.983502 6.13634L0.965476 6.10342L0.947781 6.0703L0.930416 6.03701L0.913388 6.00354L0.896694 5.96989L0.880341 5.93606L0.864327 5.90205L0.848655 5.86788L0.833327 5.83352L0.818344 5.79902L0.80371 5.76434L0.789426 5.72952L0.775492 5.69453L0.761912 5.65939L0.748688 5.62411L0.735818 5.58869L0.723307 5.55312L0.711154 5.51743L0.699364 5.48158L0.687937 5.44562L0.676872 5.40953L0.666175 5.37332L0.655844 5.33698L0.645881 5.30052L0.636288 5.26397L0.627066 5.2273L0.618216 5.19052L0.609741 5.15365L0.60164 5.11666L0.593914 5.07959L0.586565 5.04243L0.579594 5.00519L0.573002 4.96786L0.566792 4.93045L0.56096 4.89296L0.555512 4.8554L0.550446 4.81776L0.545766 4.78007L0.541468 4.74231L0.537556 4.7045L0.53403 4.66666L0.530892 4.62873L0.52814 4.59077L0.525777 4.55277L0.523802 4.51473L0.522217 4.47666L0.52102 4.43856L0.520214 4.40043L0.5198 4.36227L0.519775 4.3241ZM4.21272 1.52872L4.20403 0.794976L4.19577 0.795772L4.15789 0.799805L4.1201 0.804203L4.08233 0.808975L4.04471 0.814102L4.00713 0.819602L3.96958 0.825469L3.93215 0.831697L3.89476 0.838297L3.85756 0.845239L3.82031 0.852571L3.78332 0.860232L3.74627 0.86828L3.70941 0.876669L3.67259 0.885431L3.63595 0.894529L3.5994 0.903993L3.56294 0.913809L3.5266 0.92398L3.49043 0.934492L3.45431 0.945366L3.41839 0.956578L3.38256 0.968145L3.34692 0.980033L3.31134 0.992297L3.27595 1.00489L3.24074 1.01781L3.20561 1.03109L3.17068 1.04469L3.13594 1.05862L3.10129 1.07291L3.06682 1.08752L3.03252 1.10246L2.9984 1.11772L2.96446 1.13331L2.93071 1.14922L2.89708 1.16547L2.86369 1.18203L2.83047 1.1989L2.79745 1.2161L2.76461 1.23361L2.732 1.25142L2.69953 1.26956L2.66727 1.28801L2.63529 1.30673L2.6034 1.32582L2.57183 1.34515L2.54046 1.36479L2.50924 1.38475L2.47827 1.40501L2.44753 1.42555L2.41708 1.44634L2.38674 1.4675L2.35671 1.48888L2.3269 1.51056L2.29731 1.53254L2.26798 1.55478L2.23891 1.57728L2.21002 1.6001L2.18146 1.62314L2.1531 1.64648L2.12501 1.67008L2.09717 1.69395L2.06961 1.71805L2.04226 1.74245L2.01522 1.76707L1.98841 1.79197L1.96191 1.81709L1.93566 1.84247L1.9097 1.86809L1.884 1.89396L1.85855 1.92009L1.83343 1.94641L1.8086 1.97295L1.78399 1.9998L1.75972 2.02682L1.73574 2.05404L1.71201 2.08154L1.68863 2.10921L1.66551 2.13713L1.64269 2.16523L1.62018 2.19357L1.59796 2.2221L1.57606 2.25082L1.55446 2.27975L1.53315 2.30891L1.51218 2.3382L1.49149 2.36774L1.47114 2.39743L1.45109 2.42731L1.43135 2.45738L1.41194 2.48763L1.39285 2.51802L1.37409 2.54861L1.35565 2.57935L1.33752 2.61028L1.31971 2.64138L1.30226 2.6726L1.28512 2.70398L1.2683 2.73554L1.25183 2.76724L1.23568 2.79908L1.21988 2.83104L1.20441 2.86315L1.18928 2.8954L1.17447 2.92779L1.16002 2.96029L1.1459 2.99293L1.13212 3.02569L1.11869 3.05855L1.1056 3.09153L1.09286 3.12464L1.08046 3.15783L1.06841 3.19115L1.05671 3.22453L1.04535 3.25806L1.03434 3.29165L1.02369 3.32535L1.01338 3.3591L1.00342 3.39298L0.993825 3.4269L0.984577 3.46092L0.975679 3.495L0.967136 3.52917L0.958949 3.56337L0.951116 3.59766L0.943638 3.632L0.936516 3.6664L0.929751 3.70083L0.92334 3.73533L0.917288 3.76986L0.911591 3.80445L0.906253 3.83906L0.901272 3.8737L0.896649 3.90839L0.892382 3.94309L0.888473 3.97781L0.884923 4.01257L0.88173 4.04733L0.878895 4.08209L0.876417 4.11689L0.874298 4.15169L0.872535 4.18647L0.871131 4.22127L0.870083 4.25605L0.869393 4.29083L0.869057 4.32559L0.86908 4.36035L0.869458 4.39507L0.870191 4.42979L0.871279 4.46448L0.872722 4.49912L0.874521 4.53375L0.876671 4.56832L0.879175 4.60287L0.882032 4.63737L0.885241 4.67182L0.888799 4.70624L0.892709 4.74058L0.896969 4.77488L0.901577 4.80911L0.906534 4.84328L0.911839 4.87739L0.917488 4.91141L0.923485 4.94537L0.929825 4.97925L0.936509 5.01304L0.943535 5.04677L0.950903 5.08039L0.958611 5.11393L0.966659 5.14738L0.975044 5.18073L0.983769 5.21398L0.992825 5.2471L1.00222 5.28015L1.01195 5.31308L1.02201 5.3459L1.0324 5.3786L1.04311 5.41117L1.05416 5.44362L1.06553 5.47594L1.07723 5.50815L1.08925 5.5402L1.10159 5.57214L1.11425 5.60393L1.12723 5.63559L1.14053 5.66709L1.15414 5.69844L1.16807 5.72965L1.18231 5.76072L1.19686 5.79161L1.21172 5.82235L1.22689 5.85292L1.24236 5.88333L1.25813 5.91358L1.2742 5.94365L1.29058 5.97355L1.30725 6.00326L1.32421 6.0328L1.34147 6.06216L1.35902 6.09132L1.37685 6.12031L1.39498 6.1491L1.41339 6.17769L1.43209 6.2061L1.45106 6.23431L1.47031 6.2623L1.48984 6.29011L1.50964 6.3177L1.52971 6.34509L1.55006 6.37226L1.57067 6.39921L1.59155 6.42595L1.61268 6.45246L1.63408 6.47876L1.65574 6.50485L1.67764 6.53069L1.6998 6.5563L1.72221 6.58169L1.74488 6.60684L1.76778 6.63175L1.79092 6.65643L1.81431 6.68086L1.83793 6.70506L1.86179 6.72902L1.88588 6.75271L1.91021 6.77617L1.93475 6.79936L1.95952 6.82232L1.98451 6.84502L2.00973 6.86745L2.03514 6.88961L2.06079 6.91153L2.08665 6.93318L2.11268 6.95456L2.13896 6.97569L2.16541 6.99652L2.19207 7.01711L2.21892 7.03742L2.24598 7.05745L2.27322 7.07719L2.30064 7.09667L2.32824 7.11586L2.35604 7.13478L2.384 7.1534L2.41216 7.17176L2.44046 7.18982L2.46895 7.20758L2.49762 7.22508L2.52641 7.24227L2.5554 7.25917L2.58452 7.27577L2.61381 7.29208L2.64323 7.30809L2.67283 7.32381L2.70254 7.33923L2.7324 7.35436L2.76242 7.36917L2.79257 7.38369L2.82283 7.39791L2.85323 7.41182L2.88374 7.42541L2.9144 7.43871L2.94516 7.45169L2.97605 7.46438L3.00704 7.47675L3.03814 7.48879L3.06935 7.50055L3.10065 7.51199L3.13205 7.5231L3.16357 7.5339L3.19517 7.5444L3.22686 7.55458L3.25861 7.56443L3.2905 7.57398L3.32242 7.5832L3.35443 7.5921L3.38653 7.6007L3.41867 7.60897L3.4509 7.61692L3.48316 7.62454L3.51552 7.63186L3.54792 7.63883L3.58036 7.6455L3.61287 7.65185L3.64542 7.65787L3.67801 7.66357L3.71063 7.66894L3.7433 7.67399L3.776 7.67872L3.80874 7.68312L3.84148 7.68722L3.87426 7.69097L3.90706 7.6944L3.93987 7.69753L3.97271 7.70031L4.00554 7.70279L4.03838 7.70492L4.07123 7.70675L4.10407 7.70824L4.13691 7.70942L4.16974 7.71028L4.20258 7.71079L4.23537 7.711L4.26817 7.71089L4.30095 7.71045L4.33369 7.7097L4.36641 7.70862L4.39912 7.70723L4.43178 7.70551L4.46439 7.70347L4.49697 7.70113L4.52952 7.69846L4.56202 7.69547L4.59445 7.69215L4.62685 7.68853L4.65917 7.68461L4.69145 7.68036L4.72366 7.67578L4.75581 7.6709L4.78788 7.66572L4.8199 7.66021L4.85184 7.6544L4.88368 7.64828L4.91545 7.64186L4.94715 7.63511L4.97874 7.62808L5.01024 7.62073L5.04167 7.61307L5.07298 7.60512L5.1042 7.59685L5.1353 7.58829L5.16632 7.57943L5.19722 7.57026L5.22801 7.56081L5.25868 7.55107L5.28924 7.54101L5.31968 7.53068L5.34996 7.52005L5.38017 7.50911L5.41022 7.4979L5.44014 7.48639L5.46992 7.47461L5.49956 7.46255L5.52906 7.45018L5.55843 7.43755L5.58764 7.42463L5.61669 7.41144L5.64561 7.39797L5.67437 7.38421L5.70296 7.3702L5.73141 7.35589L5.75967 7.34133L5.78778 7.3265L5.81574 7.31139L5.84349 7.29603L5.87108 7.2804L5.89849 7.26453L5.92576 7.24837L5.95278 7.23198L5.97969 7.2153L6.00635 7.1984L6.03284 7.18123L6.05916 7.16381L6.08529 7.14612L6.11116 7.12825L6.13687 7.11009L6.16239 7.0917L6.1877 7.07308L6.21282 7.05419L6.23769 7.03512L6.2624 7.01575L6.28685 6.9962L6.31109 6.97642L6.33516 6.95639L6.35899 6.93613L6.38256 6.91568L6.40594 6.89499L6.42908 6.8741L6.452 6.85298L6.4747 6.83166L6.49713 6.81014L6.51937 6.78838L6.54136 6.76643L6.56311 6.74428L6.58462 6.72193L6.60587 6.6994L6.62687 6.67669L6.64769 6.6537L6.66819 6.63061L6.68849 6.60728L6.7085 6.5838L6.72828 6.56011L6.74779 6.53627L6.76704 6.51224L6.78606 6.48802L6.80479 6.46366L6.8233 6.4391L6.8415 6.4144L6.85947 6.38951L6.87719 6.36445L6.89457 6.3393L6.91174 6.31393L6.92861 6.28845L6.94523 6.26278L6.9616 6.23696L6.97764 6.21104L6.99342 6.18497L7.00895 6.15869L7.02416 6.13237L7.03912 6.10586L7.05381 6.07922L7.06818 6.0525L7.0823 6.02559L7.09614 5.99857L7.10965 5.97153L7.12292 5.94426L7.13589 5.91689L7.14857 5.88945L7.16095 5.86189L7.17306 5.83422L7.18485 5.80647L7.19638 5.77857L7.20761 5.7506L7.21853 5.7226L7.22916 5.6944L7.23949 5.66619L7.24955 5.63785L7.25931 5.60946L7.26876 5.58097L7.27789 5.55248L7.28677 5.52378L7.29531 5.49511L7.30356 5.46636L7.31153 5.43756L7.31919 5.40865L7.32652 5.37974L7.33359 5.35074L7.34034 5.32167L7.3468 5.29259L7.35296 5.26344L7.35879 5.2343L7.36433 5.20502L7.36957 5.17583L7.37451 5.14652L7.37914 5.11719L7.38347 5.08786L7.38751 5.05847L7.39122 5.02913L7.39465 4.99964L7.39776 4.97028L7.40058 4.94081L7.40308 4.91141L7.40529 4.88191L7.40719 4.85252L7.40879 4.82304L7.41009 4.79354L7.41108 4.76412L7.41179 4.73475L7.41217 4.70527L7.41226 4.67584L7.41205 4.64646L7.41154 4.61709L7.41072 4.58772L7.4096 4.55847L7.40819 4.5291L7.40647 4.49987L7.40445 4.47063L7.40214 4.44149L7.39953 4.4123L7.39664 4.38324L7.39344 4.35416L7.38993 4.32517L7.38614 4.2962L7.38206 4.26733L7.37766 4.23844L7.37299 4.20968L7.36803 4.18102L7.36277 4.15234L7.35721 4.12375L7.35137 4.09528L7.34524 4.06679L7.33885 4.03851L7.33213 4.01019L7.32517 3.98206L7.31787 3.95389L7.31033 3.92594L7.30249 3.89802L7.29437 3.87016L7.28599 3.84247L7.27732 3.81487L7.26834 3.7873L7.25914 3.75993L7.24961 3.73258L7.23985 3.70541L7.22979 3.67829L7.21948 3.65136L7.20886 3.62447L7.198 3.59773L7.18689 3.57117L7.17551 3.54472L7.16381 3.5183L7.15194 3.49214L7.13972 3.46599L7.1273 3.44009L7.11461 3.41429L7.10163 3.38858L7.08844 3.36308L7.07497 3.3377L7.06123 3.31243L7.04732 3.2874L7.03308 3.26244L7.01863 3.23768L7.0039 3.21304L6.989 3.18865L6.97377 3.16431L6.95838 3.14021L6.94269 3.11621L6.9268 3.09243L6.91069 3.06886L6.8943 3.04538L6.87771 3.02211L6.8609 2.99901L6.84384 2.97612L6.82658 2.95337L6.80908 2.93084L6.79138 2.90847L6.77344 2.88631L6.7553 2.86433L6.73693 2.84253L6.71835 2.82094L6.69958 2.79954L6.68062 2.77835L6.66142 2.75734L6.64199 2.73652L6.62245 2.71597L6.60259 2.69554L6.58264 2.6754L6.56246 2.65541L6.54211 2.63566L6.52149 2.61607L6.50079 2.59679L6.47983 2.57765L6.45869 2.55875L6.43744 2.54009L6.41599 2.52164L6.39428 2.50337L6.37246 2.48536L6.35049 2.46758L6.32832 2.45003L6.30599 2.43268L6.28354 2.41563L6.26084 2.39871L6.23807 2.38211L6.2151 2.36572L6.19197 2.34954L6.16874 2.33362L6.14526 2.3179L6.12178 2.3025L6.09803 2.28728L6.07421 2.27232L6.0502 2.25759L6.02609 2.2431L6.00185 2.22889L5.97752 2.21494L5.95295 2.20116L5.92839 2.1877L5.90361 2.17446L5.87874 2.16148L5.85378 2.14877L5.82866 2.13629L5.80345 2.12405L5.77814 2.1121L5.7527 2.10038L5.7272 2.08895L5.70157 2.07774L5.67502 2.06646L5.65005 2.05615L5.62408 2.04571L5.59814 2.03559L5.572 2.02566L5.54585 2.01605L5.51959 2.00668L5.49327 1.99759L5.46684 1.98873L5.44039 1.98017L5.41382 1.97186L5.3872 1.96382L5.36056 1.95606L5.3338 1.94855L5.30695 1.94129L5.28013 1.93433L5.25326 1.92763L5.22622 1.92118L5.19927 1.91503L5.17219 1.90912L5.14511 1.9035L5.11794 1.89813L5.0908 1.89305L5.06359 1.88822L5.03639 1.88368L5.00906 1.87939L4.98181 1.87539L4.9545 1.87165L4.92715 1.86818L4.89981 1.86498L4.87246 1.86206L4.84509 1.8594L4.81771 1.85702L4.7903 1.8549L4.76288 1.85305L4.73553 1.85148L4.70817 1.85017L4.68071 1.84913L4.6534 1.84837L4.62603 1.84787L4.59868 1.84764L4.5713 1.84768L4.56581 1.84774L4.57444 2.57615L4.58997 2.57607L4.60997 2.57619L4.62996 2.57649L4.64997 2.57701L4.67 2.57771L4.69002 2.57863L4.71005 2.57973L4.7301 2.58103L4.75015 2.58253L4.7702 2.58423L4.79025 2.58613L4.81028 2.58823L4.83032 2.59054L4.85035 2.59303L4.87036 2.59572L4.89037 2.59864L4.91037 2.60172L4.93034 2.60502L4.95031 2.60853L4.97024 2.61222L4.99016 2.61613L5.01005 2.62023L5.02993 2.62452L5.04977 2.62901L5.06957 2.63372L5.08935 2.63862L5.10908 2.64371L5.12878 2.649L5.14845 2.65449L5.16808 2.66019L5.18767 2.66608L5.2072 2.67216L5.22668 2.67845L5.24612 2.68493L5.26552 2.69162L5.28484 2.6985L5.30413 2.70557L5.32334 2.71283L5.34251 2.7203L5.3616 2.72796L5.38064 2.73581L5.3996 2.74387L5.41851 2.7521L5.43734 2.76055L5.45609 2.76916L5.47477 2.77798L5.49338 2.787L5.51191 2.7962L5.53036 2.8056L5.54873 2.81518L5.567 2.82494L5.5852 2.83491L5.60331 2.84505L5.62132 2.85538L5.63925 2.8659L5.65709 2.87661L5.67481 2.88749L5.69244 2.89856L5.70997 2.90982L5.72741 2.92126L5.74473 2.93286L5.76196 2.94466L5.77907 2.95665L5.79607 2.96879L5.81296 2.98112L5.82973 2.99364L5.8464 3.00631L5.86292 3.01917L5.87935 3.03221L5.89565 3.0454L5.91183 3.05877L5.92787 3.07232L5.9438 3.08603L5.9596 3.0999L5.97527 3.11394L5.9908 3.12816L6.00618 3.14253L6.02144 3.15707L6.03656 3.17176L6.05153 3.18663L6.06638 3.20165L6.08107 3.21683L6.09563 3.23216L6.11002 3.24765L6.12428 3.2633L6.13838 3.2791L6.15233 3.29503L6.16613 3.31113L6.17977 3.32737L6.19326 3.34376L6.20658 3.3603L6.21975 3.37697L6.23275 3.3938L6.24559 3.41076L6.25827 3.42788L6.27077 3.4451L6.28312 3.46248L6.29528 3.48L6.30728 3.49764L6.3191 3.51542L6.33074 3.53332L6.34222 3.55137L6.35352 3.56953L6.36465 3.5878L6.37559 3.60621L6.38633 3.62476L6.39691 3.64339L6.4073 3.66217L6.41749 3.68105L6.42752 3.70005L6.43735 3.71917L6.44697 3.73839L6.45643 3.75774L6.46569 3.77718L6.47474 3.79671L6.4836 3.81638L6.49227 3.83612L6.50075 3.85598L6.50902 3.87593L6.5171 3.89598L6.52497 3.91612L6.53264 3.93634L6.54011 3.95668L6.54737 3.97709L6.55444 3.99759L6.5613 4.01817L6.56793 4.03885L6.57437 4.05959L6.5806 4.08042L6.58663 4.10132L6.59244 4.1223L6.59802 4.14336L6.60342 4.16448L6.60858 4.18567L6.61353 4.20692L6.61828 4.22824L6.6228 4.24963L6.6271 4.27107L6.63118 4.29256L6.63505 4.31413L6.63871 4.33575L6.64214 4.35739L6.64534 4.37912L6.64833 4.40086L6.6511 4.42267L6.65365 4.44452L6.65596 4.46642L6.65805 4.48834L6.65994 4.51031L6.66158 4.5323L6.66301 4.55433L6.66419 4.57638L6.66516 4.59847L6.6659 4.62059L6.66642 4.64272L6.6667 4.66488L6.66676 4.68707L6.66659 4.70925L6.66619 4.73145L6.66556 4.75367L6.6647 4.77591L6.66362 4.79813L6.6623 4.82037L6.66076 4.84263L6.65899 4.86487L6.65697 4.88711L6.65474 4.90935L6.65226 4.93157L6.64957 4.95381L6.64664 4.97601L6.64347 4.99822L6.64008 5.0204L6.63646 5.04256L6.63261 5.06471L6.62851 5.08683L6.62421 5.10894L6.61965 5.13101L6.61487 5.15306L6.60987 5.17507L6.60463 5.19704L6.59916 5.21898L6.59347 5.24089L6.58754 5.26275L6.58138 5.28457L6.575 5.30633L6.56839 5.32806L6.56155 5.34975L6.55446 5.37138L6.54716 5.39293L6.53963 5.41445L6.53189 5.4359L6.52391 5.45729L6.51569 5.47861L6.50727 5.49988L6.49862 5.52107L6.48974 5.54221L6.48063 5.56324L6.47131 5.58423L6.46176 5.60513L6.45199 5.62594L6.442 5.64668L6.43178 5.66734L6.42134 5.6879L6.41069 5.70838L6.39983 5.72876L6.38873 5.74905L6.37743 5.76925L6.36592 5.78936L6.35418 5.80935L6.34223 5.82927L6.33008 5.84905L6.31771 5.86875L6.30511 5.88832L6.29232 5.9078L6.27931 5.92714L6.2661 5.94639L6.25268 5.96553L6.23906 5.98453L6.22522 6.00341L6.2112 6.02218L6.19696 6.04082L6.18252 6.05932L6.16788 6.0777L6.15303 6.09595L6.138 6.11406L6.12277 6.13205L6.10733 6.14989L6.09171 6.16759L6.07589 6.18514L6.05988 6.20256L6.04368 6.21983L6.02731 6.23696L6.01073 6.25392L5.99398 6.27075L5.97702 6.2874L5.95991 6.30393L5.94258 6.32028L5.92511 6.33646L5.90744 6.3525L5.88959 6.36836L5.87158 6.38406L5.85338 6.39961L5.83502 6.41497L5.81648 6.43018L5.79779 6.4452L5.7789 6.46004L5.75986 6.47472L5.74067 6.48922L5.72131 6.50353L5.70178 6.51767L5.68211 6.53164L5.66227 6.5454L5.64228 6.55899L5.62212 6.57239L5.60182 6.58559L5.58137 6.59861L5.56079 6.61143L5.54004 6.62405L5.51917 6.63649L5.49813 6.64873L5.47698 6.66075L5.45567 6.67259L5.43423 6.68423L5.41266 6.69567L5.39095 6.70689L5.36911 6.71791L5.34716 6.72871L5.32507 6.73933L5.30285 6.74971L5.28051 6.75989L5.25807 6.76986L5.2355 6.77961L5.2128 6.78914L5.19001 6.79846L5.16711 6.80757L5.14408 6.81645L5.12097 6.82512L5.09774 6.83357L5.07441 6.84178L5.05097 6.84976L5.02745 6.85754L5.00382 6.86507L4.98011 6.87239L4.95631 6.87947L4.93241 6.88632L4.90844 6.89295L4.88437 6.89933L4.86023 6.90549L4.836 6.91141L4.81171 6.91711L4.78731 6.92256L4.76288 6.92778L4.73835 6.93276L4.71377 6.9375L4.68913 6.94202L4.66441 6.94629L4.63964 6.95031L4.61482 6.95408L4.58994 6.95763L4.56499 6.96093L4.54001 6.96399L4.51498 6.96679L4.4899 6.96937L4.46479 6.97169L4.43963 6.97377L4.41444 6.9756L4.38921 6.97718L4.36394 6.97852L4.33865 6.9796L4.31332 6.98044L4.28797 6.98103L4.26261 6.98137L4.2372 6.98147L4.2118 6.98132L4.1864 6.9809L4.16096 6.98025L4.13551 6.97933L4.11007 6.97817L4.08461 6.97676L4.05917 6.9751L4.03371 6.9732L4.00827 6.97103L3.98283 6.96861L3.95739 6.96594L3.93196 6.96302L3.90656 6.95986L3.88116 6.95643L3.85579 6.95275L3.83045 6.94882L3.80512 6.94465L3.77981 6.94021L3.75454 6.93554L3.72931 6.9306L3.70411 6.9254L3.67894 6.91997L3.65382 6.91429L3.62874 6.90835L3.6037 6.90215L3.57872 6.89571L3.55377 6.88902L3.52888 6.88208L3.50407 6.8749L3.4793 6.86747L3.45458 6.85979L3.42994 6.85184L3.40537 6.84367L3.38085 6.83524L3.35641 6.82657L3.33206 6.81765L3.30776 6.80849L3.28356 6.79907L3.25943 6.78943L3.23538 6.77952L3.21143 6.76938L3.18757 6.75901L3.1638 6.74838L3.14011 6.73752L3.11654 6.72643L3.09306 6.71509L3.06968 6.7035L3.04639 6.69168L3.02324 6.67964L3.00018 6.66735L2.97723 6.65483L2.9544 6.64208L2.93168 6.62908L2.90908 6.61587L2.88661 6.60242L2.86426 6.58874L2.84204 6.57484L2.81995 6.5607L2.798 6.54635L2.77618 6.53175L2.75449 6.51695L2.73294 6.50193L2.71154 6.48668L2.69027 6.47121L2.66915 6.45553L2.64817 6.43961L2.62736 6.42349L2.6067 6.40716L2.5862 6.3906L2.56584 6.37385L2.54564 6.35687L2.52561 6.3397L2.50575 6.3223L2.48605 6.30471L2.46652 6.28691L2.44717 6.26892L2.42798 6.25072L2.40896 6.23231L2.39013 6.21371L2.3715 6.19492L2.35303 6.17592L2.33473 6.15675L2.31663 6.13736L2.29874 6.11781L2.28101 6.09805L2.26348 6.07812L2.24616 6.05799L2.229 6.03769L2.21208 6.01721L2.19533 5.99653L2.17881 5.9757L2.16248 5.95468L2.14635 5.93349L2.13044 5.91213L2.11472 5.89061L2.09922 5.8689L2.08396 5.84705L2.06889 5.82502L2.05404 5.80283L2.03942 5.7805L2.02501 5.75799L2.01083 5.73533L1.99687 5.71252L1.98313 5.68956L1.96963 5.66646L1.95636 5.64319L1.94331 5.61981L1.9305 5.59625L1.91792 5.57258L1.90558 5.54876L1.89348 5.52481L1.88162 5.50072L1.86999 5.4765L1.85861 5.45216L1.84748 5.42767L1.83658 5.40309L1.82594 5.37837L1.81554 5.35352L1.80539 5.32857L1.79549 5.30351L1.78585 5.27832L1.77645 5.25303L1.76731 5.22765L1.75843 5.20213L1.74981 5.17653L1.74144 5.15083L1.73333 5.12502L1.72548 5.09914L1.71789 5.07315L1.71057 5.04708L1.70351 5.02091L1.69672 4.99465L1.69019 4.96833L1.68392 4.94192L1.67793 4.91543L1.6722 4.88886L1.66675 4.86224L1.66156 4.83554L1.65665 4.80877L1.652 4.78193L1.64764 4.75504L1.64354 4.7281L1.63972 4.70109L1.63617 4.67403L1.63291 4.64691L1.62991 4.61976L1.6272 4.59256L1.62476 4.56531L1.6226 4.53802L1.62072 4.51071L1.61912 4.48334L1.61781 4.45596L1.61677 4.42855L1.61601 4.40111L1.61553 4.37365L1.61534 4.34615L1.61543 4.31865L1.6158 4.29113L1.61645 4.26361L1.61739 4.23608L1.61861 4.20852L1.62012 4.18098L1.6219 4.15342L1.62398 4.12589L1.62633 4.09833L1.62897 4.07081L1.6319 4.04327L1.63511 4.01577L1.63861 3.98827L1.64239 3.96079L1.64645 3.93333L1.6508 3.90591L1.65543 3.8785L1.66034 3.85114L1.66555 3.82379L1.67103 3.79648L1.6768 3.76923L1.68285 3.742L1.68918 3.71482L1.6958 3.68768L1.7027 3.6606L1.70988 3.63358L1.71734 3.60659L1.72509 3.57969L1.73312 3.55283L1.74142 3.52604L1.75001 3.4993L1.75887 3.47266L1.76802 3.44607L1.77744 3.41957L1.78714 3.39313L1.79712 3.36678L1.80737 3.34052L1.8179 3.31433L1.8287 3.28824L1.83978 3.26225L1.85113 3.23633L1.86276 3.21053L1.87465 3.18482L1.88682 3.15921L1.89925 3.13371L1.91196 3.10832L1.92493 3.08303L1.93817 3.05788L1.95167 3.03282L1.96544 3.00789L1.97948 2.98308L1.99377 2.95838L2.00833 2.93383L2.02315 2.9094L2.03823 2.8851L2.05356 2.86094L2.06915 2.83691L2.08501 2.81303L2.10109 2.78928L2.11746 2.76569L2.13406 2.74223L2.15091 2.71893L2.16802 2.69579L2.18536 2.67279L2.20297 2.64996L2.22081 2.62728L2.2389 2.60477L2.25721 2.58244L2.27577 2.56025L2.29458 2.53824L2.31362 2.5164L2.33289 2.49475L2.3524 2.47328L2.37212 2.45197L2.3921 2.43086L2.4123 2.40991L2.43271 2.38918L2.45335 2.36861L2.47421 2.34824L2.49531 2.32808L2.51662 2.30809L2.53813 2.28833L2.55988 2.26873L2.58183 2.24937L2.60398 2.2302L2.62635 2.21124L2.64893 2.19249L2.67171 2.17394L2.69469 2.15561L2.71788 2.13751L2.74126 2.11961L2.76484 2.10195L2.78862 2.08449L2.81258 2.06726L2.83672 2.05026L2.86108 2.03349L2.8856 2.01695L2.9103 2.00066L2.93521 1.98457L2.96027 1.96874L2.98552 1.95313L3.01094 1.93777L3.03654 1.92265L3.06228 1.90778L3.08822 1.89314L3.11431 1.87876L3.14055 1.86462L3.16697 1.85074L3.19353 1.8371L3.22025 1.82372L3.24712 1.8106L3.27414 1.79773L3.30132 1.78512L3.32863 1.77277L3.35609 1.76069L3.38369 1.74886L3.41141 1.73731L3.43928 1.72601L3.46725 1.71499L3.49538 1.70423L3.52362 1.69375L3.552 1.68353L3.58049 1.67359L3.6091 1.66393L3.63781 1.65454L3.66663 1.64543L3.69558 1.63659L3.72462 1.62804L3.75378 1.61976L3.78301 1.61177L3.81236 1.60406L3.8418 1.59664L3.87134 1.5895L3.90096 1.58265L3.93067 1.57608L3.96045 1.5698L3.99032 1.56382L4.02028 1.55812L4.05029 1.55271L4.08038 1.5476L4.11055 1.54278L4.14077 1.53825L4.17106 1.53402L4.2014 1.53008L4.21272 1.52872ZM4.22552 2.6091L4.21679 1.87268L4.19192 1.87616L4.16519 1.88017L4.13843 1.88444L4.11185 1.88896L4.08522 1.89376L4.05873 1.8988L4.0323 1.9041L4.00596 1.90964L3.97968 1.91545L3.95346 1.92152L3.92731 1.92784L3.90128 1.93441L3.87527 1.94124L3.85028 1.94806L3.82366 1.95562L3.79795 1.96319L3.77236 1.971L3.7469 1.97905L3.7215 1.98735L3.69619 1.99591L3.67099 2.0047L3.64593 2.01371L3.62097 2.02299L3.59612 2.03248L3.57136 2.04224L3.5468 2.05221L3.52223 2.06244L3.49786 2.07288L3.4736 2.08356L3.44951 2.09446L3.42548 2.1056L3.40158 2.11698L3.37789 2.12855L3.35424 2.14038L3.33084 2.15241L3.30748 2.1647L3.28434 2.17715L3.26124 2.18989L3.23837 2.20278L3.21566 2.21591L3.19306 2.22927L3.17063 2.24282L3.14831 2.25661L3.12622 2.27056L3.10423 2.28476L3.08245 2.29915L3.06082 2.31373L3.03934 2.32854L3.018 2.34355L2.9969 2.3587L2.97592 2.37412L2.95511 2.38971L2.93449 2.40549L2.91406 2.42144L2.89376 2.43762L2.87369 2.45395L2.8538 2.47048L2.83405 2.48723L2.81456 2.50409L2.7952 2.52119L2.77603 2.53845L2.75706 2.55587L2.73831 2.57346L2.71969 2.59126L2.70134 2.60917L2.68316 2.62728L2.66515 2.64557L2.64737 2.664L2.62978 2.68262L2.6124 2.70137L2.59523 2.72028L2.57825 2.73935L2.56146 2.7586L2.54496 2.77795L2.5286 2.79748L2.51246 2.81717L2.49655 2.83697L2.48087 2.8569L2.46535 2.87702L2.45009 2.89724L2.43503 2.91762L2.42021 2.93812L2.40559 2.95876L2.39122 2.9795L2.37706 3.00038L2.36311 3.0214L2.34939 3.04254L2.33592 3.06377L2.32267 3.08513L2.30964 3.10665L2.29683 3.12822L2.28427 3.14992L2.27192 3.17175L2.25984 3.19362L2.24797 3.21565L2.2363 3.2378L2.22493 3.25998L2.21376 3.28232L2.20284 3.30473L2.19215 3.3272L2.1817 3.3498L2.17149 3.37246L2.16152 3.39521L2.15178 3.41804L2.14231 3.44095L2.13307 3.46393L2.12406 3.48701L2.11529 3.51015L2.10679 3.53334L2.0985 3.55663L2.0905 3.57993L2.0827 3.60334L2.07517 3.6268L2.06788 3.65031L2.06084 3.67387L2.05404 3.69748L2.0475 3.72113L2.0412 3.74486L2.03514 3.7686L2.02934 3.7924L2.02379 3.81624L2.01848 3.8401L2.01342 3.86402L2.00862 3.88796L2.00406 3.91191L1.99975 3.93592L1.99569 3.95994L1.99187 3.98399L1.98832 4.00802L1.985 4.03211L1.98194 4.05619L1.97913 4.0803L1.97657 4.10441L1.97425 4.12854L1.97219 4.15266L1.97037 4.17677L1.96881 4.20092L1.96749 4.22504L1.96642 4.24915L1.9656 4.27326L1.96503 4.29735L1.9647 4.32143L1.96462 4.34552L1.96479 4.36957L1.96521 4.3936L1.96587 4.41762L1.96678 4.44159L1.96794 4.46556L1.96934 4.4895L1.97098 4.51338L1.97287 4.53726L1.975 4.56108L1.97737 4.58486L1.97999 4.60861L1.98285 4.63232L1.98595 4.65598L1.98928 4.67958L1.99287 4.70315L1.99668 4.72663L2.00074 4.75009L2.00504 4.77349L2.00957 4.7968L2.01433 4.82009L2.01933 4.84328L2.02457 4.86643L2.03004 4.88947L2.03574 4.91248L2.04168 4.9354L2.04785 4.95825L2.05423 4.98101L2.06086 5.0037L2.0677 5.02631L2.07479 5.04883L2.08209 5.07128L2.08962 5.09362L2.09738 5.11586L2.10534 5.13802L2.11354 5.16009L2.12196 5.18206L2.13059 5.20392L2.13944 5.22568L2.14851 5.24735L2.15779 5.2689L2.1673 5.29034L2.177 5.31169L2.18693 5.3329L2.19706 5.35401L2.20739 5.37502L2.21795 5.39588L2.2287 5.41666L2.23966 5.43729L2.25083 5.4578L2.26218 5.47819L2.27375 5.49845L2.28551 5.51857L2.29748 5.53857L2.30964 5.55844L2.32199 5.57817L2.33452 5.59776L2.34727 5.61723L2.36018 5.63652L2.37331 5.65571L2.38659 5.67473L2.40008 5.69362L2.41375 5.71235L2.4276 5.73093L2.44163 5.74936L2.45584 5.76765L2.47021 5.78578L2.48477 5.80375L2.4995 5.82157L2.51441 5.83923L2.52948 5.85671L2.54473 5.87407L2.56012 5.89122L2.57569 5.90824L2.59142 5.92507L2.60731 5.94174L2.62336 5.95825L2.63957 5.97458L2.65593 5.99074L2.67245 6.00673L2.68912 6.02254L2.70591 6.03817L2.72289 6.05365L2.73999 6.06891L2.75723 6.084L2.77463 6.09893L2.79217 6.11366L2.80983 6.12822L2.82763 6.14257L2.84557 6.15675L2.86363 6.17073L2.88183 6.18455L2.90016 6.19816L2.91859 6.21157L2.93715 6.2248L2.95585 6.23783L2.97466 6.25068L2.9936 6.26333L3.01264 6.27578L3.03179 6.28803L3.05106 6.3001L3.07042 6.31195L3.0899 6.32361L3.10949 6.33506L3.12916 6.34631L3.14896 6.35736L3.16881 6.36821L3.18881 6.37886L3.20887 6.3893L3.22902 6.39952L3.24927 6.40956L3.26963 6.41937L3.29004 6.429L3.31052 6.43839L3.33113 6.4476L3.35176 6.45657L3.3725 6.46534L3.39331 6.47392L3.4142 6.48226L3.43512 6.4904L3.45614 6.49833L3.47722 6.50605L3.49835 6.51356L3.51955 6.52084L3.54081 6.52792L3.56212 6.53477L3.58348 6.54142L3.6049 6.54784L3.62636 6.55405L3.64786 6.56005L3.66941 6.56583L3.691 6.57141L3.71263 6.57675L3.7343 6.58188L3.75601 6.58679L3.77775 6.5915L3.79952 6.59598L3.8213 6.60023L3.84314 6.60427L3.86496 6.6081L3.88684 6.61172L3.90871 6.61509L3.93061 6.61828L3.95253 6.62123L3.97444 6.62397L3.99638 6.62649L4.01831 6.6288L4.04027 6.63087L4.06222 6.63274L4.08417 6.63438L4.10613 6.63583L4.12806 6.63703L4.15 6.63804L4.17195 6.63882L4.19387 6.63939L4.21576 6.63973L4.23766 6.63987L4.25954 6.63979L4.2814 6.63949L4.30324 6.63899L4.32504 6.63827L4.34684 6.63733L4.36859 6.63617L4.39031 6.63482L4.412 6.63324L4.43367 6.63144L4.45528 6.62944L4.47687 6.62723L4.49842 6.62481L4.51992 6.62218L4.54138 6.61934L4.56278 6.61631L4.58414 6.61305L4.60545 6.60959L4.62668 6.60593L4.64789 6.60204L4.66902 6.59796L4.6901 6.59369L4.71114 6.58919L4.73207 6.58451L4.75295 6.57963L4.77376 6.57452L4.79452 6.56924L4.81519 6.56375L4.83579 6.55805L4.85632 6.55217L4.87677 6.54609L4.89712 6.53982L4.9174 6.53334L4.93762 6.52667L4.95772 6.51981L4.97775 6.51275L4.99769 6.50551L5.01752 6.49808L5.03727 6.49046L5.05692 6.48265L5.07649 6.47464L5.09594 6.46646L5.11529 6.4581L5.13455 6.44956L5.15369 6.44083L5.17275 6.43191L5.19169 6.42282L5.21048 6.41358L5.22923 6.40411L5.24781 6.3945L5.26632 6.38469L5.28465 6.37474L5.30291 6.3646L5.32105 6.35429L5.33904 6.34381L5.35693 6.33316L5.3747 6.32235L5.3923 6.31138L5.40984 6.30023L5.42718 6.28895L5.44443 6.27747L5.46156 6.26583L5.47852 6.25405L5.49533 6.24214L5.51206 6.23002L5.5286 6.21781L5.54503 6.2054L5.56132 6.19284L5.57741 6.18017L5.59344 6.1673L5.60929 6.15431L5.62494 6.14119L5.64053 6.12787L5.65591 6.11448L5.67113 6.10095L5.68626 6.08721L5.70117 6.07341L5.71595 6.05944L5.73059 6.04534L5.74504 6.03112L5.75935 6.01675L5.77351 6.00227L5.7875 5.98765L5.80129 5.97292L5.81496 5.95805L5.82847 5.94308L5.84177 5.928L5.85496 5.91276L5.86794 5.89743L5.88074 5.882L5.89342 5.86641L5.90588 5.85078L5.91819 5.83498L5.93033 5.81911L5.9423 5.8031L5.95408 5.78702L5.96566 5.77085L5.97712 5.75452L5.98836 5.73815L5.99943 5.72167L6.01035 5.70507L6.02102 5.68843L6.03158 5.67166L6.04193 5.6548L6.05211 5.63787L6.06207 5.62085L6.07191 5.60372L6.08149 5.58659L6.09095 5.56929L6.10019 5.55196L6.10922 5.53456L6.11812 5.51703L6.12677 5.49954L6.13529 5.48185L6.14356 5.46422L6.15172 5.4464L6.15961 5.42862L6.16736 5.41069L6.17491 5.39278L6.18225 5.37479L6.18941 5.35672L6.19639 5.3386L6.20314 5.32047L6.20975 5.30224L6.21611 5.28398L6.22231 5.26568L6.22831 5.24733L6.23412 5.22892L6.23974 5.21049L6.24516 5.19205L6.25038 5.17352L6.25539 5.155L6.26023 5.13642L6.26486 5.11782L6.2693 5.09922L6.27355 5.08052L6.27759 5.06185L6.28146 5.04315L6.2851 5.02446L6.28857 5.00572L6.29183 4.98691L6.2949 4.96818L6.29777 4.94939L6.30044 4.93058L6.30292 4.91181L6.30521 4.893L6.3073 4.87413L6.30919 4.8554L6.3109 4.83651L6.31241 4.8177L6.31371 4.79893L6.31483 4.7801L6.31574 4.76131L6.31647 4.74254L6.317 4.72371L6.31733 4.705L6.31748 4.68621L6.31742 4.66748L6.31719 4.64874L6.31676 4.63009L6.31613 4.61139L6.31531 4.59273L6.3143 4.57415L6.3131 4.55551L6.3117 4.53693L6.31014 4.51845L6.30837 4.49991L6.30641 4.48148L6.30425 4.46301L6.30193 4.44464L6.29941 4.42629L6.29671 4.40795L6.29381 4.3897L6.29074 4.3715L6.28748 4.35334L6.28403 4.33523L6.28039 4.31711L6.27658 4.29912L6.2726 4.28118L6.26843 4.26327L6.26406 4.2454L6.25954 4.22767L6.25482 4.20989L6.24994 4.19226L6.24487 4.17465L6.23963 4.15716L6.23422 4.13968L6.22861 4.12229L6.22286 4.105L6.21693 4.08777L6.2108 4.07056L6.20455 4.05351L6.19808 4.03649L6.19147 4.01959L6.18469 4.00272L6.17773 3.98593L6.17062 3.96929L6.16332 3.95267L6.15589 3.93619L6.14829 3.9198L6.14051 3.90345L6.13257 3.88719L6.12451 3.87109L6.11623 3.85503L6.10785 3.83911L6.09929 3.8233L6.09056 3.8075L6.08172 3.79189L6.07269 3.77634L6.06352 3.76092L6.05418 3.74556L6.04475 3.73037L6.03511 3.71522L6.02537 3.70024L6.01546 3.68536L6.00542 3.67059L5.9952 3.6559L5.98487 3.64136L5.97443 3.62695L5.9638 3.6126L5.95307 3.59842L5.94216 3.58434L5.93119 3.57041L5.92002 3.55655L5.90874 3.54285L5.89732 3.52926L5.88579 3.51579L5.87415 3.50248L5.86233 3.48926L5.85044 3.4762L5.8384 3.46325L5.82628 3.45048L5.81397 3.43777L5.8016 3.42525L5.78906 3.4128L5.77644 3.40055L5.76373 3.38843L5.75089 3.37642L5.73791 3.36455L5.72484 3.35285L5.71167 3.34128L5.69835 3.32981L5.68502 3.31856L5.67151 3.30738L5.65793 3.29638L5.64424 3.28554L5.63044 3.27479L5.61657 3.26423L5.60264 3.25384L5.58854 3.24355L5.57434 3.2334L5.56014 3.22347L5.54575 3.21361L5.53138 3.20399L5.51688 3.19446L5.50228 3.18509L5.48759 3.17586L5.47288 3.16683L5.45801 3.15791L5.44313 3.14918L5.42811 3.14057L5.41312 3.13216L5.39798 3.12389L5.38278 3.11576L5.36751 3.10779L5.35221 3.10001L5.33681 3.09235L5.32134 3.08486L5.30584 3.07755L5.29031 3.0704L5.27461 3.06337L5.25898 3.05654L5.24324 3.04987L5.22742 3.04334L5.21158 3.03699L5.19573 3.03082L5.1798 3.02479L5.16377 3.01891L5.14778 3.01323L5.1317 3.00768L5.11557 3.00231L5.09947 2.9971L5.08329 2.99207L5.06711 2.98719L5.0508 2.98247L5.03454 2.97793L5.01825 2.97355L5.00192 2.96934L4.98557 2.96528L4.96914 2.96139L4.95275 2.95767L4.93636 2.95413L4.91989 2.95074L4.90339 2.9475L4.88698 2.94447L4.87046 2.94157L4.85397 2.93885L4.83741 2.93627L4.82095 2.93389L4.80435 2.93164L4.78786 2.9296L4.77132 2.9277L4.75478 2.92596L4.73826 2.9244L4.7217 2.92299L4.70521 2.92175L4.68863 2.92068L4.67213 2.91977L4.65566 2.91903L4.63908 2.91844L4.62264 2.91802L4.60617 2.91777L4.58973 2.91767L4.57848 2.91771L4.587 3.6372L4.59209 3.63722L4.60154 3.63735L4.61101 3.63758L4.6205 3.63789L4.62999 3.63832L4.6395 3.63884L4.64901 3.63945L4.65854 3.64017L4.66807 3.64099L4.67762 3.64191L4.68717 3.64292L4.69671 3.64402L4.70628 3.64524L4.71583 3.64656L4.7254 3.64797L4.73496 3.64949L4.74453 3.65111L4.75408 3.65283L4.76364 3.65466L4.77319 3.65656L4.78274 3.6586L4.79229 3.66072L4.80183 3.66295L4.81134 3.66527L4.82087 3.66769L4.83038 3.67023L4.83987 3.67286L4.84936 3.67558L4.85883 3.67842L4.86829 3.68136L4.87772 3.68441L4.88715 3.68755L4.89655 3.69079L4.90594 3.69412L4.9153 3.69757L4.92464 3.70112L4.93396 3.70476L4.94326 3.70851L4.95252 3.71236L4.96176 3.71631L4.97099 3.72037L4.98017 3.72452L4.98934 3.72877L4.99847 3.73313L5.00756 3.73758L5.01663 3.74213L5.02564 3.7468L5.03464 3.75154L5.04359 3.7564L5.05251 3.76136L5.06139 3.76641L5.07024 3.77155L5.07902 3.7768L5.08779 3.78215L5.0965 3.7876L5.10517 3.79315L5.11378 3.79877L5.12236 3.8045L5.1309 3.81036L5.13938 3.81628L5.1478 3.8223L5.15619 3.82842L5.16451 3.83463L5.17278 3.84094L5.181 3.84735L5.18917 3.85384L5.19727 3.86044L5.20531 3.86711L5.21332 3.87389L5.22125 3.88075L5.22912 3.88771L5.23693 3.89476L5.24467 3.90191L5.25235 3.90913L5.25995 3.91645L5.26752 3.92386L5.27499 3.93135L5.2824 3.93893L5.28976 3.9466L5.29702 3.95435L5.30422 3.9622L5.31135 3.97013L5.31842 3.97814L5.32539 3.98623L5.33229 3.99441L5.33913 4.00266L5.34588 4.01101L5.35255 4.01943L5.35915 4.02793L5.36566 4.03653L5.3721 4.04518L5.37845 4.05393L5.3847 4.06273L5.39089 4.07163L5.39699 4.08061L5.403 4.08966L5.40892 4.09877L5.41477 4.10797L5.42051 4.11723L5.42617 4.12657L5.43173 4.13599L5.4372 4.14546L5.4426 4.15501L5.44788 4.16463L5.45308 4.17431L5.45819 4.18407L5.46318 4.19388L5.4681 4.20375L5.4729 4.2137L5.47761 4.22373L5.48222 4.23379L5.48673 4.24393L5.49116 4.25412L5.49546 4.26438L5.49967 4.27469L5.50377 4.28505L5.50777 4.29548L5.51168 4.30596L5.51547 4.3165L5.51915 4.32709L5.52273 4.33773L5.5262 4.34842L5.52956 4.35917L5.53281 4.36995L5.53596 4.3808L5.53899 4.3917L5.54192 4.40262L5.54474 4.41359L5.54743 4.42463L5.55002 4.4357L5.5525 4.44679L5.55486 4.45796L5.55711 4.46915L5.55923 4.48035L5.56125 4.49163L5.56315 4.50293L5.56494 4.51426L5.5666 4.52563L5.56815 4.53703L5.56958 4.54846L5.57089 4.55994L5.57209 4.57143L5.57316 4.58294L5.57411 4.59449L5.57495 4.60607L5.57565 4.61766L5.57625 4.62928L5.5767 4.64093L5.57707 4.65259L5.57727 4.66427L5.57739 4.67598L5.57735 4.68768L5.57722 4.69942L5.57695 4.71117L5.57655 4.72293L5.57604 4.73471L5.57539 4.74649L5.57463 4.75828L5.57373 4.77008L5.5727 4.7819L5.57156 4.79371L5.5703 4.80553L5.56889 4.81734L5.56737 4.82918L5.56573 4.84101L5.56395 4.85283L5.56205 4.86464L5.56001 4.87646L5.55786 4.88827L5.55557 4.90009L5.55317 4.91189L5.55061 4.92368L5.54795 4.93546L5.54516 4.94724L5.54223 4.959L5.53918 4.97075L5.53602 4.98247L5.5327 4.99419L5.52927 5.00588L5.52571 5.01756L5.52203 5.02922L5.51822 5.04085L5.51427 5.05247L5.51021 5.06406L5.506 5.07561L5.50167 5.08716L5.49723 5.09865L5.49266 5.11014L5.48795 5.12157L5.48313 5.13299L5.47818 5.14437L5.47309 5.15572L5.46789 5.16702L5.46255 5.17829L5.45708 5.18953L5.45152 5.20072L5.4458 5.21187L5.43997 5.22298L5.434 5.23403L5.42792 5.24505L5.42173 5.25602L5.4154 5.26694L5.40894 5.27782L5.40239 5.28863L5.39568 5.29942L5.38887 5.31013L5.38194 5.32078L5.37487 5.33139L5.3677 5.34193L5.3604 5.35243L5.35299 5.36286L5.34544 5.37322L5.3378 5.38353L5.33003 5.39377L5.32214 5.40394L5.31413 5.41406L5.30601 5.42411L5.29778 5.43407L5.28943 5.44398L5.28097 5.45382L5.27238 5.46357L5.26369 5.47326L5.25488 5.48288L5.24596 5.49241L5.23695 5.50186L5.2278 5.51126L5.21856 5.52056L5.2092 5.52976L5.19975 5.53891L5.19016 5.54796L5.18048 5.55692L5.17071 5.5658L5.16082 5.5746L5.15083 5.58331L5.14073 5.59193L5.13053 5.60044L5.12022 5.60889L5.10982 5.61723L5.09932 5.62547L5.08872 5.63362L5.07803 5.64168L5.06723 5.64965L5.05634 5.6575L5.04535 5.66526L5.03428 5.67294L5.02309 5.68049L5.01183 5.68796L5.00047 5.69529L4.98901 5.70255L4.97747 5.7097L4.96584 5.71673L4.95412 5.72365L4.94232 5.73047L4.93043 5.73718L4.91845 5.74377L4.9064 5.75027L4.89426 5.75664L4.88205 5.76291L4.86974 5.76904L4.85737 5.77509L4.8449 5.78099L4.83236 5.78679L4.81977 5.79247L4.80707 5.79801L4.79433 5.80346L4.7815 5.80878L4.7686 5.81396L4.75562 5.81903L4.74258 5.82399L4.72947 5.82881L4.7163 5.83352L4.70308 5.83809L4.68978 5.84253L4.67642 5.84686L4.663 5.85103L4.64953 5.85509L4.63598 5.85903L4.62239 5.86283L4.60875 5.8665L4.59504 5.87003L4.58128 5.87344L4.56747 5.8767L4.55361 5.87984L4.5397 5.88284L4.52575 5.88571L4.51174 5.88844L4.4977 5.89103L4.48362 5.89349L4.46947 5.89581L4.45532 5.89799L4.4411 5.90003L4.42686 5.90193L4.41257 5.9037L4.39826 5.90532L4.38391 5.90679L4.36952 5.90814L4.35511 5.90933L4.34067 5.91039L4.32618 5.91129L4.3117 5.91207L4.29718 5.9127L4.28264 5.91317L4.26806 5.9135L4.25348 5.91369L4.23888 5.91375L4.22426 5.91365L4.20963 5.9134L4.19497 5.913L4.18032 5.91247L4.16564 5.91178L4.15095 5.91094L4.13626 5.90997L4.12156 5.90885L4.10687 5.90757L4.09216 5.90614L4.07747 5.90458L4.06275 5.90285L4.04806 5.90098L4.03335 5.89896L4.01866 5.8968L4.00396 5.89448L3.98929 5.89202L3.97461 5.88941L3.95996 5.88665L3.9453 5.88375L3.93067 5.88068L3.91605 5.87748L3.90145 5.87411L3.88687 5.8706L3.8723 5.86696L3.85775 5.86315L3.84325 5.85919L3.82875 5.85509L3.8143 5.85084L3.79986 5.84644L3.78545 5.84188L3.77108 5.83719L3.75673 5.83235L3.74244 5.82736L3.72817 5.82221L3.71393 5.81692L3.69975 5.81149L3.68559 5.8059L3.67149 5.80016L3.65742 5.7943L3.64342 5.78827L3.62945 5.7821L3.61552 5.77579L3.60166 5.76933L3.58783 5.76272L3.57407 5.75597L3.56037 5.74907L3.54672 5.74204L3.53313 5.73486L3.5196 5.72754L3.50613 5.72007L3.49273 5.71246L3.47937 5.70471L3.46611 5.69682L3.4529 5.68879L3.43977 5.68062L3.4267 5.67231L3.4137 5.66387L3.40078 5.65527L3.38794 5.64654L3.37519 5.63768L3.36249 5.62869L3.34988 5.61956L3.33736 5.61028L3.32491 5.60088L3.31256 5.59135L3.30029 5.58167L3.28811 5.57188L3.27601 5.56195L3.26401 5.55189L3.2521 5.54169L3.24028 5.53136L3.22856 5.52092L3.21693 5.51034L3.2054 5.49963L3.19397 5.48881L3.18265 5.47785L3.17141 5.46678L3.1603 5.45557L3.14928 5.44425L3.13836 5.4328L3.12756 5.42125L3.11686 5.40955L3.10629 5.39775L3.09581 5.38584L3.08546 5.3738L3.07521 5.36166L3.06507 5.34938L3.05506 5.337L3.04517 5.32451L3.03539 5.31192L3.02573 5.29921L3.0162 5.28638L3.00681 5.27346L2.99753 5.26042L2.98836 5.24727L2.97933 5.23403L2.97043 5.22069L2.96166 5.20724L2.95303 5.19369L2.94451 5.18004L2.93614 5.1663L2.92789 5.15245L2.91979 5.13851L2.91183 5.12447L2.90399 5.11035L2.8963 5.09613L2.88875 5.08182L2.88134 5.06741L2.87406 5.05293L2.86693 5.03837L2.85995 5.02369L2.85311 5.00896L2.84642 4.99414L2.83989 4.97923L2.83348 4.96424L2.82723 4.94918L2.82113 4.93403L2.81519 4.91882L2.80939 4.90352L2.80377 4.88816L2.79828 4.87272L2.79295 4.85723L2.78776 4.84166L2.78275 4.82601L2.77789 4.81031L2.77319 4.79455L2.76863 4.77871L2.76425 4.76282L2.76004 4.74687L2.75596 4.73086L2.75207 4.7148L2.74833 4.69869L2.74475 4.68251L2.74134 4.66629L2.7381 4.65002L2.73501 4.63371L2.7321 4.61734L2.72935 4.60093L2.72678 4.58448L2.72436 4.56798L2.72211 4.55146L2.72005 4.53488L2.71815 4.51828L2.71641 4.50162L2.71485 4.48495L2.71346 4.46823L2.71224 4.4515L2.71119 4.43473L2.71032 4.41794L2.70961 4.40113L2.70908 4.38428L2.70873 4.36742L2.70856 4.35055L2.70854 4.33365L2.70871 4.31673L2.70908 4.2998L2.70959 4.28286L2.7103 4.2659L2.71117 4.24894L2.71222 4.23198L2.71344 4.215L2.71485 4.19802L2.71643 4.18104L2.71819 4.16406L2.72013 4.14708L2.72225 4.1301L2.72453 4.11314L2.72701 4.09618L2.72966 4.07922L2.7325 4.06227L2.73549 4.04533L2.73867 4.02841L2.74205 4.0115L2.74559 3.99462L2.74931 3.97775L2.75319 3.96091L2.75727 3.9441L2.76152 3.92729L2.76596 3.91052L2.77057 3.89379L2.77536 3.87707L2.78031 3.86038L2.78546 3.84374L2.79078 3.82713L2.79626 3.81055L2.80194 3.79402L2.80779 3.77752L2.81382 3.76107L2.82001 3.74466L2.82639 3.72831L2.83295 3.712L2.83968 3.69573L2.84658 3.67953L2.85365 3.66337L2.86091 3.64726L2.86832 3.63122L2.87592 3.61523L2.88368 3.59931L2.89163 3.58344L2.89973 3.56764L2.90802 3.55192L2.91646 3.53625L2.92509 3.52067L2.93388 3.50513L2.94283 3.48968L2.95196 3.47432L2.96126 3.45902L2.97071 3.44379L2.98036 3.42866L2.99015 3.41358L3.0001 3.3986L3.01022 3.38372L3.02051 3.36891L3.03095 3.3542L3.04157 3.33958L3.05234 3.32504L3.06326 3.3106L3.07435 3.29627L3.08559 3.28201L3.09701 3.26787L3.10857 3.25381L3.12028 3.23988L3.13215 3.22602L3.14417 3.21228L3.15635 3.19865L3.16868 3.18512L3.18116 3.17173L3.1938 3.15842L3.20659 3.14524L3.21951 3.13216L3.23258 3.1192L3.24581 3.10636L3.25917 3.09365L3.27268 3.08105L3.28632 3.06857L3.3001 3.05622L3.31403 3.04399L3.32811 3.0319L3.34231 3.01992L3.35666 3.00808L3.37113 2.99638L3.38574 2.98479L3.40048 2.97336L3.41536 2.96206L3.43036 2.95089L3.44549 2.93986L3.46075 2.92897L3.47613 2.91823L3.49165 2.90761L3.50729 2.89715L3.52303 2.88684L3.53891 2.87668L3.55492 2.86666L3.57102 2.85679L3.58726 2.84707L3.60359 2.8375L3.62005 2.82809L3.63661 2.81882L3.65329 2.80971L3.67008 2.80078L3.68696 2.79199L3.70396 2.78336L3.72106 2.7749L3.73827 2.76659L3.75557 2.75845L3.77297 2.75047L3.79046 2.74265L3.80805 2.73501L3.82576 2.72752L3.84354 2.7202L3.86139 2.71307L3.87937 2.7061L3.89741 2.6993L3.91554 2.69266L3.93376 2.68622L3.95207 2.67993L3.97044 2.67384L3.98891 2.66791L4.00743 2.66215L4.02605 2.65659L4.04473 2.6512L4.06348 2.64599L4.08231 2.64096L4.10119 2.6361L4.12015 2.63143L4.13917 2.62695L4.15827 2.62267L4.1774 2.61855L4.19661 2.61462L4.21586 2.61089L4.22552 2.6091ZM4.46219 3.99271L4.24254 4.0452L4.22964 2.95712L4.21929 2.95945L4.2037 2.96313L4.18813 2.96696L4.17268 2.97092L4.15724 2.97504L4.1419 2.97931L4.12656 2.98375L4.11137 2.98828L4.09614 2.99301L4.08111 2.99783L4.06603 3.00284L4.05105 3.00799L4.03615 3.01327L4.0213 3.01868L4.00659 3.02422L3.9919 3.02994L3.97728 3.03577L3.96276 3.04174L3.94826 3.04787L3.93395 3.05409L3.91963 3.06049L3.90546 3.06699L3.8913 3.07366L3.87727 3.08042L3.86328 3.08734L3.84945 3.09437L3.83567 3.10154L3.82198 3.10884L3.8084 3.11625L3.79488 3.1238L3.78147 3.13148L3.7682 3.13925L3.75492 3.1472L3.74181 3.15522L3.72881 3.16338L3.71589 3.17165L3.70305 3.18005L3.69034 3.18857L3.67772 3.19721L3.6652 3.20593L3.65281 3.21478L3.64048 3.22375L3.62829 3.23284L3.6162 3.24203L3.60422 3.25133L3.59236 3.2607L3.58062 3.27021L3.56896 3.27984L3.55741 3.28958L3.54602 3.29937L3.53471 3.3093L3.52353 3.31931L3.51246 3.32943L3.5015 3.33966L3.49067 3.34997L3.47996 3.36036L3.46935 3.37087L3.45889 3.38145L3.44854 3.39214L3.43832 3.40289L3.42818 3.41379L3.41822 3.42471L3.40837 3.43575L3.39863 3.44688L3.38904 3.45804L3.37955 3.46934L3.37023 3.48066L3.36099 3.49214L3.35192 3.50363L3.34294 3.51523L3.33412 3.52692L3.32543 3.53864L3.31685 3.55043L3.30843 3.56231L3.30012 3.57427L3.29194 3.58628L3.28392 3.59838L3.27603 3.6105L3.26827 3.6227L3.26063 3.63499L3.25316 3.6473L3.24579 3.65973L3.23858 3.67213L3.23149 3.68465L3.22454 3.69721L3.21775 3.70981L3.21108 3.72246L3.20457 3.73517L3.19816 3.74796L3.19193 3.76073L3.18581 3.77361L3.17985 3.7865L3.17404 3.79944L3.16834 3.81241L3.16279 3.82545L3.1574 3.83848L3.15214 3.8516L3.14703 3.86473L3.14204 3.87789L3.13722 3.89106L3.13253 3.90431L3.12797 3.91757L3.12357 3.93085L3.1193 3.94416L3.11519 3.95752L3.1112 3.97087L3.10739 3.98423L3.1037 3.99765L3.10013 4.01109L3.09674 4.02452L3.09348 4.03798L3.09036 4.05145L3.08738 4.06494L3.08456 4.07845L3.08188 4.09195L3.07932 4.10546L3.07692 4.11901L3.07467 4.13252L3.07256 4.14605L3.07057 4.15962L3.06874 4.17313L3.06707 4.1867L3.06552 4.20021L3.06411 4.21376L3.06286 4.22733L3.06173 4.24084L3.06076 4.25437L3.05992 4.2679L3.05922 4.28139L3.05866 4.29489L3.05824 4.30836L3.05798 4.32185L3.05783 4.33531L3.05784 4.34874L3.05798 4.36216L3.05826 4.37558L3.05868 4.38895L3.05924 4.40231L3.05992 4.41565L3.06076 4.42895L3.06173 4.44224L3.06284 4.4555L3.06408 4.46873L3.06545 4.48195L3.06695 4.49508L3.06859 4.50825L3.07036 4.52133L3.07229 4.53442L3.07433 4.54743L3.0765 4.56043L3.07881 4.57341L3.08125 4.58631L3.08382 4.59919L3.08651 4.612L3.08935 4.62481L3.0923 4.63754L3.09539 4.65025L3.09859 4.66286L3.10194 4.6755L3.10539 4.68802L3.10897 4.70054L3.11269 4.71297L3.11652 4.72537L3.12049 4.7377L3.12456 4.74996L3.12878 4.76221L3.1331 4.77437L3.13754 4.78645L3.1421 4.79851L3.14678 4.8105L3.15159 4.82241L3.1565 4.83427L3.16152 4.84604L3.16668 4.85778L3.17194 4.86944L3.17731 4.88103L3.1828 4.89254L3.18839 4.90398L3.19412 4.91539L3.19992 4.92667L3.20584 4.9379L3.21188 4.94907L3.21804 4.96014L3.22429 4.97115L3.23064 4.98209L3.2371 4.99292L3.24367 5.0037L3.25032 5.01439L3.25709 5.02499L3.26397 5.03553L3.27092 5.04597L3.27799 5.05636L3.28514 5.06659L3.2924 5.07681L3.29976 5.08691L3.30719 5.09691L3.31476 5.10686L3.32238 5.11669L3.3301 5.12643L3.33791 5.13609L3.34582 5.14568L3.35378 5.15513L3.36188 5.16453L3.37004 5.17383L3.37827 5.18301L3.38664 5.19212L3.39502 5.2011L3.40352 5.21004L3.4121 5.21884L3.42073 5.22755L3.42948 5.23616L3.43828 5.24468L3.44717 5.25311L3.45612 5.26142L3.46516 5.26963L3.47427 5.27775L3.48343 5.28575L3.49267 5.29366L3.50197 5.30147L3.51135 5.30917L3.5208 5.31678L3.53033 5.32427L3.53988 5.33164L3.54952 5.33892L3.55922 5.34611L3.56898 5.35318L3.57879 5.36013L3.58867 5.36699L3.59859 5.37374L3.60858 5.38037L3.6186 5.38689L3.62869 5.39331L3.63886 5.39964L3.64904 5.40581L3.65927 5.41191L3.66958 5.41789L3.67989 5.42375L3.69026 5.4295L3.70072 5.43516L3.71119 5.44069L3.72169 5.4461L3.73222 5.4514L3.74284 5.4566L3.75344 5.46167L3.76413 5.46664L3.77482 5.4715L3.78553 5.47623L3.79631 5.48086L3.80712 5.48538L3.81792 5.48978L3.82879 5.49407L3.83967 5.49822L3.85061 5.50228L3.86151 5.50623L3.8725 5.51006L3.88346 5.51375L3.89446 5.51735L3.90549 5.52084L3.91655 5.52422L3.9276 5.52746L3.93867 5.5306L3.94978 5.53361L3.96089 5.53653L3.972 5.53931L3.98313 5.542L3.99426 5.54455L4.00541 5.54699L4.01658 5.54933L4.02775 5.55154L4.03891 5.55366L4.05008 5.55564L4.06127 5.55753L4.07245 5.55928L4.08364 5.56094L4.09479 5.56246L4.10598 5.56387L4.11714 5.56519L4.12833 5.56639L4.1395 5.56746L4.15067 5.56843L4.16181 5.56929L4.17294 5.57003L4.18409 5.57066L4.1952 5.57117L4.20629 5.57159L4.21742 5.57188L4.22848 5.57207L4.23953 5.57214L4.25058 5.57211L4.2616 5.57197L4.27263 5.57171L4.28363 5.57134L4.29457 5.57089L4.30551 5.5703L4.31646 5.56961L4.32733 5.56881L4.33821 5.56791L4.34903 5.5669L4.35986 5.5658L4.37064 5.56456L4.38137 5.56324L4.39212 5.56182L4.40279 5.56027L4.41343 5.55863L4.42408 5.5569L4.43466 5.55505L4.4452 5.55311L4.45572 5.55105L4.4662 5.54889L4.4766 5.54665L4.48697 5.5443L4.49734 5.54184L4.50765 5.53929L4.5179 5.53666L4.52811 5.53392L4.53827 5.53108L4.54843 5.52812L4.55849 5.52509L4.56848 5.52197L4.5785 5.51873L4.58841 5.51541L4.59828 5.51202L4.6081 5.50851L4.61785 5.50491L4.62759 5.50121L4.63726 5.49744L4.64684 5.49357L4.65639 5.48963L4.66588 5.48557L4.67533 5.48143L4.68467 5.47722L4.69401 5.47291L4.70325 5.46853L4.71242 5.46405L4.72156 5.4595L4.7306 5.45487L4.73961 5.45014L4.74855 5.44532L4.75741 5.44044L4.7662 5.43548L4.77494 5.43043L4.78362 5.42531L4.79219 5.42011L4.80071 5.41483L4.80917 5.40947L4.81756 5.40406L4.82588 5.39855L4.83412 5.39299L4.84229 5.38733L4.85039 5.38161L4.8584 5.37584L4.86634 5.36997L4.87421 5.36404L4.88201 5.35804L4.88973 5.35198L4.89739 5.34584L4.90493 5.33966L4.91242 5.33341L4.91982 5.32709L4.92714 5.3207L4.9344 5.31426L4.94156 5.30774L4.94865 5.30119L4.95563 5.29458L4.96256 5.28789L4.9694 5.28114L4.97617 5.27436L4.98284 5.26751L4.98941 5.2606L4.99591 5.25366L5.00235 5.24663L5.00866 5.23959L5.01493 5.23247L5.02109 5.2253L5.02715 5.21812L5.03317 5.21084L5.03904 5.20356L5.04487 5.1962L5.05061 5.18883L5.05623 5.18139L5.06179 5.1739L5.06725 5.16641L5.07262 5.15883L5.07792 5.15123L5.0831 5.14362L5.08821 5.13592L5.09324 5.12822L5.09814 5.12049L5.10298 5.11271L5.10772 5.1049L5.11237 5.09705L5.11695 5.08918L5.12141 5.08127L5.12579 5.07334L5.13008 5.06535L5.13427 5.05739L5.13837 5.04936L5.14239 5.04132L5.14631 5.03326L5.15014 5.02514L5.15388 5.01704L5.15752 5.00891L5.16106 5.00077L5.16453 4.99257L5.16789 4.9844L5.17118 4.97615L5.17435 4.96797L5.17745 4.95966L5.18043 4.95149L5.18334 4.94318L5.18616 4.93487L5.18887 4.9266L5.1915 4.91829L5.19403 4.91L5.19649 4.90161L5.19882 4.89334L5.2011 4.88494L5.20326 4.87667L5.20533 4.86828L5.20732 4.8599L5.2092 4.85157L5.21099 4.84326L5.21271 4.83484L5.21433 4.82651L5.21585 4.8181L5.21728 4.8098L5.21864 4.80145L5.21989 4.79308L5.22106 4.78472L5.22212 4.77637L5.22311 4.76806L5.22401 4.75977L5.22481 4.7514L5.22553 4.74311L5.22616 4.73481L5.2267 4.72652L5.22715 4.71824L5.22752 4.70999L5.22778 4.70178L5.22797 4.69351L5.22809 4.68526L5.22811 4.67708L5.22803 4.66891L5.22788 4.66075L5.22763 4.65261L5.22731 4.64444L5.22689 4.63641L5.22639 4.62822L5.22582 4.62023L5.22515 4.61221L5.22441 4.60413L5.22357 4.59614L5.22268 4.58824L5.22167 4.58021L5.2206 4.57236L5.21944 4.56445L5.21822 4.55666L5.21688 4.54879L5.21549 4.54097L5.21402 4.53324L5.21248 4.52552L5.21084 4.51778L5.20913 4.51014L5.20735 4.5025L5.20549 4.49491L5.20356 4.48738L5.20152 4.4798L5.19946 4.47237L5.19729 4.46486L5.19506 4.45748L5.19276 4.45011L5.19037 4.44279L5.18792 4.43549L5.18538 4.42821L5.18281 4.42105L5.18014 4.4139L5.1774 4.40673L5.17459 4.39968L5.17172 4.39259L5.1688 4.38568L5.16577 4.37868L5.16272 4.3718L5.15958 4.36498L5.15638 4.35816L5.15312 4.35141L5.14978 4.3447L5.14639 4.33803L5.14294 4.33144L5.13941 4.32488L5.13585 4.31838L5.13221 4.31192L5.12849 4.30552L5.12476 4.29917L5.12095 4.29289L5.11706 4.28662L5.11313 4.28046L5.10915 4.27432L5.10511 4.26824L5.10101 4.2622L5.09688 4.25626L5.09267 4.25033L5.08842 4.24448L5.08411 4.23869L5.07975 4.23295L5.07536 4.22727L5.07088 4.22163L5.06639 4.21608L5.06183 4.21058L5.05724 4.20513L5.05259 4.19973L5.04792 4.19442L5.04318 4.18916L5.03839 4.18395L5.03357 4.17879L5.02871 4.17372L5.02379 4.16871L5.01884 4.16373L5.01387 4.15886L5.00883 4.15403L5.00378 4.14927L4.99864 4.14454L4.99353 4.13991L4.98835 4.13532L4.98314 4.13082L4.97789 4.12636L4.97261 4.122L4.96729 4.11767L4.96195 4.11342L4.95658 4.10923L4.95117 4.1051L4.94574 4.10106L4.94027 4.09705L4.93476 4.09313L4.92925 4.08928L4.92371 4.08547L4.91814 4.08175L4.91254 4.07809L4.9069 4.07449L4.90127 4.07096L4.89558 4.0675L4.8899 4.0641L4.8842 4.06079L4.87846 4.05753L4.87269 4.05433L4.86693 4.0512L4.86116 4.04813L4.85535 4.04514L4.84955 4.04223L4.84368 4.03935L4.83785 4.03657L4.83198 4.03386L4.82611 4.03119L4.82022 4.0286L4.8143 4.02606L4.80843 4.02363L4.80248 4.02124L4.79654 4.01892L4.79061 4.01667L4.78466 4.01448L4.77872 4.01236L4.77275 4.0103L4.76679 4.0083L4.76084 4.0064L4.75486 4.00453L4.74887 4.00274L4.74293 4.00102L4.73691 3.99937L4.73096 3.99778L4.72498 3.99626L4.71899 3.99479L4.71301 3.9934L4.70704 3.99207L4.70106 3.99081L4.69509 3.98961L4.68915 3.98846L4.6832 3.9874L4.67722 3.98639L4.67131 3.98545L4.66533 3.98458L4.65944 3.98376L4.65349 3.983L4.64758 3.98231L4.64171 3.98168L4.63581 3.98113L4.62994 3.98061L4.62407 3.98017L4.61822 3.97979L4.61237 3.97947L4.60653 3.97922L4.60076 3.97903L4.59495 3.97888L4.58917 3.9788L4.5834 3.97878L4.57766 3.97884L4.57193 3.97894L4.56623 3.97909L4.56053 3.97932L4.55489 3.97958L4.54921 3.97993L4.54361 3.98031L4.538 3.98075L4.53242 3.98126L4.52688 3.98181L4.52131 3.98242L4.51582 3.98309L4.51033 3.98381L4.50488 3.9846L4.49943 3.98543L4.49404 3.98631L4.48865 3.98724L4.48333 3.98824L4.47797 3.98928L4.4727 3.99037L4.46742 3.99151L4.46219 3.99271Z" fill="#D1D1D1"/>
</g>
<defs>
<clipPath id="clip0_147_4578">
<rect width="29.3482" height="8.38521" fill="white" transform="translate(0.138672 0.046875)"/>
</clipPath>
</defs>
</svg>
