<svg width="25" height="25" viewBox="0 0 25 25" fill="none" xmlns="http://www.w3.org/2000/svg">
<path fill-rule="evenodd" clip-rule="evenodd" d="M17.1589 2.04297C20.4889 2.04297 22.9999 4.75997 22.9999 8.36297V15.231C22.9999 17.075 22.3479 18.741 21.1629 19.923C20.0999 20.982 18.7209 21.543 17.1749 21.543H7.32191C5.77891 21.543 4.40091 20.983 3.33691 19.923C2.15191 18.741 1.49991 17.075 1.49991 15.231V8.36297C1.49991 4.75997 4.01091 2.04297 7.34091 2.04297H17.1589ZM17.1589 3.54297H7.34091C4.82591 3.54297 2.99991 5.56997 2.99991 8.36297V15.231C2.99991 16.674 3.49591 17.963 4.39591 18.86C5.17191 19.635 6.18491 20.043 7.32491 20.043H17.1589C17.1609 20.041 17.1689 20.043 17.1749 20.043C18.3159 20.043 19.3279 19.635 20.1039 18.86C21.0049 17.963 21.4999 16.674 21.4999 15.231V8.36297C21.4999 5.56997 19.6739 3.54297 17.1589 3.54297ZM18.7349 8.17177C18.9959 8.49277 18.9469 8.96477 18.6259 9.22677L14.1819 12.8388C13.6199 13.2848 12.9479 13.5078 12.2769 13.5078C11.6079 13.5078 10.9409 13.2868 10.3829 12.8448L5.89791 9.22877C5.57491 8.96877 5.52491 8.49577 5.78391 8.17377C6.04491 7.85277 6.51691 7.80177 6.83891 8.06077L11.3199 11.6728C11.8829 12.1188 12.6759 12.1188 13.2429 11.6688L17.6789 8.06277C18.0009 7.79977 18.4729 7.84977 18.7349 8.17177Z" fill="white"/>
</svg>
