<svg width="17" height="17" viewBox="0 0 17 17" fill="none" xmlns="http://www.w3.org/2000/svg">
<path d="M14.4569 2.43096C14.1234 2.0887 13.6299 1.96119 13.1697 2.09541L2.43867 5.21598C1.95313 5.35087 1.60899 5.73809 1.51629 6.23C1.42158 6.73064 1.75239 7.36616 2.18456 7.63191L5.53994 9.69417C5.88408 9.90557 6.32826 9.85255 6.61304 9.56532L10.4553 5.69917C10.6487 5.49784 10.9688 5.49784 11.1622 5.69917C11.3556 5.89379 11.3556 6.2092 11.1622 6.41053L7.31333 10.2774C7.02788 10.5639 6.97452 11.0102 7.18461 11.3565L9.23478 14.7455C9.47488 15.1481 9.88838 15.3763 10.3419 15.3763C10.3953 15.3763 10.4553 15.3763 10.5086 15.3696C11.0288 15.3025 11.4424 14.9468 11.5957 14.4435L14.7771 3.72616C14.9171 3.26982 14.7904 2.77321 14.4569 2.43096Z" fill="white"/>
</svg>
