<svg width="46" height="47" viewBox="0 0 46 47" fill="none" xmlns="http://www.w3.org/2000/svg">
<circle cx="23" cy="23.043" r="22.5" fill="#18181B" stroke="url(#paint0_linear_124_7426)"/>
<path d="M33.2009 18.0862C32.5125 18.3922 31.7859 18.5834 31.021 18.6981C31.7859 18.2392 32.3978 17.5126 32.6655 16.6329C31.9389 17.0536 31.1357 17.3596 30.2561 17.5508C29.5677 16.8242 28.5734 16.3652 27.5025 16.3652C25.4374 16.3652 23.7546 18.048 23.7546 20.1132C23.7546 20.4191 23.7929 20.6868 23.8694 20.9545C20.7716 20.8015 17.9798 19.31 16.1058 17.0154C15.7999 17.589 15.6086 18.201 15.6086 18.8893C15.6086 20.1896 16.2588 21.337 17.2914 22.0254C16.6795 21.9871 16.1058 21.8341 15.5704 21.5664V21.6047C15.5704 23.4404 16.8707 24.9702 18.5917 25.3144C18.2857 25.3908 17.9415 25.4291 17.5973 25.4291C17.3679 25.4291 17.1002 25.3908 16.8707 25.3526C17.3679 26.8441 18.7446 27.9532 20.3891 27.9532C19.0888 28.9475 17.4826 29.5594 15.7234 29.5594C15.4174 29.5594 15.1115 29.5594 14.8438 29.5212C16.5265 30.592 18.4769 31.2039 20.6186 31.2039C27.5408 31.2039 31.327 25.4673 31.327 20.4956C31.327 20.3426 31.327 20.1514 31.327 19.9984C32.0536 19.5012 32.7037 18.8511 33.2009 18.0862Z" fill="white"/>
<defs>
<linearGradient id="paint0_linear_124_7426" x1="0" y1="23.043" x2="46" y2="23.043" gradientUnits="userSpaceOnUse">
<stop stop-color="#0CBAF1"/>
<stop offset="1" stop-color="#E95CE9"/>
</linearGradient>
</defs>
</svg>
