<svg width="48" height="48" viewBox="0 0 48 48" fill="none" xmlns="http://www.w3.org/2000/svg">
<mask id="mask0_122_5732" style="mask-type:luminance" maskUnits="userSpaceOnUse" x="0" y="0" width="48" height="48">
<path d="M0 3.8147e-06H48V48H0V3.8147e-06Z" fill="white"/>
</mask>
<g mask="url(#mask0_122_5732)">
<path fill-rule="evenodd" clip-rule="evenodd" d="M7.34979 6.64455C7.34979 8.43325 8.80977 9.89355 10.5986 9.89355C10.9869 9.89355 11.3017 9.57875 11.3017 9.19043C11.3017 8.8021 10.9869 8.4873 10.5986 8.4873C9.58656 8.4873 8.75604 7.65673 8.75604 6.64455V3.24827C8.75604 2.23609 9.58656 1.40552 10.5986 1.40552C11.6139 1.40552 12.444 2.23662 12.444 3.24827V4.94637C12.444 5.33469 12.7588 5.64949 13.1471 5.64949C13.5354 5.64949 13.8502 5.33469 13.8502 4.94637V3.24827C13.8502 1.45906 12.3896 -0.000725746 10.5986 -0.000725746C8.80977 -0.000725746 7.34979 1.45958 7.34979 3.24827V6.64455Z" fill="url(#paint0_linear_122_5732)"/>
<path fill-rule="evenodd" clip-rule="evenodd" d="M16.5045 6.64455C16.5045 8.43328 17.9646 9.89355 19.7534 9.89355C20.1417 9.89355 20.4565 9.57875 20.4565 9.19043C20.4565 8.8021 20.1417 8.4873 19.7534 8.4873C18.7413 8.4873 17.9107 7.6567 17.9107 6.64455V3.24827C17.9107 2.23613 18.7413 1.40552 19.7534 1.40552C20.7687 1.40552 21.5988 2.23662 21.5988 3.24827V4.94637C21.5988 5.33469 21.9136 5.64949 22.3019 5.64949C22.6902 5.64949 23.005 5.33469 23.005 4.94637V3.24827C23.005 1.45906 21.5444 -0.000725746 19.7534 -0.000725746C17.9646 -0.000725746 16.5045 1.45955 16.5045 3.24827V6.64455Z" fill="url(#paint1_linear_122_5732)"/>
<path fill-rule="evenodd" clip-rule="evenodd" d="M25.6593 6.64455C25.6593 8.43328 27.1194 9.89355 28.9082 9.89355C29.2965 9.89355 29.6113 9.57875 29.6113 9.19043C29.6113 8.8021 29.2965 8.4873 28.9082 8.4873C27.8961 8.4873 27.0656 7.6567 27.0656 6.64455V3.24827C27.0656 2.23613 27.8961 1.40552 28.9082 1.40552C29.9235 1.40552 30.7536 2.23662 30.7536 3.24827V4.94637C30.7536 5.33469 31.0684 5.64949 31.4567 5.64949C31.845 5.64949 32.1598 5.33469 32.1598 4.94637V3.24827C32.1598 1.45906 30.6992 -0.000725746 28.9082 -0.000725746C27.1194 -0.000725746 25.6593 1.45955 25.6593 3.24827V6.64455Z" fill="url(#paint2_linear_122_5732)"/>
<path fill-rule="evenodd" clip-rule="evenodd" d="M34.8141 6.64455C34.8141 8.43377 36.2747 9.89355 38.0657 9.89355C38.454 9.89355 38.7688 9.57875 38.7688 9.19043C38.7688 8.8021 38.454 8.4873 38.0657 8.4873C37.0504 8.4873 36.2203 7.65621 36.2203 6.64455V3.24827C36.2203 2.23662 37.0504 1.40552 38.0657 1.40552C39.0778 1.40552 39.9083 2.23613 39.9083 3.24827V4.94637C39.9083 5.33469 40.2231 5.64949 40.6115 5.64949C40.9998 5.64949 41.3146 5.33469 41.3146 4.94637V3.24827C41.3146 1.45955 39.8545 -0.000725746 38.0657 -0.000725746C36.2747 -0.000725746 34.8141 1.45906 34.8141 3.24827V6.64455Z" fill="url(#paint3_linear_122_5732)"/>
<path fill-rule="evenodd" clip-rule="evenodd" d="M31.9892 38.0951C32.2322 37.7922 32.1836 37.3497 31.8806 37.1067L15.0539 23.612C14.751 23.369 14.3084 23.4177 14.0655 23.7206C13.8225 24.0235 13.8712 24.4661 14.1741 24.709L31.0008 38.2038C31.3038 38.4467 31.7463 38.3981 31.9892 38.0951Z" fill="url(#paint4_linear_122_5732)"/>
<path fill-rule="evenodd" clip-rule="evenodd" d="M26.6083 25.7322C26.9113 25.9751 27.3538 25.9263 27.5967 25.6233L30.2169 22.3547C30.4598 22.0517 30.411 21.6091 30.1081 21.3663C29.8051 21.1234 29.3625 21.1721 29.1197 21.4751L26.4994 24.7438C26.2566 25.0468 26.3053 25.4893 26.6083 25.7322Z" fill="url(#paint5_linear_122_5732)"/>
<path fill-rule="evenodd" clip-rule="evenodd" d="M21.5549 26.7013C21.8474 26.9569 22.2916 26.9269 22.5471 26.6345C23.4762 25.5711 24.5944 24.2052 25.4497 22.5669C25.6294 22.2227 25.4961 21.7979 25.1518 21.6182C24.8076 21.4385 24.3829 21.5718 24.2031 21.9161C23.4269 23.403 22.398 24.6679 21.4881 25.7092C21.2326 26.0016 21.2625 26.4458 21.5549 26.7013Z" fill="url(#paint6_linear_122_5732)"/>
<path fill-rule="evenodd" clip-rule="evenodd" d="M26.7591 30.8741C27.072 31.1041 27.5121 31.0369 27.7421 30.7241C28.5602 29.6113 29.5727 28.3296 30.854 27.253C31.1513 27.0032 31.1898 26.5597 30.94 26.2624C30.6902 25.9651 30.2467 25.9266 29.9494 26.1764C28.5362 27.3638 27.4438 28.7557 26.6091 29.8911C26.3791 30.204 26.4462 30.6441 26.7591 30.8741Z" fill="url(#paint7_linear_122_5732)"/>
<path fill-rule="evenodd" clip-rule="evenodd" d="M30.0132 33.4853C30.3298 33.7102 30.7687 33.6358 30.9936 33.3192C32.0976 31.7645 33.696 29.8881 36.5897 29.7504C36.9776 29.7319 37.277 29.4025 37.2586 29.0146C37.2401 28.6268 36.9107 28.3273 36.5228 28.3457C32.9376 28.5163 30.9964 30.8865 29.847 32.5049C29.6222 32.8215 29.6966 33.2605 30.0132 33.4853Z" fill="url(#paint8_linear_122_5732)"/>
<path fill-rule="evenodd" clip-rule="evenodd" d="M19.3891 23.7549C19.723 23.9531 20.1544 23.8431 20.3527 23.5092C20.7821 22.7859 21.378 21.6129 21.1856 19.914C21.1419 19.5282 20.7936 19.2508 20.4078 19.2945C20.0219 19.3382 19.7445 19.6864 19.7882 20.0723C19.9305 21.3286 19.5061 22.1806 19.1435 22.7913C18.9452 23.1253 19.0552 23.5566 19.3891 23.7549Z" fill="url(#paint9_linear_122_5732)"/>
<path fill-rule="evenodd" clip-rule="evenodd" d="M10.4924 47.9736C10.769 47.9254 11.0682 47.8115 11.371 47.6721C11.3856 47.6654 11.3999 47.6582 11.414 47.6505L30.4836 37.2358C30.6899 37.1231 30.8263 36.9148 30.847 36.6806C30.8677 36.4464 30.7699 36.2174 30.5865 36.0702L16.3482 24.6484C16.1648 24.5013 15.92 24.4556 15.6959 24.5266C15.4717 24.5976 15.2979 24.7759 15.2327 25.0018L9.20821 45.8603C9.20379 45.8756 9.1999 45.891 9.19653 45.9066C9.12293 46.2464 9.07659 46.5714 9.0915 46.8567C9.10589 47.1319 9.18602 47.5117 9.51461 47.771C9.84141 48.029 10.2271 48.0198 10.4924 47.9736ZM10.566 46.2269L16.291 26.4054L28.8839 36.5072L10.7617 46.4045C10.6694 46.4465 10.5875 46.4809 10.515 46.5085C10.5266 46.4273 10.5433 46.3338 10.566 46.2269Z" fill="url(#paint10_linear_122_5732)"/>
<path fill-rule="evenodd" clip-rule="evenodd" d="M22.2367 41.7274C22.5397 41.4845 22.5885 41.042 22.3456 40.739L14.6233 31.103C14.3804 30.8 13.9379 30.7512 13.6349 30.994C13.3318 31.2369 13.2831 31.6794 13.5259 31.9824L21.2483 41.6184C21.4911 41.9214 21.9336 41.9702 22.2367 41.7274Z" fill="url(#paint11_linear_122_5732)"/>
<path fill-rule="evenodd" clip-rule="evenodd" d="M18.0646 44.0046C18.3676 43.7617 18.4163 43.3192 18.1733 43.0162L13.034 36.6063C12.7911 36.3034 12.3485 36.2547 12.0456 36.4976C11.7426 36.7405 11.6939 37.183 11.9368 37.486L17.0762 43.8959C17.3191 44.1988 17.7617 44.2475 18.0646 44.0046Z" fill="url(#paint12_linear_122_5732)"/>
<path fill-rule="evenodd" clip-rule="evenodd" d="M15.115 45.6149C15.4179 45.372 15.4666 44.9294 15.2236 44.6265L11.9099 40.4942C11.6669 40.1912 11.2244 40.1426 10.9214 40.3855C10.6185 40.6285 10.5698 41.071 10.8128 41.3739L14.1266 45.5063C14.3695 45.8092 14.812 45.8579 15.115 45.6149Z" fill="url(#paint13_linear_122_5732)"/>
<path fill-rule="evenodd" clip-rule="evenodd" d="M25.1864 40.1171C25.4894 39.8742 25.5383 39.4317 25.2954 39.1287L21.2668 34.1007C21.024 33.7976 20.5815 33.7488 20.2784 33.9916C19.9754 34.2344 19.9266 34.6769 20.1694 34.98L24.198 40.008C24.4408 40.311 24.8833 40.3599 25.1864 40.1171ZM19.0821 32.5008C19.3852 32.258 19.4341 31.8155 19.1914 31.5124L15.7475 27.2125C15.5047 26.9094 15.0622 26.8605 14.7591 27.1033C14.456 27.346 14.4071 27.7885 14.6499 28.0916L18.0938 32.3915C18.3365 32.6946 18.779 32.7435 19.0821 32.5008Z" fill="url(#paint14_linear_122_5732)"/>
<path fill-rule="evenodd" clip-rule="evenodd" d="M2.4122 41.07C2.4122 41.6921 2.91834 42.1982 3.54048 42.1982H11.2018C11.5902 42.1982 11.905 41.8834 11.905 41.4951C11.905 41.1068 11.5902 40.792 11.2018 40.792H3.81845V5.64981H44.1815V40.792H21.2177C20.8294 40.792 20.5146 41.1068 20.5146 41.4951C20.5146 41.8834 20.8294 42.1982 21.2177 42.1982H44.4594C45.0816 42.1982 45.5877 41.6921 45.5877 41.07V5.37193C45.5877 4.7498 45.0817 4.24356 44.4594 4.24356H3.54048C2.91824 4.24356 2.4122 4.74981 2.4122 5.37193V41.07Z" fill="url(#paint15_linear_122_5732)"/>
<path fill-rule="evenodd" clip-rule="evenodd" d="M2.41226 15.8398C2.41226 16.2282 2.72706 16.543 3.11539 16.543H22.2541C22.6424 16.543 22.9572 16.2282 22.9572 15.8398C22.9572 15.4515 22.6424 15.1367 22.2541 15.1367H3.11539C2.72706 15.1367 2.41226 15.4515 2.41226 15.8398ZM24.7956 15.8398C24.7956 16.2282 25.1104 16.543 25.4988 16.543H44.8847C45.273 16.543 45.5878 16.2282 45.5878 15.8398C45.5878 15.4515 45.273 15.1367 44.8847 15.1367H25.4988C25.1104 15.1367 24.7956 15.4515 24.7956 15.8398ZM2.41226 12.5393C2.41226 12.9276 2.72706 13.2424 3.11539 13.2424H44.8847C45.273 13.2424 45.5878 12.9276 45.5878 12.5393C45.5878 12.151 45.273 11.8362 44.8847 11.8362H3.11539C2.72706 11.8362 2.41226 12.151 2.41226 12.5393Z" fill="url(#paint16_linear_122_5732)"/>
</g>
<defs>
<linearGradient id="paint0_linear_122_5732" x1="7.34979" y1="4.94641" x2="13.8502" y2="4.94641" gradientUnits="userSpaceOnUse">
<stop stop-color="#0CBAF1"/>
<stop offset="1" stop-color="#E95CE9"/>
</linearGradient>
<linearGradient id="paint1_linear_122_5732" x1="16.5045" y1="4.94641" x2="23.005" y2="4.94641" gradientUnits="userSpaceOnUse">
<stop stop-color="#0CBAF1"/>
<stop offset="1" stop-color="#E95CE9"/>
</linearGradient>
<linearGradient id="paint2_linear_122_5732" x1="25.6593" y1="4.94641" x2="32.1598" y2="4.94641" gradientUnits="userSpaceOnUse">
<stop stop-color="#0CBAF1"/>
<stop offset="1" stop-color="#E95CE9"/>
</linearGradient>
<linearGradient id="paint3_linear_122_5732" x1="34.8141" y1="4.94641" x2="41.3146" y2="4.94641" gradientUnits="userSpaceOnUse">
<stop stop-color="#0CBAF1"/>
<stop offset="1" stop-color="#E95CE9"/>
</linearGradient>
<linearGradient id="paint4_linear_122_5732" x1="13.9109" y1="30.9079" x2="32.1439" y2="30.9079" gradientUnits="userSpaceOnUse">
<stop stop-color="#0CBAF1"/>
<stop offset="1" stop-color="#E95CE9"/>
</linearGradient>
<linearGradient id="paint5_linear_122_5732" x1="26.3449" y1="23.5492" x2="30.3714" y2="23.5492" gradientUnits="userSpaceOnUse">
<stop stop-color="#0CBAF1"/>
<stop offset="1" stop-color="#E95CE9"/>
</linearGradient>
<linearGradient id="paint6_linear_122_5732" x1="21.3145" y1="24.2066" x2="25.5297" y2="24.2066" gradientUnits="userSpaceOnUse">
<stop stop-color="#0CBAF1"/>
<stop offset="1" stop-color="#E95CE9"/>
</linearGradient>
<linearGradient id="paint7_linear_122_5732" x1="26.4724" y1="28.5111" x2="31.1048" y2="28.5111" gradientUnits="userSpaceOnUse">
<stop stop-color="#0CBAF1"/>
<stop offset="1" stop-color="#E95CE9"/>
</linearGradient>
<linearGradient id="paint8_linear_122_5732" x1="29.7171" y1="30.9801" x2="37.2594" y2="30.9801" gradientUnits="userSpaceOnUse">
<stop stop-color="#0CBAF1"/>
<stop offset="1" stop-color="#E95CE9"/>
</linearGradient>
<linearGradient id="paint9_linear_122_5732" x1="19.0448" y1="21.5717" x2="21.2227" y2="21.5717" gradientUnits="userSpaceOnUse">
<stop stop-color="#0CBAF1"/>
<stop offset="1" stop-color="#E95CE9"/>
</linearGradient>
<linearGradient id="paint10_linear_122_5732" x1="9.08871" y1="36.2464" x2="30.8497" y2="36.2464" gradientUnits="userSpaceOnUse">
<stop stop-color="#0CBAF1"/>
<stop offset="1" stop-color="#E95CE9"/>
</linearGradient>
<linearGradient id="paint11_linear_122_5732" x1="13.3714" y1="36.3607" x2="22.5001" y2="36.3607" gradientUnits="userSpaceOnUse">
<stop stop-color="#0CBAF1"/>
<stop offset="1" stop-color="#E95CE9"/>
</linearGradient>
<linearGradient id="paint12_linear_122_5732" x1="11.7823" y1="40.2511" x2="18.3279" y2="40.2511" gradientUnits="userSpaceOnUse">
<stop stop-color="#0CBAF1"/>
<stop offset="1" stop-color="#E95CE9"/>
</linearGradient>
<linearGradient id="paint13_linear_122_5732" x1="10.6582" y1="43.0002" x2="15.3783" y2="43.0002" gradientUnits="userSpaceOnUse">
<stop stop-color="#0CBAF1"/>
<stop offset="1" stop-color="#E95CE9"/>
</linearGradient>
<linearGradient id="paint14_linear_122_5732" x1="14.4955" y1="33.6102" x2="25.4499" y2="33.6102" gradientUnits="userSpaceOnUse">
<stop stop-color="#0CBAF1"/>
<stop offset="1" stop-color="#E95CE9"/>
</linearGradient>
<linearGradient id="paint15_linear_122_5732" x1="2.4122" y1="23.2209" x2="45.5877" y2="23.2209" gradientUnits="userSpaceOnUse">
<stop stop-color="#0CBAF1"/>
<stop offset="1" stop-color="#E95CE9"/>
</linearGradient>
<linearGradient id="paint16_linear_122_5732" x1="2.41226" y1="14.1896" x2="45.5878" y2="14.1896" gradientUnits="userSpaceOnUse">
<stop stop-color="#0CBAF1"/>
<stop offset="1" stop-color="#E95CE9"/>
</linearGradient>
</defs>
</svg>
