<svg width="48" height="48" viewBox="0 0 48 48" fill="none" xmlns="http://www.w3.org/2000/svg">
<mask id="mask0_122_5689" style="mask-type:luminance" maskUnits="userSpaceOnUse" x="0" y="0" width="48" height="48">
<path d="M0 3.8147e-06H48V48H0V3.8147e-06Z" fill="white"/>
</mask>
<g mask="url(#mask0_122_5689)">
<path fill-rule="evenodd" clip-rule="evenodd" d="M18.9621 39.6514C17.9333 39.6514 17.099 38.8184 17.0976 37.7899L17.0976 37.7869L17.088 36.0904C17.088 36.0899 17.088 36.0894 17.088 36.0888C17.0836 33.3204 16.0654 30.6235 14.1582 28.5937L14.1582 28.5937C11.9135 26.2047 10.5298 23.0003 10.4992 19.4716C10.4353 12.0815 16.4179 5.95638 23.8074 5.85349C27.7459 5.79868 31.3028 7.4292 33.8052 10.0718C34.0722 10.3538 34.5173 10.3659 34.7992 10.0989C35.0812 9.83191 35.0933 9.38688 34.8263 9.10492C32.0651 6.18892 28.1356 4.38688 23.7878 4.44738C15.6238 4.56105 9.02247 11.3208 9.09303 19.4838C9.12678 23.3798 10.6561 26.9201 13.1334 29.5566C14.785 31.3145 15.6782 33.6636 15.6818 36.0924L15.6818 36.0954L15.6913 37.7919C15.6913 37.7924 15.6913 37.793 15.6913 37.7935C15.6947 39.5974 17.1583 41.0577 18.9622 41.0576L29.0618 41.0568C30.8698 41.0567 32.3347 39.5897 32.3322 37.7817L32.3322 37.7788L32.3226 36.0169C32.3226 36.0163 32.3226 36.0158 32.3226 36.0152C32.3195 33.6292 33.1963 31.32 34.8246 29.6011L34.3497 29.1511L34.8246 29.6011C37.3545 26.9303 38.9076 23.3221 38.9076 19.3523C38.9076 16.4707 38.089 13.7781 36.6716 11.4966C36.4667 11.1667 36.0332 11.0654 35.7033 11.2704C35.3735 11.4753 35.2722 11.9088 35.4771 12.2387C36.7601 14.3039 37.5013 16.7406 37.5013 19.3523C37.5013 22.9481 36.0961 26.2139 33.8037 28.634C31.9147 30.6281 30.9123 33.2903 30.9163 36.0189L30.9163 36.0217L30.926 37.7836C30.926 37.784 30.926 37.7844 30.926 37.7848C30.9268 38.8148 30.092 39.6505 29.0617 39.6505L18.9621 39.6514Z" fill="url(#paint0_linear_122_5689)"/>
<path fill-rule="evenodd" clip-rule="evenodd" d="M21.4219 48C19.6842 48.0002 18.2775 46.5876 18.285 44.85L21.4219 48ZM21.4219 48L26.5664 47.9994C26.5663 47.9994 26.5664 47.9994 26.5664 47.9994C28.2931 47.9993 29.6951 46.6035 29.7026 44.8768L29.7223 40.3571C29.7231 40.1701 29.6494 39.9904 29.5174 39.8579C29.3855 39.7254 29.2061 39.6509 29.0191 39.6509L19.0077 39.6519C18.6206 39.652 18.3064 39.9649 18.3047 40.352L18.285 44.85M19.6912 44.856C19.6912 44.856 19.6912 44.856 19.6912 44.856L19.7079 41.0581L28.313 41.0572L28.2964 44.8707C28.2922 45.8231 27.5189 46.5931 26.5663 46.5932L21.4217 46.5938C20.4632 46.5939 19.6871 45.8146 19.6912 44.856Z" fill="url(#paint1_linear_122_5689)"/>
<path fill-rule="evenodd" clip-rule="evenodd" d="M20.1928 23.7727C20.2152 24.144 20.5228 24.4336 20.8947 24.4336H27.0981C27.4485 24.4336 27.7455 24.1756 27.7944 23.8286C27.8678 23.3077 28.0249 22.5984 28.3806 21.8192L28.3806 21.8192C28.7537 21.0017 29.2164 20.3898 29.5945 19.9696L29.5947 19.9693C29.8943 19.636 29.9573 19.1483 29.7426 18.7481M21.106 21.4819C21.3302 22.0451 21.4561 22.5726 21.526 23.0273L21.106 21.4819ZM21.526 23.0273H26.509C26.6206 22.5048 26.802 21.8909 27.1013 21.2353C27.4964 20.3697 27.9752 19.6978 28.3926 19.2078C27.8413 18.1935 27.2067 17.1225 26.4763 16.0168L26.4763 16.0168C25.6458 14.7597 24.8059 13.631 23.9918 12.6261C23.1593 13.6382 22.2966 14.7884 21.4474 16.0827C20.7444 17.1543 20.1378 18.1917 19.6142 19.1723C20.0958 19.6736 20.6892 20.4344 21.106 21.4818M19.4982 19.3911C19.4983 19.3911 19.4983 19.391 19.4983 19.391L19.4982 19.3911ZM28.5489 19.0292C28.5489 19.0293 28.5488 19.0293 28.5487 19.0294C28.5488 19.0293 28.5489 19.0293 28.5489 19.0292ZM28.5035 19.413C28.5035 19.4131 28.5035 19.4131 28.5035 19.4131L28.5035 19.413ZM20.1928 23.7727C20.1655 23.3195 20.0748 22.6936 19.7995 22.0019L20.1928 23.7727ZM19.7995 22.0019L19.7994 22.0018L19.7995 22.0019ZM19.7994 22.0018C19.4226 21.0549 18.8638 20.3972 18.4534 19.9992L19.7994 22.0018ZM18.4533 19.999C18.1085 19.6647 18.0365 19.1492 18.2537 18.7365L18.4533 19.999ZM29.7425 18.748C29.1472 17.6385 28.4548 16.4606 27.6496 15.2417C26.7662 13.9043 25.8724 12.7078 25.0081 11.6468M18.2537 18.7363C18.8225 17.6549 19.4895 16.5036 20.2716 15.3114L18.2537 18.7363ZM22.9831 11.639C22.0975 12.7093 21.1772 13.931 20.2716 15.3113L20.2716 15.3114M25.008 11.6468C24.4863 11.0062 23.5098 11.0028 22.9832 11.6388L22.9831 11.639" fill="url(#paint2_linear_122_5689)"/>
<path fill-rule="evenodd" clip-rule="evenodd" d="M20.1952 26.5713C20.1952 26.9596 20.51 27.2744 20.8983 27.2744H27.1017C27.49 27.2744 27.8048 26.9596 27.8048 26.5713V23.7306C27.8048 23.3422 27.49 23.0274 27.1017 23.0274H20.8983C20.51 23.0274 20.1952 23.3422 20.1952 23.7306V26.5713ZM21.6014 25.8682V24.4337H26.3986V25.8682H21.6014Z" fill="url(#paint3_linear_122_5689)"/>
<path fill-rule="evenodd" clip-rule="evenodd" d="M27.8653 41.0566C28.2536 41.0566 28.5684 40.7418 28.5684 40.3535V27.3251C28.5684 26.5194 27.9145 25.869 27.1113 25.869H20.8887C20.0855 25.869 19.4316 26.5194 19.4316 27.3251V37.3163C19.4316 37.7046 19.7464 38.0194 20.1347 38.0194C20.5231 38.0194 20.8379 37.7046 20.8379 37.3163V27.3251C20.8379 27.2986 20.8597 27.2753 20.8887 27.2753H27.1113C27.1403 27.2753 27.1621 27.2986 27.1621 27.3251V40.3535C27.1621 40.7418 27.4769 41.0566 27.8653 41.0566Z" fill="url(#paint4_linear_122_5689)"/>
<path fill-rule="evenodd" clip-rule="evenodd" d="M24 20.248C24.3883 20.248 24.7031 19.9332 24.7031 19.5449V11.868C24.7031 11.4797 24.3883 11.1649 24 11.1649C23.6117 11.1649 23.2969 11.4797 23.2969 11.868V19.5449C23.2969 19.9332 23.6117 20.248 24 20.248Z" fill="url(#paint5_linear_122_5689)"/>
<path fill-rule="evenodd" clip-rule="evenodd" d="M19.4321 29.8281C19.4321 30.2165 19.7469 30.5312 20.1352 30.5312H27.8648C28.2531 30.5312 28.5679 30.2165 28.5679 29.8281C28.5679 29.4398 28.2531 29.125 27.8648 29.125H20.1352C19.7469 29.125 19.4321 29.4398 19.4321 29.8281Z" fill="url(#paint6_linear_122_5689)"/>
<path fill-rule="evenodd" clip-rule="evenodd" d="M23.9936 2.70703C24.3819 2.70703 24.6967 2.39223 24.6967 2.00391V0.703594C24.6967 0.315269 24.3819 0.000468731 23.9936 0.000468731C23.6053 0.000468731 23.2905 0.315269 23.2905 0.703594V2.00391C23.2905 2.39223 23.6053 2.70703 23.9936 2.70703Z" fill="url(#paint7_linear_122_5689)"/>
<path fill-rule="evenodd" clip-rule="evenodd" d="M40.5065 19.7656C40.5065 20.154 40.8213 20.4688 41.2096 20.4688H42.4694C42.8578 20.4688 43.1726 20.154 43.1726 19.7656C43.1726 19.3773 42.8578 19.0625 42.4694 19.0625H41.2096C40.8213 19.0625 40.5065 19.3773 40.5065 19.7656Z" fill="url(#paint8_linear_122_5689)"/>
<path fill-rule="evenodd" clip-rule="evenodd" d="M4.82739 19.7656C4.82739 20.154 5.14219 20.4688 5.53052 20.4688H6.79033C7.17866 20.4688 7.49345 20.154 7.49345 19.7656C7.49345 19.3773 7.17866 19.0625 6.79033 19.0625H5.53052C5.14219 19.0625 4.82739 19.3773 4.82739 19.7656Z" fill="url(#paint9_linear_122_5689)"/>
<path fill-rule="evenodd" clip-rule="evenodd" d="M35.6797 7.71103C35.9586 7.98125 36.4038 7.97421 36.674 7.69533L37.5649 6.77583C37.8351 6.49694 37.8281 6.0518 37.5492 5.78158C37.2703 5.51136 36.8252 5.51839 36.5549 5.79728L35.664 6.71678C35.3938 6.99567 35.4008 7.44081 35.6797 7.71103Z" fill="url(#paint10_linear_122_5689)"/>
<path fill-rule="evenodd" clip-rule="evenodd" d="M10.4508 33.7491C10.7297 34.0193 11.1749 34.0123 11.4451 33.7334L12.336 32.8139C12.6062 32.535 12.5992 32.0899 12.3203 31.8197C12.0414 31.5494 11.5962 31.5565 11.326 31.8354L10.4351 32.7549C10.1649 33.0338 10.1719 33.4789 10.4508 33.7491Z" fill="url(#paint11_linear_122_5689)"/>
<path fill-rule="evenodd" clip-rule="evenodd" d="M37.5492 33.7491C37.8281 33.4789 37.8351 33.0338 37.5649 32.7549L36.674 31.8354C36.4038 31.5565 35.9586 31.5494 35.6797 31.8197C35.4008 32.0899 35.3938 32.535 35.664 32.8139L36.5549 33.7334C36.8252 34.0123 37.2703 34.0193 37.5492 33.7491Z" fill="url(#paint12_linear_122_5689)"/>
<path fill-rule="evenodd" clip-rule="evenodd" d="M12.3203 7.71103C12.5992 7.44081 12.6062 6.99567 12.336 6.71678L11.4451 5.79728C11.1749 5.51839 10.7297 5.51136 10.4508 5.78158C10.1719 6.0518 10.1649 6.49694 10.4351 6.77583L11.326 7.69533C11.5962 7.97421 12.0414 7.98125 12.3203 7.71103Z" fill="url(#paint13_linear_122_5689)"/>
<path fill-rule="evenodd" clip-rule="evenodd" d="M18.285 43.5918C18.285 43.9801 18.5998 44.2949 18.9881 44.2949H26.2886C26.677 44.2949 26.9918 43.9801 26.9918 43.5918C26.9918 43.2035 26.677 42.8887 26.2886 42.8887H18.9881C18.5998 42.8887 18.285 43.2035 18.285 43.5918Z" fill="url(#paint14_linear_122_5689)"/>
</g>
<defs>
<linearGradient id="paint0_linear_122_5689" x1="9.09247" y1="22.7518" x2="38.9076" y2="22.7518" gradientUnits="userSpaceOnUse">
<stop stop-color="#0CBAF1"/>
<stop offset="1" stop-color="#E95CE9"/>
</linearGradient>
<linearGradient id="paint1_linear_122_5689" x1="18.285" y1="43.8255" x2="29.7223" y2="43.8255" gradientUnits="userSpaceOnUse">
<stop stop-color="#0CBAF1"/>
<stop offset="1" stop-color="#E95CE9"/>
</linearGradient>
<linearGradient id="paint2_linear_122_5689" x1="18.1305" y1="17.7988" x2="29.8696" y2="17.7988" gradientUnits="userSpaceOnUse">
<stop stop-color="#0CBAF1"/>
<stop offset="1" stop-color="#E95CE9"/>
</linearGradient>
<linearGradient id="paint3_linear_122_5689" x1="20.1952" y1="25.1509" x2="27.8048" y2="25.1509" gradientUnits="userSpaceOnUse">
<stop stop-color="#0CBAF1"/>
<stop offset="1" stop-color="#E95CE9"/>
</linearGradient>
<linearGradient id="paint4_linear_122_5689" x1="19.4316" y1="33.4628" x2="28.5684" y2="33.4628" gradientUnits="userSpaceOnUse">
<stop stop-color="#0CBAF1"/>
<stop offset="1" stop-color="#E95CE9"/>
</linearGradient>
<linearGradient id="paint5_linear_122_5689" x1="23.2969" y1="15.7065" x2="24.7031" y2="15.7065" gradientUnits="userSpaceOnUse">
<stop stop-color="#0CBAF1"/>
<stop offset="1" stop-color="#E95CE9"/>
</linearGradient>
<linearGradient id="paint6_linear_122_5689" x1="19.4321" y1="29.8281" x2="28.5679" y2="29.8281" gradientUnits="userSpaceOnUse">
<stop stop-color="#0CBAF1"/>
<stop offset="1" stop-color="#E95CE9"/>
</linearGradient>
<linearGradient id="paint7_linear_122_5689" x1="23.2905" y1="1.35375" x2="24.6967" y2="1.35375" gradientUnits="userSpaceOnUse">
<stop stop-color="#0CBAF1"/>
<stop offset="1" stop-color="#E95CE9"/>
</linearGradient>
<linearGradient id="paint8_linear_122_5689" x1="40.5065" y1="19.7656" x2="43.1726" y2="19.7656" gradientUnits="userSpaceOnUse">
<stop stop-color="#0CBAF1"/>
<stop offset="1" stop-color="#E95CE9"/>
</linearGradient>
<linearGradient id="paint9_linear_122_5689" x1="4.82739" y1="19.7656" x2="7.49345" y2="19.7656" gradientUnits="userSpaceOnUse">
<stop stop-color="#0CBAF1"/>
<stop offset="1" stop-color="#E95CE9"/>
</linearGradient>
<linearGradient id="paint10_linear_122_5689" x1="35.4659" y1="6.7463" x2="37.763" y2="6.7463" gradientUnits="userSpaceOnUse">
<stop stop-color="#0CBAF1"/>
<stop offset="1" stop-color="#E95CE9"/>
</linearGradient>
<linearGradient id="paint11_linear_122_5689" x1="10.237" y1="32.7844" x2="12.5341" y2="32.7844" gradientUnits="userSpaceOnUse">
<stop stop-color="#0CBAF1"/>
<stop offset="1" stop-color="#E95CE9"/>
</linearGradient>
<linearGradient id="paint12_linear_122_5689" x1="35.4659" y1="32.7844" x2="37.763" y2="32.7844" gradientUnits="userSpaceOnUse">
<stop stop-color="#0CBAF1"/>
<stop offset="1" stop-color="#E95CE9"/>
</linearGradient>
<linearGradient id="paint13_linear_122_5689" x1="10.237" y1="6.7463" x2="12.5341" y2="6.7463" gradientUnits="userSpaceOnUse">
<stop stop-color="#0CBAF1"/>
<stop offset="1" stop-color="#E95CE9"/>
</linearGradient>
<linearGradient id="paint14_linear_122_5689" x1="18.285" y1="43.5918" x2="26.9918" y2="43.5918" gradientUnits="userSpaceOnUse">
<stop stop-color="#0CBAF1"/>
<stop offset="1" stop-color="#E95CE9"/>
</linearGradient>
</defs>
</svg>
