<svg width="48" height="48" viewBox="0 0 48 48" fill="none" xmlns="http://www.w3.org/2000/svg">
<mask id="mask0_122_5654" style="mask-type:luminance" maskUnits="userSpaceOnUse" x="0" y="0" width="48" height="48">
<path d="M0 3.8147e-06H48V48H0V3.8147e-06Z" fill="white"/>
</mask>
<g mask="url(#mask0_122_5654)">
<path fill-rule="evenodd" clip-rule="evenodd" d="M26.0658 27.9989C24.6886 28.0017 23.3114 28.0017 21.9343 27.9989C21.5459 27.9981 21.2305 28.3122 21.2297 28.7006C21.2289 29.0889 21.5431 29.4043 21.9314 29.4051C23.3105 29.4079 24.6896 29.4079 26.0686 29.4051C26.457 29.4043 26.7711 29.0889 26.7703 28.7006C26.7695 28.3122 26.4541 27.9981 26.0658 27.9989Z" fill="url(#paint0_linear_122_5654)"/>
<path fill-rule="evenodd" clip-rule="evenodd" d="M33.9835 37.2889C34.1868 36.958 34.0833 36.525 33.7525 36.3217C31.8731 35.1671 30.4572 33.2745 29.9751 30.9452C29.8964 30.5649 29.5243 30.3204 29.1441 30.3991C28.7638 30.4778 28.5193 30.8499 28.598 31.2302C29.1622 33.9559 30.8213 36.1714 33.0163 37.5199C33.3472 37.7232 33.7802 37.6197 33.9835 37.2889Z" fill="url(#paint1_linear_122_5654)"/>
<path fill-rule="evenodd" clip-rule="evenodd" d="M7.61542 38.686C12.9525 39.9747 18.2939 36.588 19.4029 31.2298C19.4816 30.8495 19.2372 30.4775 18.8569 30.3988C18.4766 30.3201 18.1046 30.5645 18.0259 30.9448C17.0781 35.5237 12.5108 38.4219 7.94449 37.3188L7.94224 37.3183C7.88463 37.3046 7.82774 37.2908 7.76941 37.2767L7.76905 37.2766C3.48174 36.2417 0.7437 32.0361 1.54547 27.7024C2.22368 24.0369 3.14472 20.3301 4.23924 16.5875C5.24113 13.164 8.33102 10.776 11.8984 10.6541L11.8986 10.6541C19.9665 10.3762 28.0335 10.3762 36.1014 10.6541L36.1016 10.6541C39.669 10.776 42.7589 13.164 43.7608 16.5875C44.8553 20.3301 45.7763 24.0369 46.4545 27.7024C47.2563 32.0361 44.5183 36.2417 40.231 37.2766L40.2306 37.2767C40.2024 37.2835 40.1739 37.2904 40.1447 37.2974L40.1442 37.2975L40.1431 37.2978C40.1143 37.3047 40.0848 37.3117 40.0555 37.3188M7.61542 38.686C7.55563 38.6718 7.49697 38.6576 7.4397 38.6437L7.43909 38.6436C7.43897 38.6436 7.43885 38.6435 7.43873 38.6435C2.42813 37.4339 -0.775528 32.5178 0.162683 27.4466L0.162685 27.4466C0.85134 23.7246 1.78468 19.9707 2.88953 16.1927L2.88956 16.1926C4.0627 12.1837 7.67956 9.39122 11.8502 9.24865C19.9504 8.96966 28.0496 8.96966 36.1498 9.24865C40.3205 9.39122 43.9373 12.1837 45.1105 16.1926L45.1105 16.1927C46.2153 19.9707 47.1487 23.7246 47.8373 27.4466C48.7755 32.5178 45.5719 37.4339 40.5613 38.6435C40.5315 38.6507 40.5016 38.6579 40.4724 38.6649C40.443 38.672 40.4143 38.6788 40.386 38.6857L40.3858 38.6858C38.8185 39.0644 37.2501 39.0394 35.7879 38.6794C35.4108 38.5866 35.1804 38.2056 35.2732 37.8286C35.366 37.4515 35.747 37.2211 36.124 37.3139C37.3729 37.6214 38.7126 37.6433 40.0553 37.3189" fill="url(#paint2_linear_122_5654)"/>
<path fill-rule="evenodd" clip-rule="evenodd" d="M18.8139 30.3857C17.4181 30.3857 16.2865 29.2542 16.2865 27.8584C16.2865 26.4626 17.4181 25.3311 18.8139 25.3311C20.2097 25.3311 21.3412 26.4626 21.3412 27.8584C21.3412 29.2542 20.2097 30.3857 18.8139 30.3857ZM14.8803 27.8584C14.8803 30.0309 16.6415 31.792 18.8139 31.792C20.9863 31.792 22.7475 30.0309 22.7475 27.8584C22.7475 25.6859 20.9863 23.9249 18.8139 23.9249C16.6415 23.9249 14.8803 25.6859 14.8803 27.8584Z" fill="url(#paint3_linear_122_5654)"/>
<path fill-rule="evenodd" clip-rule="evenodd" d="M29.1862 30.3857C27.7903 30.3857 26.6588 29.2542 26.6588 27.8584C26.6588 26.4626 27.7903 25.3311 29.1862 25.3311C30.5819 25.3311 31.7135 26.4626 31.7135 27.8584C31.7135 29.2542 30.5819 30.3857 29.1862 30.3857ZM25.2525 27.8584C25.2525 30.0309 27.0137 31.792 29.1862 31.792C31.3585 31.792 33.1197 30.0309 33.1197 27.8584C33.1197 25.6859 31.3585 23.9249 29.1862 23.9249C27.0137 23.9249 25.2525 25.6859 25.2525 27.8584Z" fill="url(#paint4_linear_122_5654)"/>
<path fill-rule="evenodd" clip-rule="evenodd" d="M10.262 26.7666L10.3037 26.7666C11.8318 26.7659 13.0732 25.5462 13.1145 24.0239L13.1145 24.0238C13.1157 23.9791 13.1169 23.9345 13.1181 23.8898C13.1627 23.8886 13.2074 23.8875 13.252 23.8863L13.2521 23.8862C14.7745 23.845 15.9942 22.6035 15.9949 21.0754V21.0337C15.9942 19.5056 14.7745 18.2641 13.2521 18.2229L13.252 18.2229C13.2074 18.2217 13.1627 18.2205 13.1181 18.2193C13.1169 18.1746 13.1157 18.1299 13.1145 18.0852L13.1145 18.0851C13.0732 16.5629 11.8318 15.3432 10.3037 15.3424H10.262C8.73401 15.3432 7.49241 16.5628 7.45112 18.0851L7.45112 18.0852C7.44991 18.1299 7.44873 18.1746 7.44758 18.2193C7.40294 18.2205 7.35831 18.2217 7.31368 18.2229L7.31359 18.2229C5.79123 18.2641 4.57152 19.5056 4.57077 21.0336V21.0755C4.57152 22.6035 5.79123 23.845 7.31359 23.8862L7.31368 23.8863C7.35831 23.8875 7.40295 23.8886 7.44758 23.8898C7.44874 23.9345 7.44991 23.9791 7.45112 24.0238L7.45112 24.0239C7.49241 25.5462 8.73401 26.7659 10.262 26.7666ZM10.303 25.3604H10.2627C10.2626 25.3604 10.2626 25.3604 10.2626 25.3604C10.2625 25.3604 10.2624 25.3604 10.2623 25.3604C9.50112 25.3598 8.87768 24.7518 8.85686 23.9859M10.3034 25.3604C10.3033 25.3604 10.3032 25.3604 10.3032 25.3604C10.3031 25.3604 10.3031 25.3604 10.303 25.3604M10.3034 25.3604C11.0646 25.3598 11.6879 24.7519 11.7088 23.9859L10.3034 25.3604ZM8.85686 23.9858C8.84968 23.7199 8.84344 23.4541 8.83823 23.1884C8.83082 22.811 8.5267 22.5068 8.14928 22.4992C7.88339 22.4939 7.6175 22.4877 7.35171 22.4805M11.7088 23.9858C11.716 23.7199 11.7222 23.454 11.7275 23.1882L11.7088 23.9858ZM13.214 22.4805C12.9481 22.4877 12.6822 22.4939 12.4164 22.4992C12.0391 22.5068 11.735 22.8109 11.7275 23.1882M13.2141 22.4805C13.9803 22.4597 14.5881 21.8363 14.5886 21.0751C14.5886 21.075 14.5886 21.0749 14.5886 21.0748V21.0343M5.97702 21.0749C5.97702 21.0749 5.97702 21.0748 5.97702 21.0748V21.0343C5.97702 21.0343 5.97702 21.0342 5.97702 21.0342C5.97702 21.0341 5.97702 21.0341 5.97702 21.034C5.97758 20.2728 6.5855 19.6494 7.35162 19.6286C7.61744 19.6214 7.88327 19.6152 8.14903 19.61C8.52656 19.6026 8.83082 19.2983 8.83823 18.9208C8.84344 18.655 8.84968 18.3891 8.85686 18.1233M5.97702 21.0749C5.97702 21.075 5.97702 21.0751 5.97702 21.0751V21.0749ZM5.97702 21.0751C5.97758 21.8363 6.5855 22.4597 7.35162 22.4805L5.97702 21.0751ZM14.5886 21.034C14.5881 20.2729 13.9803 19.6494 13.2141 19.6286L14.5886 21.034ZM13.214 19.6286C12.9481 19.6214 12.6823 19.6152 12.4167 19.61C12.0393 19.6026 11.735 19.2984 11.7275 18.921C11.7222 18.655 11.716 18.3891 11.7088 18.1233M8.85686 18.1232C8.87769 17.3571 9.50131 16.749 10.2627 16.7487H10.303C11.0644 16.749 11.6879 17.357 11.7088 18.1232" fill="url(#paint5_linear_122_5654)"/>
<path fill-rule="evenodd" clip-rule="evenodd" d="M40.4572 19.8584C39.9467 20.3688 39.1191 20.3688 38.6086 19.8584C38.0981 19.3479 38.0981 18.5202 38.6086 18.0098C39.1191 17.4993 39.9467 17.4993 40.4572 18.0098C40.9677 18.5202 40.9677 19.3479 40.4572 19.8584ZM37.6142 20.8527C38.6739 21.9124 40.3919 21.9124 41.4516 20.8527C42.5112 19.7931 42.5112 18.075 41.4516 17.0154C40.3919 15.9557 38.6739 15.9557 37.6142 17.0154C36.5546 18.075 36.5546 19.7931 37.6142 20.8527Z" fill="url(#paint6_linear_122_5654)"/>
<path fill-rule="evenodd" clip-rule="evenodd" d="M36.2164 24.0996C35.7059 24.61 34.8783 24.61 34.3678 24.0996C33.8573 23.5891 33.8573 22.7614 34.3678 22.251C34.8783 21.7405 35.7059 21.7405 36.2164 22.251C36.7269 22.7614 36.7269 23.5891 36.2164 24.0996ZM33.3734 25.0939C34.4331 26.1536 36.1511 26.1536 37.2107 25.0939C38.2704 24.0343 38.2704 22.3162 37.2107 21.2566C36.1511 20.1969 34.4331 20.1969 33.3734 21.2566C32.3138 22.3162 32.3138 24.0343 33.3734 25.0939Z" fill="url(#paint7_linear_122_5654)"/>
<path fill-rule="evenodd" clip-rule="evenodd" d="M20.0294 19.7577C20.0294 20.8623 20.9249 21.7578 22.0295 21.7578H26.1901C27.2947 21.7578 28.1902 20.8623 28.1902 19.7577C28.1902 18.6529 27.2948 17.7574 26.1901 17.7574H22.0295C20.9248 17.7574 20.0294 18.6529 20.0294 19.7577ZM22.0295 20.3516C21.7015 20.3516 21.4356 20.0857 21.4356 19.7577C21.4356 19.4295 21.7016 19.1637 22.0295 19.1637H26.1901C26.5181 19.1637 26.784 19.4295 26.784 19.7577C26.784 20.0857 26.5181 20.3516 26.1901 20.3516H22.0295Z" fill="url(#paint8_linear_122_5654)"/>
<path fill-rule="evenodd" clip-rule="evenodd" d="M16.4456 14.4339C16.6281 14.0912 16.4983 13.6654 16.1556 13.4828C15.4411 13.1022 14.9353 12.3781 14.8575 11.521C14.8095 10.9717 14.7824 10.4243 14.7797 9.87926C14.7778 9.49094 14.4614 9.17771 14.0731 9.17964C13.6848 9.18156 13.3715 9.49792 13.3735 9.88624C13.3764 10.4734 13.4055 11.06 13.4568 11.6447L13.4569 11.6467C13.5782 12.9885 14.3717 14.1259 15.4945 14.724C15.8372 14.9065 16.263 14.7767 16.4456 14.4339Z" fill="url(#paint9_linear_122_5654)"/>
<path fill-rule="evenodd" clip-rule="evenodd" d="M30.7891 13.7666C26.7301 13.9253 22.6704 13.9421 18.6107 13.8151C18.2226 13.803 17.8981 14.1078 17.8859 14.4959C17.8738 14.8841 18.1786 15.2086 18.5667 15.2207C22.6595 15.3487 26.7522 15.3318 30.8438 15.1718M33.1424 11.5213C33.031 12.7589 32.0258 13.7185 30.7892 13.7666L30.7891 13.7666M33.1424 11.5213C33.1905 10.972 33.2176 10.4245 33.2203 9.87944C33.2222 9.49112 33.5386 9.17789 33.9269 9.17981C34.3152 9.18174 34.6285 9.4981 34.6265 9.88642C34.6236 10.4736 34.5945 11.0601 34.5432 11.6449L34.5431 11.6464C34.3692 13.5829 32.7928 15.096 30.844 15.1718" fill="url(#paint10_linear_122_5654)"/>
</g>
<defs>
<linearGradient id="paint0_linear_122_5654" x1="21.2297" y1="28.703" x2="26.7703" y2="28.703" gradientUnits="userSpaceOnUse">
<stop stop-color="#0CBAF1"/>
<stop offset="1" stop-color="#E95CE9"/>
</linearGradient>
<linearGradient id="paint1_linear_122_5654" x1="28.5833" y1="34.0042" x2="34.0876" y2="34.0042" gradientUnits="userSpaceOnUse">
<stop stop-color="#0CBAF1"/>
<stop offset="1" stop-color="#E95CE9"/>
</linearGradient>
<linearGradient id="paint2_linear_122_5654" x1="-0.000274658" y1="23.9997" x2="48.0003" y2="23.9997" gradientUnits="userSpaceOnUse">
<stop stop-color="#0CBAF1"/>
<stop offset="1" stop-color="#E95CE9"/>
</linearGradient>
<linearGradient id="paint3_linear_122_5654" x1="14.8803" y1="27.8584" x2="22.7475" y2="27.8584" gradientUnits="userSpaceOnUse">
<stop stop-color="#0CBAF1"/>
<stop offset="1" stop-color="#E95CE9"/>
</linearGradient>
<linearGradient id="paint4_linear_122_5654" x1="25.2525" y1="27.8584" x2="33.1197" y2="27.8584" gradientUnits="userSpaceOnUse">
<stop stop-color="#0CBAF1"/>
<stop offset="1" stop-color="#E95CE9"/>
</linearGradient>
<linearGradient id="paint5_linear_122_5654" x1="4.57077" y1="21.0545" x2="15.9949" y2="21.0545" gradientUnits="userSpaceOnUse">
<stop stop-color="#0CBAF1"/>
<stop offset="1" stop-color="#E95CE9"/>
</linearGradient>
<linearGradient id="paint6_linear_122_5654" x1="36.8195" y1="18.9341" x2="42.2463" y2="18.9341" gradientUnits="userSpaceOnUse">
<stop stop-color="#0CBAF1"/>
<stop offset="1" stop-color="#E95CE9"/>
</linearGradient>
<linearGradient id="paint7_linear_122_5654" x1="32.5787" y1="23.1753" x2="38.0055" y2="23.1753" gradientUnits="userSpaceOnUse">
<stop stop-color="#0CBAF1"/>
<stop offset="1" stop-color="#E95CE9"/>
</linearGradient>
<linearGradient id="paint8_linear_122_5654" x1="20.0294" y1="19.7576" x2="28.1902" y2="19.7576" gradientUnits="userSpaceOnUse">
<stop stop-color="#0CBAF1"/>
<stop offset="1" stop-color="#E95CE9"/>
</linearGradient>
<linearGradient id="paint9_linear_122_5654" x1="13.3734" y1="11.9931" x2="16.5283" y2="11.9931" gradientUnits="userSpaceOnUse">
<stop stop-color="#0CBAF1"/>
<stop offset="1" stop-color="#E95CE9"/>
</linearGradient>
<linearGradient id="paint10_linear_122_5654" x1="17.8856" y1="12.2427" x2="34.6265" y2="12.2427" gradientUnits="userSpaceOnUse">
<stop stop-color="#0CBAF1"/>
<stop offset="1" stop-color="#E95CE9"/>
</linearGradient>
</defs>
</svg>
